<svg xmlns="http://www.w3.org/2000/svg" width="1031.13" height="195.201" viewBox="0 0 1031.13 195.201">
  <g id="Grupo_841762" data-name="Grupo 841762" transform="translate(-284.871 -4440.096)">
    <path id="Trazado_565274" data-name="Trazado 565274" d="M-236.431,3181.946a63.148,63.148,0,0,0-17.545-39.48,63.18,63.18,0,0,0-45.716-19.476,63.163,63.163,0,0,0-44.1,17.841,27.837,27.837,0,0,1-27.008,2.262,28.353,28.353,0,0,1-16.6-25.458c-.028-1.169-.085-2.346-.176-3.53a62.739,62.739,0,0,0-18.144-39.367l-.028-.028c-.592-.592-1.191-1.17-1.8-1.74-.078-.071-.155-.147-.233-.219-.55-.507-1.113-1-1.677-1.487-.148-.127-.3-.253-.437-.381-.514-.43-1.029-.845-1.55-1.261-.211-.169-.43-.345-.648-.514-.465-.359-.944-.712-1.423-1.057-.282-.2-.564-.409-.846-.606-.43-.3-.874-.6-1.311-.888-.338-.233-.684-.465-1.029-.684-.4-.254-.8-.5-1.212-.747s-.789-.486-1.191-.719c-.373-.211-.754-.422-1.127-.627-.444-.247-.881-.486-1.332-.719-.352-.183-.712-.359-1.071-.542-.479-.233-.958-.472-1.444-.7-.345-.162-.691-.31-1.036-.465-.514-.226-1.022-.451-1.536-.663-.338-.141-.683-.268-1.029-.408-.521-.2-1.057-.409-1.585-.6-.352-.127-.7-.24-1.057-.359-.528-.183-1.064-.359-1.6-.528-.366-.113-.733-.219-1.1-.324-.536-.155-1.064-.31-1.607-.451-.388-.1-.782-.19-1.177-.289-.514-.12-1.036-.247-1.557-.353q-.634-.137-1.268-.253c-.5-.1-1-.19-1.508-.275-.458-.078-.923-.141-1.381-.2s-.944-.133-1.423-.19c-.5-.063-1.008-.113-1.508-.155-.3-.035-.6-.07-.895-.1-.134-.007-.254-.007-.388-.014-.2-.014-.395-.042-.592-.056-.514-.028-1.022-.035-1.536-.056-.493-.021-.986-.042-1.473-.056-.662-.008-1.318,0-1.973.014-.507.007-1.022.007-1.529.021-.613.028-1.219.071-1.818.113-.55.035-1.1.064-1.642.113-.521.049-1.036.12-1.55.176-.62.07-1.24.141-1.853.225-.247.043-.493.092-.747.134a61.661,61.661,0,0,0-8.5,1.973c-.1.028-.211.056-.31.084-.846.268-1.684.564-2.515.86-.19.07-.381.134-.578.2-.8.3-1.585.62-2.368.944-.211.092-.43.176-.641.268-.775.331-1.536.691-2.3,1.057-.211.1-.423.19-.627.3-.754.374-1.494.768-2.234,1.17-.2.105-.409.211-.606.324-.74.416-1.466.845-2.184,1.29-.19.113-.374.226-.564.338-.726.458-1.437.93-2.142,1.409-.169.12-.338.233-.5.352-.719.493-1.416,1.008-2.107,1.536-.148.113-.289.225-.437.338-.7.543-1.4,1.106-2.072,1.677-.12.106-.24.2-.352.3q-1.046.9-2.051,1.839c-.085.078-.169.162-.261.247q-1.036.983-2.029,2.008c-.049.056-.1.106-.148.162-.691.719-1.367,1.458-2.022,2.212l-.021.021a62.745,62.745,0,0,0-15.474,41.516,25.338,25.338,0,0,1-14.994,23.133l-3.347,1.5a24.782,24.782,0,0,1-25.451-2.924,63.1,63.1,0,0,0-15.255-10.76c-.035-.021-.07-.035-.106-.056-.606-.3-1.226-.592-1.839-.881-.465-.211-.923-.43-1.4-.627-.254-.113-.507-.219-.761-.324-1.677-.7-3.368-1.3-5.059-1.846a61.909,61.909,0,0,0-14.713-2.91,62.812,62.812,0,0,0-46.047,15.3,27.827,27.827,0,0,1-29.629,4.235,28.353,28.353,0,0,1-16.6-25.458c-.028-1.169-.085-2.346-.176-3.53a63.338,63.338,0,0,0-58.758-57.969,63.127,63.127,0,0,0-67.031,58.956q-.127,1.976-.127,3.967v.162a25.336,25.336,0,0,1-14.994,23.161l-3.347,1.5a24.682,24.682,0,0,1-26.705-3.988,63.186,63.186,0,0,0-15.924-10.626l-.183-.085c-.648-.3-1.3-.584-1.966-.867-.254-.105-.5-.211-.747-.317-.521-.212-1.043-.409-1.564-.606-.409-.148-.81-.3-1.219-.451s-.817-.275-1.226-.409c-.536-.176-1.078-.352-1.621-.515-.317-.1-.634-.183-.951-.275-.641-.183-1.282-.352-1.931-.514-.247-.064-.5-.127-.761-.184-.7-.169-1.416-.324-2.128-.465l-.683-.127c-.733-.141-1.466-.261-2.206-.374l-.726-.105c-.7-.1-1.416-.184-2.128-.254-.3-.035-.613-.063-.916-.091s-.585-.063-.874-.085-.6-.021-.9-.042c-.528-.029-1.057-.057-1.592-.078-.5-.014-1-.028-1.494-.035-.254,0-.507-.014-.761-.014-.338,0-.669.014-1.008.021-.437.007-.867.014-1.3.028-.648.028-1.282.064-1.917.106-.38.028-.761.049-1.134.078-.719.063-1.43.141-2.135.225-.3.035-.585.063-.881.105-.874.113-1.733.254-2.6.4l-.373.063a62.637,62.637,0,0,0-8.97,2.339l-.035.007c-.937.324-1.874.67-2.8,1.036-.07.035-.148.064-.218.092-.86.345-1.712.712-2.558,1.092-.1.042-.19.084-.282.134-.824.381-1.642.775-2.452,1.191l-.261.134q-1.226.634-2.431,1.332c-.063.035-.12.07-.183.1-.839.493-1.67.993-2.48,1.522l-.042.021a64.333,64.333,0,0,0-7.462,5.615c-.317.282-.648.536-.987.8a27.866,27.866,0,0,1-28.424,3.27,28.353,28.353,0,0,1-16.6-25.458c-.028-1.169-.085-2.346-.176-3.53a62.738,62.738,0,0,0-18.144-39.367l-.028-.028c-.592-.592-1.191-1.17-1.8-1.74-.077-.071-.155-.147-.232-.219-.55-.507-1.113-1-1.677-1.487-.148-.127-.3-.253-.437-.381-.514-.43-1.029-.845-1.55-1.261-.211-.169-.43-.345-.648-.514-.465-.359-.944-.712-1.423-1.057-.282-.2-.564-.409-.846-.606-.43-.3-.874-.6-1.311-.888-.338-.233-.683-.465-1.029-.684-.4-.254-.8-.5-1.212-.747s-.789-.486-1.191-.719c-.373-.211-.754-.422-1.127-.627-.444-.247-.881-.486-1.332-.719-.352-.183-.712-.359-1.071-.542-.479-.233-.958-.472-1.445-.7-.345-.162-.691-.31-1.036-.465-.514-.226-1.022-.451-1.536-.663-.338-.141-.683-.268-1.029-.408-.521-.2-1.057-.409-1.585-.6-.352-.127-.7-.24-1.057-.359-.528-.183-1.064-.359-1.6-.528-.366-.113-.733-.219-1.1-.324-.536-.155-1.064-.31-1.607-.451-.387-.1-.782-.19-1.17-.289-.521-.12-1.043-.247-1.564-.353q-.634-.137-1.268-.253c-.5-.1-1-.19-1.508-.275-.458-.078-.923-.141-1.381-.2s-.944-.133-1.423-.19c-.5-.063-1.008-.113-1.508-.155-.3-.035-.6-.07-.895-.1-.127-.007-.254-.007-.388-.014-.2-.014-.395-.042-.592-.056-.514-.028-1.022-.035-1.536-.056-.493-.021-.986-.042-1.473-.056-.662-.008-1.318,0-1.973.014-.507.007-1.022.007-1.529.021-.613.028-1.219.071-1.818.113-.55.035-1.1.064-1.642.113-.521.049-1.036.12-1.55.176-.62.07-1.24.141-1.853.225-.247.043-.493.092-.747.134a61.662,61.662,0,0,0-8.5,1.973c-.1.028-.211.056-.31.084-.846.268-1.684.564-2.516.86-.19.07-.38.134-.578.2-.8.3-1.585.62-2.368.944-.211.092-.43.176-.641.268-.775.331-1.536.691-2.3,1.057-.211.1-.423.19-.627.3-.754.374-1.494.768-2.234,1.17-.2.105-.409.211-.606.324-.74.416-1.466.845-2.184,1.29-.19.113-.374.226-.564.338-.726.458-1.437.93-2.142,1.409-.169.12-.338.233-.5.352-.719.493-1.416,1.008-2.107,1.536-.148.113-.289.225-.437.338-.7.543-1.4,1.106-2.072,1.677-.12.106-.24.2-.352.3q-1.046.9-2.05,1.839c-.085.078-.169.162-.261.247q-1.036.983-2.029,2.008c-.049.056-.1.106-.148.162q-1.036,1.078-2.022,2.212l-.021.021a62.745,62.745,0,0,0-15.474,41.516,25.338,25.338,0,0,1-14.994,23.133l-3.347,1.5a24.782,24.782,0,0,1-25.451-2.924,63.1,63.1,0,0,0-15.255-10.76c-.035-.021-.071-.035-.106-.056-.606-.3-1.226-.592-1.839-.881-.465-.211-.923-.43-1.4-.627-.254-.113-.507-.219-.761-.324a63.064,63.064,0,0,0-82.391,34.146,63.066,63.066,0,0,0,25.5,78l.042.029c.782.472,1.578.929,2.382,1.366.1.057.19.113.289.162.578.317,1.17.606,1.755.9.888.436,1.783.86,2.692,1.261.564.246,1.141.486,1.719.719.289.12.585.239.874.352a63.014,63.014,0,0,0,81.673-35.633,63.162,63.162,0,0,0,4.355-23.062c0-.993-.035-1.973-.078-2.952a25.344,25.344,0,0,1,14.832-20.5l3.354-1.494a24.683,24.683,0,0,1,26.705,3.981,63.214,63.214,0,0,0,15.91,10.619c.07.035.127.063.19.092.655.3,1.311.592,1.973.866l.74.317c.521.211,1.043.408,1.571.606.4.155.8.3,1.212.45s.817.282,1.233.416c.536.176,1.064.352,1.607.507.317.1.641.19.965.282.634.177,1.275.352,1.917.507.254.063.514.127.775.184.7.169,1.409.324,2.121.465.233.042.458.092.691.134.733.134,1.466.261,2.206.366l.719.106c.7.1,1.416.183,2.128.253.3.035.613.063.923.092.289.021.578.063.867.084s.6.021.895.042c.536.035,1.071.056,1.606.077.493.014.994.028,1.487.035.254,0,.507.014.761.014.345,0,.683-.014,1.029-.021.416-.007.839-.014,1.254-.028.655-.021,1.311-.063,1.959-.106.359-.021.719-.042,1.078-.077.747-.056,1.494-.14,2.234-.232.254-.028.514-.05.775-.085a62.681,62.681,0,0,0,9.019-1.881l.141-.042c.916-.268,1.832-.556,2.734-.86.113-.042.233-.084.352-.127.831-.289,1.663-.592,2.487-.916.127-.05.261-.106.387-.162.818-.324,1.621-.662,2.41-1.022.12-.056.24-.106.352-.162.817-.381,1.628-.769,2.431-1.184l.233-.12c.867-.444,1.719-.916,2.565-1.4l.014-.007a62.817,62.817,0,0,0,9.6-6.806,28.036,28.036,0,0,1,39.565,2.7,28.032,28.032,0,0,1,6.912,18.292,65.138,65.138,0,0,0,.486,6.624c.07.535.19,1.064.268,1.6.1.613.2,1.226.31,1.832q.412,2.22.972,4.383c.035.148.077.3.113.444a63.312,63.312,0,0,0,36.514,41.812c.085.035.169.077.254.113.951.395,1.917.768,2.889,1.12q1.237.444,2.494.846c.684.211,1.367.409,2.058.6,1.141.317,2.3.6,3.467.853.493.106.994.2,1.494.3q2.05.391,4.157.648c.106.014.211.042.324.05.324.042.641.049.965.084.395.042.789.092,1.184.12.211.021.423.021.634.035.655.042,1.3.077,1.959.1.55.021,1.1.042,1.649.049.613.007,1.219,0,1.832-.007.571-.007,1.148-.014,1.719-.042s1.134-.063,1.7-.1c.606-.042,1.212-.085,1.811-.141.514-.049,1.029-.12,1.543-.183.634-.077,1.275-.155,1.909-.254.465-.071.923-.155,1.381-.24.669-.12,1.339-.24,2-.381.409-.084.8-.183,1.2-.275.712-.162,1.423-.331,2.121-.514.338-.092.669-.2,1-.289.754-.219,1.508-.437,2.248-.684.261-.084.514-.176.768-.268.81-.275,1.614-.557,2.4-.867.169-.063.324-.134.493-.2.874-.345,1.74-.712,2.6-1.092.049-.021.092-.049.141-.07a63.132,63.132,0,0,0,37.035-57.624,25.343,25.343,0,0,1,14.987-23.133l3.347-1.494a24.679,24.679,0,0,1,26.705,3.981,62.932,62.932,0,0,0,83.561,1.275,28.173,28.173,0,0,1,29.9-4.475,28.4,28.4,0,0,1,16.6,25.465c.021,1.17.085,2.353.176,3.544a63.272,63.272,0,0,0,30.271,48.936c.063.042.127.084.19.12l.042.029a1.133,1.133,0,0,1,.127.07c.62.374,1.254.733,1.888,1.085.12.071.247.148.366.211.1.057.19.113.289.162.078.042.155.078.232.12.381.2.768.395,1.156.592.12.064.24.127.366.191.042.021.092.042.141.063a62.055,62.055,0,0,0,7.074,2.988c.479.169.965.338,1.452.493.169.056.338.113.514.169a63.012,63.012,0,0,0,77.776-37.014,63.163,63.163,0,0,0,4.355-23.062c0-.993-.035-1.973-.078-2.952a25.344,25.344,0,0,1,14.832-20.5l3.354-1.494a24.683,24.683,0,0,1,26.705,3.981,63.216,63.216,0,0,0,15.91,10.619c.071.035.127.063.19.092.655.3,1.311.592,1.973.866.247.106.486.211.74.317.521.211,1.043.408,1.571.606.4.155.8.3,1.212.45s.817.282,1.233.416c.536.176,1.064.352,1.607.507.317.1.641.19.965.282.634.177,1.275.352,1.917.507.254.063.514.127.775.184.7.169,1.409.324,2.121.465.233.042.458.092.691.134.733.134,1.466.261,2.205.366l.719.106c.7.1,1.416.183,2.128.253.3.035.613.063.923.092.289.021.578.063.867.084s.6.021.895.042c.535.035,1.071.056,1.607.077.493.014.993.028,1.487.035.254,0,.507.014.761.014.345,0,.684-.014,1.029-.021.416-.007.839-.014,1.254-.028.655-.021,1.311-.063,1.959-.106.359-.021.719-.042,1.078-.077.747-.056,1.494-.14,2.234-.232.254-.028.514-.05.775-.085a62.686,62.686,0,0,0,9.019-1.881l.141-.042c.916-.268,1.832-.556,2.734-.86.113-.042.233-.084.352-.127.831-.289,1.663-.592,2.487-.916.127-.05.261-.106.388-.162.817-.324,1.621-.662,2.41-1.022.12-.056.24-.106.352-.162.817-.381,1.628-.769,2.431-1.184l.233-.12c.867-.444,1.719-.916,2.565-1.4l.014-.007a62.811,62.811,0,0,0,9.6-6.806,28.036,28.036,0,0,1,39.565,2.7,28.062,28.062,0,0,1,6.722,15.164v.014c-.014.55-.021,1.106-.021,1.663a63.412,63.412,0,0,0,63.416,63.416,63.412,63.412,0,0,0,63.416-63.416Q-236.276,3184.154-236.431,3181.946Z" transform="translate(1552.276 1385.24)" fill="#ddefd7"/>
    <path id="Trazado_563962" data-name="Trazado 563962" d="M295.231,189.852a48.8,48.8,0,1,1-48.8-48.807A48.8,48.8,0,0,1,295.231,189.852Z" transform="translate(553.509 4314.313)" fill="#fff"/>
    <path id="Trazado_565277" data-name="Trazado 565277" d="M325.754,205.114a64.065,64.065,0,1,1-64.064-64.07A64.063,64.063,0,0,1,325.754,205.114Z" transform="translate(538.247 4299.052)" fill="#ffce7e"/>
    <path id="Trazado_565284" data-name="Trazado 565284" d="M325.754,205.114a64.065,64.065,0,1,1-64.064-64.07A64.063,64.063,0,0,1,325.754,205.114Z" transform="translate(237.312 4299.052)" fill="#79be60"/>
    <path id="Trazado_565283" data-name="Trazado 565283" d="M325.754,205.114a64.065,64.065,0,1,1-64.064-64.07A64.063,64.063,0,0,1,325.754,205.114Z" transform="translate(840.312 4299.052)" fill="#ff854e"/>
    <path id="Trazado_565276" data-name="Trazado 565276" d="M295.231,189.852a48.8,48.8,0,1,1-48.8-48.807A48.8,48.8,0,0,1,295.231,189.852Z" transform="translate(553.509 4314.313)" fill="#fff"/>
    <path id="Trazado_563962-2" data-name="Trazado 563962" d="M295.231,189.852a48.8,48.8,0,1,1-48.8-48.807A48.8,48.8,0,0,1,295.231,189.852Z" transform="translate(252.509 4314.313)" fill="#fff"/>
    <path id="Trazado_565278" data-name="Trazado 565278" d="M325.754,205.114a64.065,64.065,0,1,1-64.064-64.07A64.063,64.063,0,0,1,325.754,205.114Z" transform="translate(388.247 4366.052)" fill="#47b5ab"/>
    <path id="Trazado_565281" data-name="Trazado 565281" d="M325.754,205.114a64.065,64.065,0,1,1-64.064-64.07A64.063,64.063,0,0,1,325.754,205.114Z" transform="translate(689.248 4366.052)" fill="#ffd63d"/>
    <path id="Trazado_565282" data-name="Trazado 565282" d="M325.754,205.114a64.065,64.065,0,1,1-64.064-64.07A64.063,64.063,0,0,1,325.754,205.114Z" transform="translate(990.247 4366.119)" fill="#f5ead9"/>
    <path id="Trazado_565280" data-name="Trazado 565280" d="M325.754,205.114a64.065,64.065,0,1,1-64.064-64.07A64.063,64.063,0,0,1,325.754,205.114Z" transform="translate(87.248 4366.052)" fill="#006c62"/>
    <path id="Trazado_563962-3" data-name="Trazado 563962" d="M295.231,189.852a48.8,48.8,0,1,1-48.8-48.807A48.8,48.8,0,0,1,295.231,189.852Z" transform="translate(403.509 4381.313)" fill="#fff"/>
    <path id="Trazado_563962-4" data-name="Trazado 563962" d="M295.231,189.852a48.8,48.8,0,1,1-48.8-48.807A48.8,48.8,0,0,1,295.231,189.852Z" transform="translate(102.509 4381.313)" fill="#fff"/>
    <path id="Trazado_563962-5" data-name="Trazado 563962" d="M295.231,189.852a48.8,48.8,0,1,1-48.8-48.807A48.8,48.8,0,0,1,295.231,189.852Z" transform="translate(704.509 4381.313)" fill="#fff"/>
    <path id="Trazado_563962-6" data-name="Trazado 563962" d="M295.231,189.852a48.8,48.8,0,1,1-48.8-48.807A48.8,48.8,0,0,1,295.231,189.852Z" transform="translate(1006.509 4381.313)" fill="#fff"/>
    <path id="Trazado_563962-7" data-name="Trazado 563962" d="M295.231,189.852a48.8,48.8,0,1,1-48.8-48.807A48.8,48.8,0,0,1,295.231,189.852Z" transform="translate(855.509 4314.313)" fill="#fff"/>
    <path id="Trazado_567251" data-name="Trazado 567251" d="M23.283,13.34a5.454,5.454,0,0,1-.272,1.892,3.674,3.674,0,0,1-.971,1.372,10.244,10.244,0,0,0-.949.968,2.524,2.524,0,0,0-.378.643,1.941,1.941,0,0,0-.127.713,1.209,1.209,0,0,0,1.354,1.382,1.462,1.462,0,0,0,1.077-.4,1.55,1.55,0,0,0,.417-1.11h2.54a3.394,3.394,0,0,1-1.081,2.635,4.222,4.222,0,0,1-2.909.946,4.321,4.321,0,0,1-2.909-.893,3.178,3.178,0,0,1-1.037-2.547A3.922,3.922,0,0,1,19.38,16.2l.853-.818a2.254,2.254,0,0,0,.611-.827,3.626,3.626,0,0,0,.189-1.214Zm.316-2.685a1.259,1.259,0,0,1-.4.964,1.568,1.568,0,0,1-2.039,0,1.259,1.259,0,0,1-.4-.964,1.28,1.28,0,0,1,.391-.964,1.6,1.6,0,0,1,2.065,0A1.28,1.28,0,0,1,23.6,10.655Zm14.423,2.237a7.71,7.71,0,0,1-.58,3.116,5.349,5.349,0,0,1-1.608,2.123L37.96,19.8l-1.679,1.485L33.557,19.1a5.767,5.767,0,0,1-.967.079,5.324,5.324,0,0,1-2.839-.765,5.08,5.08,0,0,1-1.934-2.184,7.5,7.5,0,0,1-.694-3.265v-.633A7.685,7.685,0,0,1,27.8,9,5.072,5.072,0,0,1,29.729,6.8a5.64,5.64,0,0,1,5.687,0A5.072,5.072,0,0,1,37.341,9a7.663,7.663,0,0,1,.681,3.318Zm-2.672-.58a5.385,5.385,0,0,0-.721-3.059,2.546,2.546,0,0,0-4.1-.013,5.324,5.324,0,0,0-.729,3.028v.624a5.453,5.453,0,0,0,.721,3.041,2.524,2.524,0,0,0,4.113.04,5.421,5.421,0,0,0,.721-3.037Zm10.134,5.722a3.185,3.185,0,0,1-2.6,1.143,3,3,0,0,1-2.333-.879,3.752,3.752,0,0,1-.822-2.575V9.49h2.54v6.151q0,1.487,1.354,1.487a1.834,1.834,0,0,0,1.775-.9V9.49h2.549V19H45.554Zm8.754,1.143a4.668,4.668,0,0,1-3.406-1.283,4.561,4.561,0,0,1-1.314-3.419v-.246a5.745,5.745,0,0,1,.554-2.562,4.064,4.064,0,0,1,1.569-1.74,4.4,4.4,0,0,1,2.316-.611,3.947,3.947,0,0,1,3.072,1.23,5,5,0,0,1,1.121,3.489v1.037H52.093a2.36,2.36,0,0,0,.743,1.494,2.245,2.245,0,0,0,1.569.563A2.742,2.742,0,0,0,56.7,16.064l1.248,1.4A3.813,3.813,0,0,1,56.4,18.723,5.075,5.075,0,0,1,54.238,19.176Zm-.29-7.813a1.587,1.587,0,0,0-1.226.512,2.651,2.651,0,0,0-.6,1.466h3.533v-.2a1.891,1.891,0,0,0-.457-1.311A1.638,1.638,0,0,0,53.948,11.362ZM54.176,5.5h2.769L54.51,8.225H52.445Zm7.488,9.58a5.288,5.288,0,0,1,.3-1.962,4.025,4.025,0,0,1,1.094-1.438,5.6,5.6,0,0,0,1.059-1.153,1.81,1.81,0,0,0,.264-.938q0-1.488-1.371-1.488a1.389,1.389,0,0,0-1.042.4,1.575,1.575,0,0,0-.409,1.106H59.01A3.39,3.39,0,0,1,60.1,6.977,5.013,5.013,0,0,1,65.9,6.929a3.208,3.208,0,0,1,1.028,2.547,3.1,3.1,0,0,1-.334,1.412,5.817,5.817,0,0,1-1.169,1.474l-.712.677a2.413,2.413,0,0,0-.765,1.5l-.035.537Zm-.255,2.694a1.279,1.279,0,0,1,.4-.968,1.566,1.566,0,0,1,2.048,0,1.366,1.366,0,0,1,.009,1.923,1.6,1.6,0,0,1-2.065,0A1.269,1.269,0,0,1,61.41,17.774Z" transform="translate(306.437 4556.663)" fill="#12263f"/>
    <path id="Trazado_567252" data-name="Trazado 567252" d="M8.447,13.34a5.454,5.454,0,0,1-.272,1.892A3.674,3.674,0,0,1,7.2,16.6a10.244,10.244,0,0,0-.949.968,2.524,2.524,0,0,0-.378.643,1.941,1.941,0,0,0-.127.713A1.209,1.209,0,0,0,7.1,20.31a1.462,1.462,0,0,0,1.077-.4A1.55,1.55,0,0,0,8.6,18.8h2.54a3.394,3.394,0,0,1-1.081,2.635,4.222,4.222,0,0,1-2.909.946,4.321,4.321,0,0,1-2.909-.893A3.178,3.178,0,0,1,3.2,18.944,3.922,3.922,0,0,1,4.544,16.2l.853-.818a2.254,2.254,0,0,0,.611-.827A3.626,3.626,0,0,0,6.2,13.34Zm.316-2.685a1.259,1.259,0,0,1-.4.964A1.437,1.437,0,0,1,7.339,12a1.437,1.437,0,0,1-1.02-.377,1.259,1.259,0,0,1-.4-.964,1.28,1.28,0,0,1,.391-.964,1.426,1.426,0,0,1,1.033-.377,1.426,1.426,0,0,1,1.033.377A1.28,1.28,0,0,1,8.763,10.655Zm13.975,4.083a4.528,4.528,0,0,1-1.525,3.252,5.355,5.355,0,0,1-3.625,1.187,4.816,4.816,0,0,1-3.872-1.657,6.793,6.793,0,0,1-1.411-4.548v-.782a7.671,7.671,0,0,1,.65-3.252,4.874,4.874,0,0,1,1.859-2.158,5.207,5.207,0,0,1,2.808-.751,5.217,5.217,0,0,1,3.568,1.187,4.866,4.866,0,0,1,1.564,3.331H20.119a2.673,2.673,0,0,0-.69-1.8,2.555,2.555,0,0,0-1.806-.558,2.24,2.24,0,0,0-1.973.945,5.3,5.3,0,0,0-.672,2.931v.967a5.667,5.667,0,0,0,.628,3.032,2.2,2.2,0,0,0,1.982.958,2.6,2.6,0,0,0,1.824-.558,2.521,2.521,0,0,0,.69-1.727Zm7.26,3.3a3.185,3.185,0,0,1-2.6,1.143,3,3,0,0,1-2.333-.879,3.752,3.752,0,0,1-.822-2.575V9.49h2.54v6.151q0,1.487,1.354,1.487a1.834,1.834,0,0,0,1.775-.9V9.49h2.549V19H30.068ZM39.885,19a2.821,2.821,0,0,1-.255-.853,3.073,3.073,0,0,1-2.4,1.028,3.376,3.376,0,0,1-2.316-.809A2.6,2.6,0,0,1,34,16.328a2.687,2.687,0,0,1,1.121-2.32,5.529,5.529,0,0,1,3.239-.817h1.169v-.545a1.567,1.567,0,0,0-.338-1.055,1.331,1.331,0,0,0-1.068-.4,1.513,1.513,0,0,0-1.006.308,1.045,1.045,0,0,0-.365.844h-2.54a2.551,2.551,0,0,1,.51-1.529,3.37,3.37,0,0,1,1.441-1.1,5.253,5.253,0,0,1,2.092-.4,4.15,4.15,0,0,1,2.791.883,3.09,3.09,0,0,1,1.033,2.483V16.8a4.546,4.546,0,0,0,.378,2.048V19Zm-2.1-1.767a2.188,2.188,0,0,0,1.037-.25,1.645,1.645,0,0,0,.7-.672V14.676h-.949q-1.907,0-2.03,1.318l-.009.149a1.017,1.017,0,0,0,.334.782A1.3,1.3,0,0,0,37.785,17.233ZM38.751,5.5H41.52L39.085,8.225H37.02Zm7.611,3.99.079,1.1a3.32,3.32,0,0,1,2.733-1.274,2.759,2.759,0,0,1,2.25.888,4.142,4.142,0,0,1,.756,2.654V19h-2.54V12.918a1.648,1.648,0,0,0-.352-1.173,1.574,1.574,0,0,0-1.169-.365,1.747,1.747,0,0,0-1.608.914V19h-2.54V9.49Zm7.348,4.685a5.731,5.731,0,0,1,1-3.542,3.237,3.237,0,0,1,2.729-1.318,2.913,2.913,0,0,1,2.294,1.037V5.5H62.28V19H59.986l-.123-1.011a2.989,2.989,0,0,1-2.443,1.187,3.228,3.228,0,0,1-2.694-1.323A5.916,5.916,0,0,1,53.71,14.175Zm2.54.189a3.754,3.754,0,0,0,.466,2.051,1.517,1.517,0,0,0,1.354.713,1.7,1.7,0,0,0,1.661-.995V12.375a1.675,1.675,0,0,0-1.644-.995Q56.25,11.38,56.25,14.364Zm7.6-.207a5.64,5.64,0,0,1,.545-2.522,3.989,3.989,0,0,1,1.569-1.714,4.577,4.577,0,0,1,2.377-.606,4.33,4.33,0,0,1,3.142,1.178,4.727,4.727,0,0,1,1.358,3.2l.018.65a4.97,4.97,0,0,1-1.222,3.511,4.735,4.735,0,0,1-6.561,0,5.058,5.058,0,0,1-1.226-3.586Zm2.54.18a3.555,3.555,0,0,0,.51,2.073,1.831,1.831,0,0,0,2.9.009,3.89,3.89,0,0,0,.519-2.267,3.519,3.519,0,0,0-.519-2.06,1.686,1.686,0,0,0-1.459-.731,1.658,1.658,0,0,0-1.441.726A3.955,3.955,0,0,0,66.393,14.338ZM76.5,15.08a5.288,5.288,0,0,1,.3-1.962,4.025,4.025,0,0,1,1.094-1.438,5.6,5.6,0,0,0,1.059-1.153,1.81,1.81,0,0,0,.264-.938q0-1.488-1.371-1.488a1.389,1.389,0,0,0-1.042.4A1.575,1.575,0,0,0,76.4,9.608H73.846a3.39,3.39,0,0,1,1.085-2.63,5.013,5.013,0,0,1,5.805-.048,3.208,3.208,0,0,1,1.028,2.547,3.1,3.1,0,0,1-.334,1.412,5.817,5.817,0,0,1-1.169,1.474l-.712.677a2.413,2.413,0,0,0-.765,1.5l-.035.537Zm-.255,2.694a1.279,1.279,0,0,1,.4-.968,1.566,1.566,0,0,1,2.048,0,1.366,1.366,0,0,1,.009,1.923,1.6,1.6,0,0,1-2.065,0A1.269,1.269,0,0,1,76.246,17.774Z" transform="translate(607.436 4556.663)" fill="#12263f"/>
    <path id="Trazado_567253" data-name="Trazado 567253" d="M15.856,13.34a5.454,5.454,0,0,1-.272,1.892,3.674,3.674,0,0,1-.971,1.372,10.244,10.244,0,0,0-.949.968,2.524,2.524,0,0,0-.378.643,1.941,1.941,0,0,0-.127.713,1.209,1.209,0,0,0,1.354,1.382,1.462,1.462,0,0,0,1.077-.4,1.55,1.55,0,0,0,.417-1.11h2.54a3.394,3.394,0,0,1-1.081,2.635,4.222,4.222,0,0,1-2.909.946,4.321,4.321,0,0,1-2.909-.893,3.178,3.178,0,0,1-1.037-2.547A3.922,3.922,0,0,1,11.954,16.2l.853-.818a2.254,2.254,0,0,0,.611-.827,3.626,3.626,0,0,0,.189-1.214Zm.316-2.685a1.259,1.259,0,0,1-.4.964,1.568,1.568,0,0,1-2.039,0,1.259,1.259,0,0,1-.4-.964,1.28,1.28,0,0,1,.391-.964,1.6,1.6,0,0,1,2.065,0A1.28,1.28,0,0,1,16.172,10.655ZM30.6,12.892a7.71,7.71,0,0,1-.58,3.116,5.349,5.349,0,0,1-1.608,2.123l2.127,1.67-1.679,1.485L26.13,19.1a5.767,5.767,0,0,1-.967.079,5.324,5.324,0,0,1-2.839-.765,5.08,5.08,0,0,1-1.934-2.184,7.5,7.5,0,0,1-.694-3.265v-.633A7.685,7.685,0,0,1,20.378,9,5.072,5.072,0,0,1,22.3,6.8a5.64,5.64,0,0,1,5.687,0A5.072,5.072,0,0,1,29.914,9,7.663,7.663,0,0,1,30.6,12.32Zm-2.672-.58A5.385,5.385,0,0,0,27.2,9.253a2.546,2.546,0,0,0-4.1-.013,5.324,5.324,0,0,0-.729,3.028v.624a5.453,5.453,0,0,0,.721,3.041,2.524,2.524,0,0,0,4.113.04,5.421,5.421,0,0,0,.721-3.037Zm10.134,5.722a3.185,3.185,0,0,1-2.6,1.143,3,3,0,0,1-2.333-.879,3.752,3.752,0,0,1-.822-2.575V9.49h2.54v6.151q0,1.487,1.354,1.487a1.834,1.834,0,0,0,1.775-.9V9.49h2.549V19H38.127ZM45.115,19H42.566V9.49h2.549Zm-2.7-11.971a1.251,1.251,0,0,1,.382-.94,1.648,1.648,0,0,1,2.079,0,1.244,1.244,0,0,1,.387.94,1.247,1.247,0,0,1-.391.949,1.629,1.629,0,0,1-2.065,0A1.247,1.247,0,0,1,42.417,7.029Zm9.167,12.146a4.668,4.668,0,0,1-3.406-1.283,4.561,4.561,0,0,1-1.314-3.419v-.246a5.745,5.745,0,0,1,.554-2.562,4.064,4.064,0,0,1,1.569-1.74A4.4,4.4,0,0,1,51.3,9.314a3.947,3.947,0,0,1,3.072,1.23,5,5,0,0,1,1.121,3.489v1.037H49.439a2.36,2.36,0,0,0,.743,1.494,2.245,2.245,0,0,0,1.569.563,2.742,2.742,0,0,0,2.294-1.063l1.248,1.4a3.813,3.813,0,0,1-1.547,1.261A5.075,5.075,0,0,1,51.583,19.176Zm-.29-7.813a1.587,1.587,0,0,0-1.226.512,2.651,2.651,0,0,0-.6,1.466H53v-.2a1.891,1.891,0,0,0-.457-1.311A1.638,1.638,0,0,0,51.293,11.362ZM51.522,5.5h2.769L51.856,8.225H49.791Zm7.752,3.99.079,1.1a3.32,3.32,0,0,1,2.733-1.274,2.759,2.759,0,0,1,2.25.888,4.142,4.142,0,0,1,.756,2.654V19h-2.54V12.918a1.648,1.648,0,0,0-.352-1.173,1.574,1.574,0,0,0-1.169-.365,1.747,1.747,0,0,0-1.608.914V19h-2.54V9.49Zm9.817,5.59a5.288,5.288,0,0,1,.3-1.962,4.025,4.025,0,0,1,1.094-1.438,5.6,5.6,0,0,0,1.059-1.153,1.81,1.81,0,0,0,.264-.938q0-1.488-1.371-1.488a1.389,1.389,0,0,0-1.042.4,1.575,1.575,0,0,0-.409,1.106H66.437a3.39,3.39,0,0,1,1.085-2.63,5.013,5.013,0,0,1,5.805-.048,3.208,3.208,0,0,1,1.028,2.547,3.1,3.1,0,0,1-.334,1.412,5.817,5.817,0,0,1-1.169,1.474l-.712.677a2.413,2.413,0,0,0-.765,1.5l-.035.537Zm-.255,2.694a1.279,1.279,0,0,1,.4-.968,1.566,1.566,0,0,1,2.048,0,1.366,1.366,0,0,1,.009,1.923,1.6,1.6,0,0,1-2.065,0A1.269,1.269,0,0,1,68.836,17.774Z" transform="translate(907.436 4556.663)" fill="#12263f"/>
    <path id="Trazado_567254" data-name="Trazado 567254" d="M10.609,13.34a5.454,5.454,0,0,1-.272,1.892A3.674,3.674,0,0,1,9.365,16.6a10.244,10.244,0,0,0-.949.968,2.524,2.524,0,0,0-.378.643,1.941,1.941,0,0,0-.127.713A1.209,1.209,0,0,0,9.264,20.31a1.462,1.462,0,0,0,1.077-.4,1.55,1.55,0,0,0,.417-1.11H13.3a3.394,3.394,0,0,1-1.081,2.635,4.222,4.222,0,0,1-2.909.946A4.321,4.321,0,0,1,6.4,21.491a3.178,3.178,0,0,1-1.037-2.547A3.922,3.922,0,0,1,6.707,16.2l.853-.818a2.254,2.254,0,0,0,.611-.827,3.626,3.626,0,0,0,.189-1.214Zm.316-2.685a1.259,1.259,0,0,1-.4.964A1.437,1.437,0,0,1,9.5,12a1.437,1.437,0,0,1-1.02-.377,1.259,1.259,0,0,1-.4-.964,1.28,1.28,0,0,1,.391-.964A1.426,1.426,0,0,1,9.5,9.314a1.426,1.426,0,0,1,1.033.377A1.28,1.28,0,0,1,10.925,10.655ZM24.9,14.737a4.528,4.528,0,0,1-1.525,3.252,5.355,5.355,0,0,1-3.625,1.187,4.816,4.816,0,0,1-3.872-1.657,6.793,6.793,0,0,1-1.411-4.548v-.782a7.671,7.671,0,0,1,.65-3.252,4.874,4.874,0,0,1,1.859-2.158,5.207,5.207,0,0,1,2.808-.751,5.217,5.217,0,0,1,3.568,1.187,4.866,4.866,0,0,1,1.564,3.331H22.281a2.673,2.673,0,0,0-.69-1.8,2.555,2.555,0,0,0-1.806-.558,2.24,2.24,0,0,0-1.973.945,5.3,5.3,0,0,0-.672,2.931v.967a5.667,5.667,0,0,0,.628,3.032,2.2,2.2,0,0,0,1.982.958,2.6,2.6,0,0,0,1.824-.558,2.521,2.521,0,0,0,.69-1.727Zm7.26,3.3a3.185,3.185,0,0,1-2.6,1.143,3,3,0,0,1-2.333-.879,3.752,3.752,0,0,1-.822-2.575V9.49h2.54v6.151q0,1.487,1.354,1.487a1.834,1.834,0,0,0,1.775-.9V9.49h2.549V19H32.23ZM42.047,19a2.821,2.821,0,0,1-.255-.853,3.073,3.073,0,0,1-2.4,1.028,3.376,3.376,0,0,1-2.316-.809,2.6,2.6,0,0,1-.918-2.039,2.687,2.687,0,0,1,1.121-2.32,5.529,5.529,0,0,1,3.239-.817h1.169v-.545a1.567,1.567,0,0,0-.338-1.055,1.331,1.331,0,0,0-1.068-.4,1.513,1.513,0,0,0-1.006.308,1.045,1.045,0,0,0-.365.844H36.37a2.551,2.551,0,0,1,.51-1.529,3.37,3.37,0,0,1,1.441-1.1,5.253,5.253,0,0,1,2.092-.4A4.15,4.15,0,0,1,43.2,10.2a3.09,3.09,0,0,1,1.033,2.483V16.8a4.546,4.546,0,0,0,.378,2.048V19Zm-2.1-1.767a2.188,2.188,0,0,0,1.037-.25,1.645,1.645,0,0,0,.7-.672V14.676h-.949q-1.907,0-2.03,1.318l-.009.149a1.017,1.017,0,0,0,.334.782A1.3,1.3,0,0,0,39.947,17.233ZM40.914,5.5h2.769L41.248,8.225H39.182Zm7.611,3.99.079,1.1a3.32,3.32,0,0,1,2.733-1.274,2.759,2.759,0,0,1,2.25.888,4.142,4.142,0,0,1,.756,2.654V19H51.8V12.918a1.648,1.648,0,0,0-.352-1.173,1.574,1.574,0,0,0-1.169-.365,1.747,1.747,0,0,0-1.608.914V19h-2.54V9.49ZM59.309,7.152V9.49h1.626v1.863H59.309V16.1a1.133,1.133,0,0,0,.2.756,1.015,1.015,0,0,0,.773.229,4.051,4.051,0,0,0,.747-.062v1.925a5.229,5.229,0,0,1-1.538.229,2.425,2.425,0,0,1-2.725-2.7V11.354H55.38V9.49h1.389V7.152Zm2.382,7a5.64,5.64,0,0,1,.545-2.522A3.989,3.989,0,0,1,63.8,9.921a4.577,4.577,0,0,1,2.377-.606,4.33,4.33,0,0,1,3.142,1.178,4.727,4.727,0,0,1,1.358,3.2l.018.65a4.97,4.97,0,0,1-1.222,3.511,4.735,4.735,0,0,1-6.561,0,5.058,5.058,0,0,1-1.226-3.586Zm2.54.18a3.555,3.555,0,0,0,.51,2.073,1.831,1.831,0,0,0,2.9.009,3.89,3.89,0,0,0,.519-2.267,3.519,3.519,0,0,0-.519-2.06,1.686,1.686,0,0,0-1.459-.731,1.658,1.658,0,0,0-1.441.726A3.955,3.955,0,0,0,64.231,14.338Zm10.107.743a5.288,5.288,0,0,1,.3-1.962,4.025,4.025,0,0,1,1.094-1.438,5.6,5.6,0,0,0,1.059-1.153,1.81,1.81,0,0,0,.264-.938q0-1.488-1.371-1.488a1.389,1.389,0,0,0-1.042.4,1.575,1.575,0,0,0-.409,1.106H71.684a3.39,3.39,0,0,1,1.085-2.63,5.013,5.013,0,0,1,5.805-.048A3.208,3.208,0,0,1,79.6,9.476a3.1,3.1,0,0,1-.334,1.412A5.817,5.817,0,0,1,78.1,12.362l-.712.677a2.413,2.413,0,0,0-.765,1.5l-.035.537Zm-.255,2.694a1.279,1.279,0,0,1,.4-.968,1.566,1.566,0,0,1,2.048,0,1.366,1.366,0,0,1,.009,1.923,1.6,1.6,0,0,1-2.065,0A1.269,1.269,0,0,1,74.083,17.774Z" transform="translate(1208.435 4556.663)" fill="#12263f"/>
    <path id="Trazado_567255" data-name="Trazado 567255" d="M8.051,13.34a5.454,5.454,0,0,1-.272,1.892A3.674,3.674,0,0,1,6.808,16.6a10.244,10.244,0,0,0-.949.968,2.524,2.524,0,0,0-.378.643,1.941,1.941,0,0,0-.127.713A1.209,1.209,0,0,0,6.707,20.31a1.462,1.462,0,0,0,1.077-.4A1.55,1.55,0,0,0,8.2,18.8h2.54A3.394,3.394,0,0,1,9.66,21.438a4.222,4.222,0,0,1-2.909.946,4.321,4.321,0,0,1-2.909-.893A3.178,3.178,0,0,1,2.8,18.944,3.922,3.922,0,0,1,4.149,16.2L5,15.381a2.254,2.254,0,0,0,.611-.827A3.626,3.626,0,0,0,5.8,13.34Zm.316-2.685a1.259,1.259,0,0,1-.4.964A1.437,1.437,0,0,1,6.944,12a1.437,1.437,0,0,1-1.02-.377,1.259,1.259,0,0,1-.4-.964,1.28,1.28,0,0,1,.391-.964,1.426,1.426,0,0,1,1.033-.377,1.426,1.426,0,0,1,1.033.377A1.28,1.28,0,0,1,8.368,10.655Zm6.565,3.836V19H12.3V6.2h4.992a5.776,5.776,0,0,1,2.536.527,3.886,3.886,0,0,1,1.683,1.5,4.178,4.178,0,0,1,.589,2.21,3.674,3.674,0,0,1-1.288,2.966,5.363,5.363,0,0,1-3.564,1.085Zm0-2.136h2.355a2.316,2.316,0,0,0,1.6-.492,1.79,1.79,0,0,0,.549-1.406,2.111,2.111,0,0,0-.554-1.521,2.068,2.068,0,0,0-1.529-.6H14.933Zm8.3,1.8a5.64,5.64,0,0,1,.545-2.522,3.989,3.989,0,0,1,1.569-1.714,4.577,4.577,0,0,1,2.377-.606,4.33,4.33,0,0,1,3.142,1.178,4.727,4.727,0,0,1,1.358,3.2l.018.65a4.97,4.97,0,0,1-1.222,3.511,4.247,4.247,0,0,1-3.278,1.323,4.268,4.268,0,0,1-3.283-1.318,5.058,5.058,0,0,1-1.226-3.586Zm2.54.18a3.555,3.555,0,0,0,.51,2.073,1.831,1.831,0,0,0,2.9.009,3.89,3.89,0,0,0,.519-2.267,3.519,3.519,0,0,0-.519-2.06,1.686,1.686,0,0,0-1.459-.731,1.658,1.658,0,0,0-1.441.726A3.955,3.955,0,0,0,25.77,14.338Zm13.377-2.465a6.9,6.9,0,0,0-.914-.07,1.86,1.86,0,0,0-1.89.976V19H33.8V9.49h2.4l.07,1.134a2.354,2.354,0,0,1,2.118-1.31,2.662,2.662,0,0,1,.791.114Zm5.309,2.285a5.684,5.684,0,0,1,1-3.542,3.261,3.261,0,0,1,2.738-1.3,2.92,2.92,0,0,1,2.435,1.169l.167-.993h2.232V22.656H50.476V18.183a2.928,2.928,0,0,1-2.3.993,3.237,3.237,0,0,1-2.707-1.318A5.963,5.963,0,0,1,44.456,14.157Zm2.54.18a3.729,3.729,0,0,0,.479,2.077,1.533,1.533,0,0,0,1.349.713,1.708,1.708,0,0,0,1.652-.933V12.26a1.694,1.694,0,0,0-1.635-.9,1.552,1.552,0,0,0-1.362.713A4.118,4.118,0,0,0,47,14.338Zm13.72,3.7a3.185,3.185,0,0,1-2.6,1.143A3,3,0,0,1,55.78,18.3a3.752,3.752,0,0,1-.822-2.575V9.49H57.5v6.151q0,1.487,1.354,1.487a1.834,1.834,0,0,0,1.775-.9V9.49h2.549V19H60.786Zm8.754,1.143a4.668,4.668,0,0,1-3.406-1.283,4.561,4.561,0,0,1-1.314-3.419v-.246a5.745,5.745,0,0,1,.554-2.562,4.064,4.064,0,0,1,1.569-1.74,4.4,4.4,0,0,1,2.316-.611,3.947,3.947,0,0,1,3.072,1.23,5,5,0,0,1,1.121,3.489v1.037H67.325a2.36,2.36,0,0,0,.743,1.494,2.245,2.245,0,0,0,1.569.563,2.742,2.742,0,0,0,2.294-1.063l1.248,1.4a3.813,3.813,0,0,1-1.547,1.261A5.075,5.075,0,0,1,69.469,19.176Zm-.29-7.813a1.587,1.587,0,0,0-1.226.512,2.651,2.651,0,0,0-.6,1.466h3.533v-.2a1.891,1.891,0,0,0-.457-1.311A1.638,1.638,0,0,0,69.179,11.362ZM69.408,5.5h2.769L69.742,8.225H67.676ZM76.9,15.08a5.288,5.288,0,0,1,.3-1.962,4.025,4.025,0,0,1,1.094-1.438,5.6,5.6,0,0,0,1.059-1.153,1.81,1.81,0,0,0,.264-.938q0-1.488-1.371-1.488a1.389,1.389,0,0,0-1.042.4,1.575,1.575,0,0,0-.409,1.106H74.242a3.39,3.39,0,0,1,1.085-2.63,5.013,5.013,0,0,1,5.805-.048,3.208,3.208,0,0,1,1.028,2.547,3.1,3.1,0,0,1-.334,1.412,5.817,5.817,0,0,1-1.169,1.474l-.712.677a2.413,2.413,0,0,0-.765,1.5l-.035.537Zm-.255,2.694a1.279,1.279,0,0,1,.4-.968,1.566,1.566,0,0,1,2.048,0,1.366,1.366,0,0,1,.009,1.923,1.6,1.6,0,0,1-2.065,0A1.269,1.269,0,0,1,76.641,17.774Z" transform="translate(456.436 4489.663)" fill="#12263f"/>
    <path id="Trazado_567256" data-name="Trazado 567256" d="M13.483,13.34a5.454,5.454,0,0,1-.272,1.892,3.674,3.674,0,0,1-.971,1.372,10.244,10.244,0,0,0-.949.968,2.524,2.524,0,0,0-.378.643,1.941,1.941,0,0,0-.127.713,1.209,1.209,0,0,0,1.354,1.382,1.462,1.462,0,0,0,1.077-.4,1.55,1.55,0,0,0,.417-1.11h2.54a3.394,3.394,0,0,1-1.081,2.635,4.222,4.222,0,0,1-2.909.946,4.321,4.321,0,0,1-2.909-.893,3.178,3.178,0,0,1-1.037-2.547A3.922,3.922,0,0,1,9.581,16.2l.853-.818a2.254,2.254,0,0,0,.611-.827,3.626,3.626,0,0,0,.189-1.214Zm.316-2.685a1.259,1.259,0,0,1-.4.964,1.568,1.568,0,0,1-2.039,0,1.259,1.259,0,0,1-.4-.964,1.28,1.28,0,0,1,.391-.964,1.426,1.426,0,0,1,1.033-.377,1.426,1.426,0,0,1,1.033.377A1.28,1.28,0,0,1,13.8,10.655ZM17.728,19V6.2h3.938a5.98,5.98,0,0,1,3.019.76,5.3,5.3,0,0,1,2.079,2.162,6.669,6.669,0,0,1,.747,3.186V12.9a6.688,6.688,0,0,1-.734,3.173,5.256,5.256,0,0,1-2.07,2.153A6.025,6.025,0,0,1,21.692,19ZM20.365,8.339v8.543h1.274A2.863,2.863,0,0,0,24,15.871a4.567,4.567,0,0,0,.835-2.892V12.3a4.64,4.64,0,0,0-.809-2.958,2.854,2.854,0,0,0-2.364-1.006Zm8.5,5.818a5.64,5.64,0,0,1,.545-2.522,3.989,3.989,0,0,1,1.569-1.714,4.577,4.577,0,0,1,2.377-.606A4.33,4.33,0,0,1,36.5,10.492a4.727,4.727,0,0,1,1.358,3.2l.018.65a4.97,4.97,0,0,1-1.222,3.511,4.247,4.247,0,0,1-3.278,1.323,4.268,4.268,0,0,1-3.283-1.318,5.058,5.058,0,0,1-1.226-3.586Zm2.54.18a3.555,3.555,0,0,0,.51,2.073,1.831,1.831,0,0,0,2.9.009,3.89,3.89,0,0,0,.519-2.267,3.519,3.519,0,0,0-.519-2.06,1.686,1.686,0,0,0-1.459-.731,1.658,1.658,0,0,0-1.441.726A3.955,3.955,0,0,0,31.4,14.338ZM33.856,5.5h2.769L34.19,8.225H32.125Zm7.919,3.99.079,1.1a3.32,3.32,0,0,1,2.733-1.274,2.759,2.759,0,0,1,2.25.888,4.142,4.142,0,0,1,.756,2.654V19h-2.54V12.918a1.648,1.648,0,0,0-.352-1.173,1.574,1.574,0,0,0-1.169-.365,1.747,1.747,0,0,0-1.608.914V19h-2.54V9.49Zm7.348,4.685a5.731,5.731,0,0,1,1-3.542,3.237,3.237,0,0,1,2.729-1.318,2.913,2.913,0,0,1,2.294,1.037V5.5h2.549V19H55.4l-.123-1.011a2.989,2.989,0,0,1-2.443,1.187,3.228,3.228,0,0,1-2.694-1.323A5.916,5.916,0,0,1,49.123,14.175Zm2.54.189a3.754,3.754,0,0,0,.466,2.051,1.517,1.517,0,0,0,1.354.713,1.7,1.7,0,0,0,1.661-.995V12.375A1.675,1.675,0,0,0,53.5,11.38Q51.663,11.38,51.663,14.364Zm12.375,4.812a4.668,4.668,0,0,1-3.406-1.283,4.561,4.561,0,0,1-1.314-3.419v-.246a5.745,5.745,0,0,1,.554-2.562,4.064,4.064,0,0,1,1.569-1.74,4.4,4.4,0,0,1,2.316-.611,3.947,3.947,0,0,1,3.072,1.23,5,5,0,0,1,1.121,3.489v1.037H61.893a2.36,2.36,0,0,0,.743,1.494,2.245,2.245,0,0,0,1.569.563A2.742,2.742,0,0,0,66.5,16.064l1.248,1.4A3.813,3.813,0,0,1,66.2,18.723,5.075,5.075,0,0,1,64.038,19.176Zm-.29-7.813a1.587,1.587,0,0,0-1.226.512,2.651,2.651,0,0,0-.6,1.466h3.533v-.2A1.891,1.891,0,0,0,65,11.826,1.638,1.638,0,0,0,63.748,11.362Zm7.717,3.718a5.288,5.288,0,0,1,.3-1.962,4.025,4.025,0,0,1,1.094-1.438,5.6,5.6,0,0,0,1.059-1.153,1.81,1.81,0,0,0,.264-.938q0-1.488-1.371-1.488a1.389,1.389,0,0,0-1.042.4,1.575,1.575,0,0,0-.409,1.106H68.81A3.39,3.39,0,0,1,69.9,6.977,5.013,5.013,0,0,1,75.7,6.929a3.208,3.208,0,0,1,1.028,2.547,3.1,3.1,0,0,1-.334,1.412,5.817,5.817,0,0,1-1.169,1.474l-.712.677a2.413,2.413,0,0,0-.765,1.5l-.035.537Zm-.255,2.694a1.279,1.279,0,0,1,.4-.968,1.566,1.566,0,0,1,2.048,0,1.366,1.366,0,0,1,.009,1.923,1.6,1.6,0,0,1-2.065,0A1.269,1.269,0,0,1,71.209,17.774Z" transform="translate(757.436 4489.663)" fill="#12263f"/>
    <path id="Trazado_567257" data-name="Trazado 567257" d="M15.54,13.34a5.454,5.454,0,0,1-.272,1.892A3.674,3.674,0,0,1,14.3,16.6a10.244,10.244,0,0,0-.949.968,2.524,2.524,0,0,0-.378.643,1.941,1.941,0,0,0-.127.713,1.209,1.209,0,0,0,1.354,1.382,1.462,1.462,0,0,0,1.077-.4,1.55,1.55,0,0,0,.417-1.11h2.54a3.394,3.394,0,0,1-1.081,2.635,4.222,4.222,0,0,1-2.909.946,4.321,4.321,0,0,1-2.909-.893,3.178,3.178,0,0,1-1.037-2.547A3.922,3.922,0,0,1,11.637,16.2l.853-.818a2.254,2.254,0,0,0,.611-.827,3.626,3.626,0,0,0,.189-1.214Zm.316-2.685a1.259,1.259,0,0,1-.4.964,1.568,1.568,0,0,1-2.039,0,1.259,1.259,0,0,1-.4-.964,1.28,1.28,0,0,1,.391-.964,1.6,1.6,0,0,1,2.065,0A1.28,1.28,0,0,1,15.856,10.655Zm13.975,4.083a4.528,4.528,0,0,1-1.525,3.252,5.355,5.355,0,0,1-3.625,1.187,4.816,4.816,0,0,1-3.872-1.657A6.793,6.793,0,0,1,19.4,12.971v-.782a7.671,7.671,0,0,1,.65-3.252,4.874,4.874,0,0,1,1.859-2.158,5.207,5.207,0,0,1,2.808-.751,5.217,5.217,0,0,1,3.568,1.187,4.866,4.866,0,0,1,1.564,3.331H27.211a2.673,2.673,0,0,0-.69-1.8,2.555,2.555,0,0,0-1.806-.558,2.24,2.24,0,0,0-1.973.945,5.3,5.3,0,0,0-.672,2.931v.967a5.667,5.667,0,0,0,.628,3.032,2.2,2.2,0,0,0,1.982.958,2.6,2.6,0,0,0,1.824-.558,2.521,2.521,0,0,0,.69-1.727ZM31,14.157a5.64,5.64,0,0,1,.545-2.522,3.989,3.989,0,0,1,1.569-1.714,4.577,4.577,0,0,1,2.377-.606,4.33,4.33,0,0,1,3.142,1.178,4.727,4.727,0,0,1,1.358,3.2l.018.65a4.97,4.97,0,0,1-1.222,3.511,4.247,4.247,0,0,1-3.278,1.323,4.268,4.268,0,0,1-3.283-1.318A5.058,5.058,0,0,1,31,14.271Zm2.54.18a3.555,3.555,0,0,0,.51,2.073,1.831,1.831,0,0,0,2.9.009,3.89,3.89,0,0,0,.519-2.267,3.519,3.519,0,0,0-.519-2.06,1.686,1.686,0,0,0-1.459-.731,1.658,1.658,0,0,0-1.441.726A3.955,3.955,0,0,0,33.54,14.338ZM35.992,5.5H38.76L36.326,8.225H34.26Zm7.963,3.99.079,1.063a3.342,3.342,0,0,1,2.733-1.239,2.536,2.536,0,0,1,2.522,1.45,3.265,3.265,0,0,1,2.856-1.45,2.836,2.836,0,0,1,2.3.9,4.141,4.141,0,0,1,.756,2.711V19H52.656V12.936a1.811,1.811,0,0,0-.316-1.182,1.4,1.4,0,0,0-1.116-.374,1.585,1.585,0,0,0-1.582,1.09L49.65,19H47.11V12.944a1.789,1.789,0,0,0-.325-1.2,1.416,1.416,0,0,0-1.107-.369,1.646,1.646,0,0,0-1.564.9V19h-2.54V9.49ZM56.76,14.157a5.64,5.64,0,0,1,.545-2.522,3.989,3.989,0,0,1,1.569-1.714,4.577,4.577,0,0,1,2.377-.606,4.33,4.33,0,0,1,3.142,1.178,4.727,4.727,0,0,1,1.358,3.2l.018.65a4.97,4.97,0,0,1-1.222,3.511,4.735,4.735,0,0,1-6.561,0,5.058,5.058,0,0,1-1.226-3.586Zm2.54.18a3.555,3.555,0,0,0,.51,2.073,1.831,1.831,0,0,0,2.9.009,3.89,3.89,0,0,0,.519-2.267,3.519,3.519,0,0,0-.519-2.06,1.686,1.686,0,0,0-1.459-.731,1.658,1.658,0,0,0-1.441.726A3.955,3.955,0,0,0,59.3,14.338Zm10.107.743a5.288,5.288,0,0,1,.3-1.962A4.025,4.025,0,0,1,70.8,11.68a5.6,5.6,0,0,0,1.059-1.153,1.81,1.81,0,0,0,.264-.938q0-1.488-1.371-1.488a1.389,1.389,0,0,0-1.042.4A1.575,1.575,0,0,0,69.3,9.608H66.753a3.39,3.39,0,0,1,1.085-2.63,5.013,5.013,0,0,1,5.805-.048,3.208,3.208,0,0,1,1.028,2.547,3.1,3.1,0,0,1-.334,1.412,5.817,5.817,0,0,1-1.169,1.474l-.712.677a2.413,2.413,0,0,0-.765,1.5l-.035.537Zm-.255,2.694a1.279,1.279,0,0,1,.4-.968,1.566,1.566,0,0,1,2.048,0,1.366,1.366,0,0,1,.009,1.923,1.6,1.6,0,0,1-2.065,0A1.269,1.269,0,0,1,69.153,17.774Z" transform="translate(1059.436 4489.663)" fill="#12263f"/>
  </g>
</svg>
