<svg xmlns="http://www.w3.org/2000/svg" width="1031.13" height="195.201" viewBox="0 0 1031.13 195.201">
  <g id="Grupo_841767" data-name="Grupo 841767" transform="translate(-284.871 -4440.096)">
    <g id="Grupo_841701" data-name="Grupo 841701" transform="translate(0 15.484)">
      <path id="Trazado_565274" data-name="Trazado 565274" d="M-236.431,3181.946a63.148,63.148,0,0,0-17.545-39.48,63.18,63.18,0,0,0-45.716-19.476,63.163,63.163,0,0,0-44.1,17.841,27.837,27.837,0,0,1-27.008,2.262,28.353,28.353,0,0,1-16.6-25.458c-.028-1.169-.085-2.346-.176-3.53a62.739,62.739,0,0,0-18.144-39.367l-.028-.028c-.592-.592-1.191-1.17-1.8-1.74-.078-.071-.155-.147-.233-.219-.55-.507-1.113-1-1.677-1.487-.148-.127-.3-.253-.437-.381-.514-.43-1.029-.845-1.55-1.261-.211-.169-.43-.345-.648-.514-.465-.359-.944-.712-1.423-1.057-.282-.2-.564-.409-.846-.606-.43-.3-.874-.6-1.311-.888-.338-.233-.684-.465-1.029-.684-.4-.254-.8-.5-1.212-.747s-.789-.486-1.191-.719c-.373-.211-.754-.422-1.127-.627-.444-.247-.881-.486-1.332-.719-.352-.183-.712-.359-1.071-.542-.479-.233-.958-.472-1.444-.7-.345-.162-.691-.31-1.036-.465-.514-.226-1.022-.451-1.536-.663-.338-.141-.683-.268-1.029-.408-.521-.2-1.057-.409-1.585-.6-.352-.127-.7-.24-1.057-.359-.528-.183-1.064-.359-1.6-.528-.366-.113-.733-.219-1.1-.324-.536-.155-1.064-.31-1.607-.451-.388-.1-.782-.19-1.177-.289-.514-.12-1.036-.247-1.557-.353q-.634-.137-1.268-.253c-.5-.1-1-.19-1.508-.275-.458-.078-.923-.141-1.381-.2s-.944-.133-1.423-.19c-.5-.063-1.008-.113-1.508-.155-.3-.035-.6-.07-.895-.1-.134-.007-.254-.007-.388-.014-.2-.014-.395-.042-.592-.056-.514-.028-1.022-.035-1.536-.056-.493-.021-.986-.042-1.473-.056-.662-.008-1.318,0-1.973.014-.507.007-1.022.007-1.529.021-.613.028-1.219.071-1.818.113-.55.035-1.1.064-1.642.113-.521.049-1.036.12-1.55.176-.62.07-1.24.141-1.853.225-.247.043-.493.092-.747.134a61.661,61.661,0,0,0-8.5,1.973c-.1.028-.211.056-.31.084-.846.268-1.684.564-2.515.86-.19.07-.381.134-.578.2-.8.3-1.585.62-2.368.944-.211.092-.43.176-.641.268-.775.331-1.536.691-2.3,1.057-.211.1-.423.19-.627.3-.754.374-1.494.768-2.234,1.17-.2.105-.409.211-.606.324-.74.416-1.466.845-2.184,1.29-.19.113-.374.226-.564.338-.726.458-1.437.93-2.142,1.409-.169.12-.338.233-.5.352-.719.493-1.416,1.008-2.107,1.536-.148.113-.289.225-.437.338-.7.543-1.4,1.106-2.072,1.677-.12.106-.24.2-.352.3q-1.046.9-2.051,1.839c-.085.078-.169.162-.261.247q-1.036.983-2.029,2.008c-.049.056-.1.106-.148.162-.691.719-1.367,1.458-2.022,2.212l-.021.021a62.745,62.745,0,0,0-15.474,41.516,25.338,25.338,0,0,1-14.994,23.133l-3.347,1.5a24.782,24.782,0,0,1-25.451-2.924,63.1,63.1,0,0,0-15.255-10.76c-.035-.021-.07-.035-.106-.056-.606-.3-1.226-.592-1.839-.881-.465-.211-.923-.43-1.4-.627-.254-.113-.507-.219-.761-.324-1.677-.7-3.368-1.3-5.059-1.846a61.909,61.909,0,0,0-14.713-2.91,62.812,62.812,0,0,0-46.047,15.3,27.827,27.827,0,0,1-29.629,4.235,28.353,28.353,0,0,1-16.6-25.458c-.028-1.169-.085-2.346-.176-3.53a63.338,63.338,0,0,0-58.758-57.969,63.127,63.127,0,0,0-67.031,58.956q-.127,1.976-.127,3.967v.162a25.336,25.336,0,0,1-14.994,23.161l-3.347,1.5a24.682,24.682,0,0,1-26.705-3.988,63.186,63.186,0,0,0-15.924-10.626l-.183-.085c-.648-.3-1.3-.584-1.966-.867-.254-.105-.5-.211-.747-.317-.521-.212-1.043-.409-1.564-.606-.409-.148-.81-.3-1.219-.451s-.817-.275-1.226-.409c-.536-.176-1.078-.352-1.621-.515-.317-.1-.634-.183-.951-.275-.641-.183-1.282-.352-1.931-.514-.247-.064-.5-.127-.761-.184-.7-.169-1.416-.324-2.128-.465l-.683-.127c-.733-.141-1.466-.261-2.206-.374l-.726-.105c-.7-.1-1.416-.184-2.128-.254-.3-.035-.613-.063-.916-.091s-.585-.063-.874-.085-.6-.021-.9-.042c-.528-.029-1.057-.057-1.592-.078-.5-.014-1-.028-1.494-.035-.254,0-.507-.014-.761-.014-.338,0-.669.014-1.008.021-.437.007-.867.014-1.3.028-.648.028-1.282.064-1.917.106-.38.028-.761.049-1.134.078-.719.063-1.43.141-2.135.225-.3.035-.585.063-.881.105-.874.113-1.733.254-2.6.4l-.373.063a62.637,62.637,0,0,0-8.97,2.339l-.035.007c-.937.324-1.874.67-2.8,1.036-.07.035-.148.064-.218.092-.86.345-1.712.712-2.558,1.092-.1.042-.19.084-.282.134-.824.381-1.642.775-2.452,1.191l-.261.134q-1.226.634-2.431,1.332c-.063.035-.12.07-.183.1-.839.493-1.67.993-2.48,1.522l-.042.021a64.333,64.333,0,0,0-7.462,5.615c-.317.282-.648.536-.987.8a27.866,27.866,0,0,1-28.424,3.27,28.353,28.353,0,0,1-16.6-25.458c-.028-1.169-.085-2.346-.176-3.53a62.738,62.738,0,0,0-18.144-39.367l-.028-.028c-.592-.592-1.191-1.17-1.8-1.74-.077-.071-.155-.147-.232-.219-.55-.507-1.113-1-1.677-1.487-.148-.127-.3-.253-.437-.381-.514-.43-1.029-.845-1.55-1.261-.211-.169-.43-.345-.648-.514-.465-.359-.944-.712-1.423-1.057-.282-.2-.564-.409-.846-.606-.43-.3-.874-.6-1.311-.888-.338-.233-.683-.465-1.029-.684-.4-.254-.8-.5-1.212-.747s-.789-.486-1.191-.719c-.373-.211-.754-.422-1.127-.627-.444-.247-.881-.486-1.332-.719-.352-.183-.712-.359-1.071-.542-.479-.233-.958-.472-1.445-.7-.345-.162-.691-.31-1.036-.465-.514-.226-1.022-.451-1.536-.663-.338-.141-.683-.268-1.029-.408-.521-.2-1.057-.409-1.585-.6-.352-.127-.7-.24-1.057-.359-.528-.183-1.064-.359-1.6-.528-.366-.113-.733-.219-1.1-.324-.536-.155-1.064-.31-1.607-.451-.387-.1-.782-.19-1.17-.289-.521-.12-1.043-.247-1.564-.353q-.634-.137-1.268-.253c-.5-.1-1-.19-1.508-.275-.458-.078-.923-.141-1.381-.2s-.944-.133-1.423-.19c-.5-.063-1.008-.113-1.508-.155-.3-.035-.6-.07-.895-.1-.127-.007-.254-.007-.388-.014-.2-.014-.395-.042-.592-.056-.514-.028-1.022-.035-1.536-.056-.493-.021-.986-.042-1.473-.056-.662-.008-1.318,0-1.973.014-.507.007-1.022.007-1.529.021-.613.028-1.219.071-1.818.113-.55.035-1.1.064-1.642.113-.521.049-1.036.12-1.55.176-.62.07-1.24.141-1.853.225-.247.043-.493.092-.747.134a61.662,61.662,0,0,0-8.5,1.973c-.1.028-.211.056-.31.084-.846.268-1.684.564-2.516.86-.19.07-.38.134-.578.2-.8.3-1.585.62-2.368.944-.211.092-.43.176-.641.268-.775.331-1.536.691-2.3,1.057-.211.1-.423.19-.627.3-.754.374-1.494.768-2.234,1.17-.2.105-.409.211-.606.324-.74.416-1.466.845-2.184,1.29-.19.113-.374.226-.564.338-.726.458-1.437.93-2.142,1.409-.169.12-.338.233-.5.352-.719.493-1.416,1.008-2.107,1.536-.148.113-.289.225-.437.338-.7.543-1.4,1.106-2.072,1.677-.12.106-.24.2-.352.3q-1.046.9-2.05,1.839c-.085.078-.169.162-.261.247q-1.036.983-2.029,2.008c-.049.056-.1.106-.148.162q-1.036,1.078-2.022,2.212l-.021.021a62.745,62.745,0,0,0-15.474,41.516,25.338,25.338,0,0,1-14.994,23.133l-3.347,1.5a24.782,24.782,0,0,1-25.451-2.924,63.1,63.1,0,0,0-15.255-10.76c-.035-.021-.071-.035-.106-.056-.606-.3-1.226-.592-1.839-.881-.465-.211-.923-.43-1.4-.627-.254-.113-.507-.219-.761-.324a63.064,63.064,0,0,0-82.391,34.146,63.066,63.066,0,0,0,25.5,78l.042.029c.782.472,1.578.929,2.382,1.366.1.057.19.113.289.162.578.317,1.17.606,1.755.9.888.436,1.783.86,2.692,1.261.564.246,1.141.486,1.719.719.289.12.585.239.874.352a63.014,63.014,0,0,0,81.673-35.633,63.162,63.162,0,0,0,4.355-23.062c0-.993-.035-1.973-.078-2.952a25.344,25.344,0,0,1,14.832-20.5l3.354-1.494a24.683,24.683,0,0,1,26.705,3.981,63.214,63.214,0,0,0,15.91,10.619c.07.035.127.063.19.092.655.3,1.311.592,1.973.866l.74.317c.521.211,1.043.408,1.571.606.4.155.8.3,1.212.45s.817.282,1.233.416c.536.176,1.064.352,1.607.507.317.1.641.19.965.282.634.177,1.275.352,1.917.507.254.063.514.127.775.184.7.169,1.409.324,2.121.465.233.042.458.092.691.134.733.134,1.466.261,2.206.366l.719.106c.7.1,1.416.183,2.128.253.3.035.613.063.923.092.289.021.578.063.867.084s.6.021.895.042c.536.035,1.071.056,1.606.077.493.014.994.028,1.487.035.254,0,.507.014.761.014.345,0,.683-.014,1.029-.021.416-.007.839-.014,1.254-.028.655-.021,1.311-.063,1.959-.106.359-.021.719-.042,1.078-.077.747-.056,1.494-.14,2.234-.232.254-.028.514-.05.775-.085a62.681,62.681,0,0,0,9.019-1.881l.141-.042c.916-.268,1.832-.556,2.734-.86.113-.042.233-.084.352-.127.831-.289,1.663-.592,2.487-.916.127-.05.261-.106.387-.162.818-.324,1.621-.662,2.41-1.022.12-.056.24-.106.352-.162.817-.381,1.628-.769,2.431-1.184l.233-.12c.867-.444,1.719-.916,2.565-1.4l.014-.007a62.817,62.817,0,0,0,9.6-6.806,28.036,28.036,0,0,1,39.565,2.7,28.032,28.032,0,0,1,6.912,18.292,65.138,65.138,0,0,0,.486,6.624c.07.535.19,1.064.268,1.6.1.613.2,1.226.31,1.832q.412,2.22.972,4.383c.035.148.077.3.113.444a63.312,63.312,0,0,0,36.514,41.812c.085.035.169.077.254.113.951.395,1.917.768,2.889,1.12q1.237.444,2.494.846c.684.211,1.367.409,2.058.6,1.141.317,2.3.6,3.467.853.493.106.994.2,1.494.3q2.05.391,4.157.648c.106.014.211.042.324.05.324.042.641.049.965.084.395.042.789.092,1.184.12.211.021.423.021.634.035.655.042,1.3.077,1.959.1.55.021,1.1.042,1.649.049.613.007,1.219,0,1.832-.007.571-.007,1.148-.014,1.719-.042s1.134-.063,1.7-.1c.606-.042,1.212-.085,1.811-.141.514-.049,1.029-.12,1.543-.183.634-.077,1.275-.155,1.909-.254.465-.071.923-.155,1.381-.24.669-.12,1.339-.24,2-.381.409-.084.8-.183,1.2-.275.712-.162,1.423-.331,2.121-.514.338-.092.669-.2,1-.289.754-.219,1.508-.437,2.248-.684.261-.084.514-.176.768-.268.81-.275,1.614-.557,2.4-.867.169-.063.324-.134.493-.2.874-.345,1.74-.712,2.6-1.092.049-.021.092-.049.141-.07a63.132,63.132,0,0,0,37.035-57.624,25.343,25.343,0,0,1,14.987-23.133l3.347-1.494a24.679,24.679,0,0,1,26.705,3.981,62.932,62.932,0,0,0,83.561,1.275,28.173,28.173,0,0,1,29.9-4.475,28.4,28.4,0,0,1,16.6,25.465c.021,1.17.085,2.353.176,3.544a63.272,63.272,0,0,0,30.271,48.936c.063.042.127.084.19.12l.042.029a1.133,1.133,0,0,1,.127.07c.62.374,1.254.733,1.888,1.085.12.071.247.148.366.211.1.057.19.113.289.162.078.042.155.078.232.12.381.2.768.395,1.156.592.12.064.24.127.366.191.042.021.092.042.141.063a62.055,62.055,0,0,0,7.074,2.988c.479.169.965.338,1.452.493.169.056.338.113.514.169a63.012,63.012,0,0,0,77.776-37.014,63.163,63.163,0,0,0,4.355-23.062c0-.993-.035-1.973-.078-2.952a25.344,25.344,0,0,1,14.832-20.5l3.354-1.494a24.683,24.683,0,0,1,26.705,3.981,63.216,63.216,0,0,0,15.91,10.619c.071.035.127.063.19.092.655.3,1.311.592,1.973.866.247.106.486.211.74.317.521.211,1.043.408,1.571.606.4.155.8.3,1.212.45s.817.282,1.233.416c.536.176,1.064.352,1.607.507.317.1.641.19.965.282.634.177,1.275.352,1.917.507.254.063.514.127.775.184.7.169,1.409.324,2.121.465.233.042.458.092.691.134.733.134,1.466.261,2.205.366l.719.106c.7.1,1.416.183,2.128.253.3.035.613.063.923.092.289.021.578.063.867.084s.6.021.895.042c.535.035,1.071.056,1.607.077.493.014.993.028,1.487.035.254,0,.507.014.761.014.345,0,.684-.014,1.029-.021.416-.007.839-.014,1.254-.028.655-.021,1.311-.063,1.959-.106.359-.021.719-.042,1.078-.077.747-.056,1.494-.14,2.234-.232.254-.028.514-.05.775-.085a62.686,62.686,0,0,0,9.019-1.881l.141-.042c.916-.268,1.832-.556,2.734-.86.113-.042.233-.084.352-.127.831-.289,1.663-.592,2.487-.916.127-.05.261-.106.388-.162.817-.324,1.621-.662,2.41-1.022.12-.056.24-.106.352-.162.817-.381,1.628-.769,2.431-1.184l.233-.12c.867-.444,1.719-.916,2.565-1.4l.014-.007a62.811,62.811,0,0,0,9.6-6.806,28.036,28.036,0,0,1,39.565,2.7,28.062,28.062,0,0,1,6.722,15.164v.014c-.014.55-.021,1.106-.021,1.663a63.412,63.412,0,0,0,63.416,63.416,63.412,63.412,0,0,0,63.416-63.416Q-236.276,3184.154-236.431,3181.946Z" transform="translate(1552.276 1369.756)" fill="#ddefd7"/>
      <path id="Trazado_563962" data-name="Trazado 563962" d="M295.231,189.852a48.8,48.8,0,1,1-48.8-48.807A48.8,48.8,0,0,1,295.231,189.852Z" transform="translate(553.509 4298.829)" fill="#fff"/>
      <path id="Trazado_565277" data-name="Trazado 565277" d="M325.754,205.114a64.065,64.065,0,1,1-64.064-64.07A64.063,64.063,0,0,1,325.754,205.114Z" transform="translate(538.247 4283.567)" fill="#ffce7e"/>
      <path id="Trazado_565284" data-name="Trazado 565284" d="M325.754,205.114a64.065,64.065,0,1,1-64.064-64.07A64.063,64.063,0,0,1,325.754,205.114Z" transform="translate(237.312 4283.567)" fill="#79be60"/>
      <path id="Trazado_565283" data-name="Trazado 565283" d="M325.754,205.114a64.065,64.065,0,1,1-64.064-64.07A64.063,64.063,0,0,1,325.754,205.114Z" transform="translate(840.312 4283.567)" fill="#ff854e"/>
      <path id="Trazado_565276" data-name="Trazado 565276" d="M295.231,189.852a48.8,48.8,0,1,1-48.8-48.807A48.8,48.8,0,0,1,295.231,189.852Z" transform="translate(553.509 4298.829)" fill="#fff"/>
      <path id="Trazado_563962-2" data-name="Trazado 563962" d="M295.231,189.852a48.8,48.8,0,1,1-48.8-48.807A48.8,48.8,0,0,1,295.231,189.852Z" transform="translate(252.509 4298.829)" fill="#fff"/>
      <path id="Trazado_565278" data-name="Trazado 565278" d="M325.754,205.114a64.065,64.065,0,1,1-64.064-64.07A64.063,64.063,0,0,1,325.754,205.114Z" transform="translate(388.247 4350.567)" fill="#47b5ab"/>
      <path id="Trazado_565281" data-name="Trazado 565281" d="M325.754,205.114a64.065,64.065,0,1,1-64.064-64.07A64.063,64.063,0,0,1,325.754,205.114Z" transform="translate(689.248 4350.567)" fill="#ffd63d"/>
      <path id="Trazado_565282" data-name="Trazado 565282" d="M325.754,205.114a64.065,64.065,0,1,1-64.064-64.07A64.063,64.063,0,0,1,325.754,205.114Z" transform="translate(990.247 4350.634)" fill="#f5ead9"/>
      <path id="Trazado_565280" data-name="Trazado 565280" d="M325.754,205.114a64.065,64.065,0,1,1-64.064-64.07A64.063,64.063,0,0,1,325.754,205.114Z" transform="translate(87.248 4350.567)" fill="#006c62"/>
      <path id="Trazado_563962-3" data-name="Trazado 563962" d="M295.231,189.852a48.8,48.8,0,1,1-48.8-48.807A48.8,48.8,0,0,1,295.231,189.852Z" transform="translate(403.509 4365.829)" fill="#fff"/>
      <path id="Trazado_563962-4" data-name="Trazado 563962" d="M295.231,189.852a48.8,48.8,0,1,1-48.8-48.807A48.8,48.8,0,0,1,295.231,189.852Z" transform="translate(102.509 4365.829)" fill="#fff"/>
      <path id="Trazado_563962-5" data-name="Trazado 563962" d="M295.231,189.852a48.8,48.8,0,1,1-48.8-48.807A48.8,48.8,0,0,1,295.231,189.852Z" transform="translate(704.509 4365.829)" fill="#fff"/>
      <path id="Trazado_563962-6" data-name="Trazado 563962" d="M295.231,189.852a48.8,48.8,0,1,1-48.8-48.807A48.8,48.8,0,0,1,295.231,189.852Z" transform="translate(1006.509 4365.829)" fill="#fff"/>
      <path id="Trazado_563962-7" data-name="Trazado 563962" d="M295.231,189.852a48.8,48.8,0,1,1-48.8-48.807A48.8,48.8,0,0,1,295.231,189.852Z" transform="translate(855.509 4298.829)" fill="#fff"/>
      <text id="_Qué_" data-name="¿Qué?" transform="translate(306.437 4541.178)" fill="#12263f" font-size="18" font-family="Roboto-Regular, Roboto"><tspan x="18.075" y="19">¿Qué?</tspan></text>
      <text id="_Cuándo_" data-name="¿Cuándo?" transform="translate(607.436 4541.178)" fill="#12263f" font-size="18" font-family="Roboto-Regular, Roboto"><tspan x="3.103" y="19">¿Cuándo?</tspan></text>
      <text id="_Quién_" data-name="¿Quién?" transform="translate(907.436 4541.178)" fill="#12263f" font-size="18" font-family="Roboto-Regular, Roboto"><tspan x="10.925" y="19">¿Quién?</tspan></text>
      <text id="_Cuánto_" data-name="¿Cuánto?" transform="translate(1208.435 4541.178)" fill="#12263f" font-size="18" font-family="Roboto-Regular, Roboto"><tspan x="5.327" y="19">¿Cuánto?</tspan></text>
      <text id="_Por_qué_" data-name="¿Por qué?" transform="translate(456.436 4474.178)" fill="#12263f" font-size="18" font-family="Roboto-Regular, Roboto"><tspan x="3.121" y="19">¿Por qué?</tspan></text>
      <text id="_Dónde_" data-name="¿Dónde?" transform="translate(757.436 4474.178)" fill="#12263f" font-size="18" font-family="Roboto-Bold, Roboto" font-weight="700"><tspan x="7.629" y="19">¿Dónde?</tspan></text>
      <text id="_Cómo_" data-name="¿Cómo?" transform="translate(1059.436 4474.178)" fill="#12263f" font-size="18" font-family="Roboto-Regular, Roboto"><tspan x="9.98" y="19">¿Cómo?</tspan></text>
    </g>
  </g>
</svg>
