<svg xmlns="http://www.w3.org/2000/svg" xmlns:xlink="http://www.w3.org/1999/xlink" width="723" height="507" viewBox="0 0 723 507">
  <defs>
    <clipPath id="clip-path">
      <rect id="Rect치ngulo_279253" data-name="Rect치ngulo 279253" width="723" height="507" rx="18" transform="translate(753 70)" fill="#fff" stroke="#707070" stroke-width="1"/>
    </clipPath>
    <clipPath id="clip-path-2">
      <rect id="Rect치ngulo_279252" data-name="Rect치ngulo 279252" width="166.558" height="180.896" fill="none"/>
    </clipPath>
  </defs>
  <g id="Grupo_841762" data-name="Grupo 841762" transform="translate(-753 -70)">
    <g id="Enmascarar_grupo_700113" data-name="Enmascarar grupo 700113" clip-path="url(#clip-path)">
      <g id="Grupo_841753" data-name="Grupo 841753" transform="translate(1136.403 179.604)">
        <g id="Grupo_841752" data-name="Grupo 841752" clip-path="url(#clip-path-2)">
          <path id="Trazado_567187" data-name="Trazado 567187" d="M6.219,86.243A3.11,3.11,0,1,1,3.11,83.134a3.109,3.109,0,0,1,3.109,3.109" transform="translate(0 15.514)" fill="#fff"/>
          <path id="Trazado_567188" data-name="Trazado 567188" d="M28.739,86.243a3.11,3.11,0,1,1-3.109-3.109,3.109,3.109,0,0,1,3.109,3.109" transform="translate(4.203 15.514)" fill="#fff"/>
          <path id="Trazado_567189" data-name="Trazado 567189" d="M51.26,86.243a3.11,3.11,0,1,1-3.109-3.109,3.109,3.109,0,0,1,3.109,3.109" transform="translate(8.405 15.514)" fill="#fff"/>
          <path id="Trazado_567190" data-name="Trazado 567190" d="M73.78,86.243a3.11,3.11,0,1,1-3.109-3.109,3.109,3.109,0,0,1,3.109,3.109" transform="translate(12.608 15.514)" fill="#fff"/>
          <path id="Trazado_567191" data-name="Trazado 567191" d="M6.219,107.6a3.11,3.11,0,1,1-3.109-3.109A3.109,3.109,0,0,1,6.219,107.6" transform="translate(0 19.5)" fill="#fff"/>
          <path id="Trazado_567192" data-name="Trazado 567192" d="M28.739,107.6a3.11,3.11,0,1,1-3.109-3.109,3.109,3.109,0,0,1,3.109,3.109" transform="translate(4.203 19.5)" fill="#fff"/>
          <path id="Trazado_567193" data-name="Trazado 567193" d="M51.26,107.6a3.11,3.11,0,1,1-3.109-3.109A3.109,3.109,0,0,1,51.26,107.6" transform="translate(8.405 19.5)" fill="#fff"/>
          <path id="Trazado_567194" data-name="Trazado 567194" d="M73.78,107.6a3.11,3.11,0,1,1-3.109-3.109A3.109,3.109,0,0,1,73.78,107.6" transform="translate(12.608 19.5)" fill="#fff"/>
          <path id="Trazado_567195" data-name="Trazado 567195" d="M6.219,128.958a3.11,3.11,0,1,1-3.109-3.109,3.109,3.109,0,0,1,3.109,3.109" transform="translate(0 23.485)" fill="#fff"/>
          <path id="Trazado_567196" data-name="Trazado 567196" d="M28.739,128.958a3.11,3.11,0,1,1-3.109-3.109,3.109,3.109,0,0,1,3.109,3.109" transform="translate(4.203 23.485)" fill="#fff"/>
          <path id="Trazado_567197" data-name="Trazado 567197" d="M51.26,128.958a3.11,3.11,0,1,1-3.109-3.109,3.109,3.109,0,0,1,3.109,3.109" transform="translate(8.405 23.485)" fill="#fff"/>
          <path id="Trazado_567198" data-name="Trazado 567198" d="M73.78,128.958a3.11,3.11,0,1,1-3.109-3.109,3.109,3.109,0,0,1,3.109,3.109" transform="translate(12.608 23.485)" fill="#fff"/>
          <path id="Trazado_567199" data-name="Trazado 567199" d="M6.219,150.316a3.11,3.11,0,1,1-3.109-3.109,3.109,3.109,0,0,1,3.109,3.109" transform="translate(0 27.471)" fill="#fff"/>
          <path id="Trazado_567200" data-name="Trazado 567200" d="M28.739,150.316a3.11,3.11,0,1,1-3.109-3.109,3.109,3.109,0,0,1,3.109,3.109" transform="translate(4.203 27.471)" fill="#fff"/>
          <path id="Trazado_567201" data-name="Trazado 567201" d="M51.26,150.316a3.11,3.11,0,1,1-3.109-3.109,3.109,3.109,0,0,1,3.109,3.109" transform="translate(8.405 27.471)" fill="#fff"/>
          <path id="Trazado_567202" data-name="Trazado 567202" d="M73.78,150.316a3.11,3.11,0,1,1-3.109-3.109,3.109,3.109,0,0,1,3.109,3.109" transform="translate(12.608 27.471)" fill="#fff"/>
          <path id="Trazado_567203" data-name="Trazado 567203" d="M6.219,3.109A3.11,3.11,0,1,1,3.11,0,3.109,3.109,0,0,1,6.219,3.109" fill="#fff"/>
          <path id="Trazado_567204" data-name="Trazado 567204" d="M28.739,3.109A3.11,3.11,0,1,1,25.63,0a3.109,3.109,0,0,1,3.109,3.109" transform="translate(4.203)" fill="#fff"/>
          <path id="Trazado_567205" data-name="Trazado 567205" d="M51.26,3.109A3.11,3.11,0,1,1,48.151,0,3.109,3.109,0,0,1,51.26,3.109" transform="translate(8.405)" fill="#fff"/>
          <path id="Trazado_567206" data-name="Trazado 567206" d="M73.78,3.109A3.11,3.11,0,1,1,70.671,0,3.109,3.109,0,0,1,73.78,3.109" transform="translate(12.608)" fill="#fff"/>
          <path id="Trazado_567207" data-name="Trazado 567207" d="M6.219,24.467A3.11,3.11,0,1,1,3.11,21.358a3.109,3.109,0,0,1,3.109,3.109" transform="translate(0 3.986)" fill="#fff"/>
          <path id="Trazado_567208" data-name="Trazado 567208" d="M28.739,24.467a3.11,3.11,0,1,1-3.109-3.109,3.109,3.109,0,0,1,3.109,3.109" transform="translate(4.203 3.986)" fill="#fff"/>
          <path id="Trazado_567209" data-name="Trazado 567209" d="M51.26,24.467a3.11,3.11,0,1,1-3.109-3.109,3.109,3.109,0,0,1,3.109,3.109" transform="translate(8.405 3.986)" fill="#fff"/>
          <path id="Trazado_567210" data-name="Trazado 567210" d="M73.78,24.467a3.11,3.11,0,1,1-3.109-3.109,3.109,3.109,0,0,1,3.109,3.109" transform="translate(12.608 3.986)" fill="#fff"/>
          <path id="Trazado_567211" data-name="Trazado 567211" d="M6.219,45.824A3.11,3.11,0,1,1,3.11,42.715a3.109,3.109,0,0,1,3.109,3.109" transform="translate(0 7.971)" fill="#fff"/>
          <path id="Trazado_567212" data-name="Trazado 567212" d="M28.739,45.824a3.11,3.11,0,1,1-3.109-3.109,3.109,3.109,0,0,1,3.109,3.109" transform="translate(4.203 7.971)" fill="#fff"/>
          <path id="Trazado_567213" data-name="Trazado 567213" d="M51.26,45.824a3.11,3.11,0,1,1-3.109-3.109,3.109,3.109,0,0,1,3.109,3.109" transform="translate(8.405 7.971)" fill="#fff"/>
          <path id="Trazado_567214" data-name="Trazado 567214" d="M73.78,45.824a3.11,3.11,0,1,1-3.109-3.109,3.109,3.109,0,0,1,3.109,3.109" transform="translate(12.608 7.971)" fill="#fff"/>
          <path id="Trazado_567215" data-name="Trazado 567215" d="M6.219,67.182A3.11,3.11,0,1,1,3.11,64.073a3.109,3.109,0,0,1,3.109,3.109" transform="translate(0 11.957)" fill="#fff"/>
          <path id="Trazado_567216" data-name="Trazado 567216" d="M28.739,67.182a3.11,3.11,0,1,1-3.109-3.109,3.109,3.109,0,0,1,3.109,3.109" transform="translate(4.203 11.957)" fill="#fff"/>
          <path id="Trazado_567217" data-name="Trazado 567217" d="M51.26,67.182a3.11,3.11,0,1,1-3.109-3.109,3.109,3.109,0,0,1,3.109,3.109" transform="translate(8.405 11.957)" fill="#fff"/>
          <path id="Trazado_567218" data-name="Trazado 567218" d="M73.78,67.182a3.11,3.11,0,1,1-3.109-3.109,3.109,3.109,0,0,1,3.109,3.109" transform="translate(12.608 11.957)" fill="#fff"/>
          <path id="Trazado_567219" data-name="Trazado 567219" d="M73.78,86.243a3.11,3.11,0,1,1-3.109-3.109,3.109,3.109,0,0,1,3.109,3.109" transform="translate(12.608 15.514)" fill="#fff"/>
          <path id="Trazado_567220" data-name="Trazado 567220" d="M96.3,86.243a3.11,3.11,0,1,1-3.109-3.109A3.109,3.109,0,0,1,96.3,86.243" transform="translate(16.81 15.514)" fill="#fff"/>
          <path id="Trazado_567221" data-name="Trazado 567221" d="M118.821,86.243a3.11,3.11,0,1,1-3.11-3.109,3.109,3.109,0,0,1,3.11,3.109" transform="translate(21.013 15.514)" fill="#fff"/>
          <path id="Trazado_567222" data-name="Trazado 567222" d="M141.342,86.243a3.11,3.11,0,1,1-3.109-3.109,3.109,3.109,0,0,1,3.109,3.109" transform="translate(25.216 15.514)" fill="#fff"/>
          <path id="Trazado_567223" data-name="Trazado 567223" d="M73.78,107.6a3.11,3.11,0,1,1-3.109-3.109A3.109,3.109,0,0,1,73.78,107.6" transform="translate(12.608 19.5)" fill="#fff"/>
          <path id="Trazado_567224" data-name="Trazado 567224" d="M96.3,107.6a3.11,3.11,0,1,1-3.109-3.109A3.109,3.109,0,0,1,96.3,107.6" transform="translate(16.81 19.5)" fill="#fff"/>
          <path id="Trazado_567225" data-name="Trazado 567225" d="M118.821,107.6a3.11,3.11,0,1,1-3.11-3.109,3.109,3.109,0,0,1,3.11,3.109" transform="translate(21.013 19.5)" fill="#fff"/>
          <path id="Trazado_567226" data-name="Trazado 567226" d="M141.342,107.6a3.11,3.11,0,1,1-3.109-3.109,3.109,3.109,0,0,1,3.109,3.109" transform="translate(25.216 19.5)" fill="#fff"/>
          <path id="Trazado_567227" data-name="Trazado 567227" d="M73.78,128.958a3.11,3.11,0,1,1-3.109-3.109,3.109,3.109,0,0,1,3.109,3.109" transform="translate(12.608 23.485)" fill="#fff"/>
          <path id="Trazado_567228" data-name="Trazado 567228" d="M96.3,128.958a3.11,3.11,0,1,1-3.109-3.109,3.109,3.109,0,0,1,3.109,3.109" transform="translate(16.81 23.485)" fill="#fff"/>
          <path id="Trazado_567229" data-name="Trazado 567229" d="M118.821,128.958a3.11,3.11,0,1,1-3.11-3.109,3.109,3.109,0,0,1,3.11,3.109" transform="translate(21.013 23.485)" fill="#fff"/>
          <path id="Trazado_567230" data-name="Trazado 567230" d="M141.342,128.958a3.11,3.11,0,1,1-3.109-3.109,3.109,3.109,0,0,1,3.109,3.109" transform="translate(25.216 23.485)" fill="#fff"/>
          <path id="Trazado_567231" data-name="Trazado 567231" d="M73.78,150.316a3.11,3.11,0,1,1-3.109-3.109,3.109,3.109,0,0,1,3.109,3.109" transform="translate(12.608 27.471)" fill="#fff"/>
          <path id="Trazado_567232" data-name="Trazado 567232" d="M96.3,150.316a3.11,3.11,0,1,1-3.109-3.109,3.109,3.109,0,0,1,3.109,3.109" transform="translate(16.81 27.471)" fill="#fff"/>
          <path id="Trazado_567233" data-name="Trazado 567233" d="M118.821,150.316a3.11,3.11,0,1,1-3.11-3.109,3.109,3.109,0,0,1,3.11,3.109" transform="translate(21.013 27.471)" fill="#fff"/>
          <path id="Trazado_567234" data-name="Trazado 567234" d="M141.342,150.316a3.11,3.11,0,1,1-3.109-3.109,3.109,3.109,0,0,1,3.109,3.109" transform="translate(25.216 27.471)" fill="#fff"/>
          <path id="Trazado_567235" data-name="Trazado 567235" d="M73.78,3.109A3.11,3.11,0,1,1,70.671,0,3.109,3.109,0,0,1,73.78,3.109" transform="translate(12.608)" fill="#fff"/>
          <path id="Trazado_567236" data-name="Trazado 567236" d="M96.3,3.109A3.11,3.11,0,1,1,93.192,0,3.109,3.109,0,0,1,96.3,3.109" transform="translate(16.81)" fill="#fff"/>
          <path id="Trazado_567237" data-name="Trazado 567237" d="M118.821,3.109A3.11,3.11,0,1,1,115.711,0a3.109,3.109,0,0,1,3.11,3.109" transform="translate(21.013)" fill="#fff"/>
          <path id="Trazado_567238" data-name="Trazado 567238" d="M141.342,3.109A3.11,3.11,0,1,1,138.233,0a3.109,3.109,0,0,1,3.109,3.109" transform="translate(25.216)" fill="#fff"/>
          <path id="Trazado_567239" data-name="Trazado 567239" d="M73.78,24.467a3.11,3.11,0,1,1-3.109-3.109,3.109,3.109,0,0,1,3.109,3.109" transform="translate(12.608 3.986)" fill="#fff"/>
          <path id="Trazado_567240" data-name="Trazado 567240" d="M96.3,24.467a3.11,3.11,0,1,1-3.109-3.109A3.109,3.109,0,0,1,96.3,24.467" transform="translate(16.81 3.986)" fill="#fff"/>
          <path id="Trazado_567241" data-name="Trazado 567241" d="M118.821,24.467a3.11,3.11,0,1,1-3.11-3.109,3.109,3.109,0,0,1,3.11,3.109" transform="translate(21.013 3.986)" fill="#fff"/>
          <path id="Trazado_567242" data-name="Trazado 567242" d="M141.342,24.467a3.11,3.11,0,1,1-3.109-3.109,3.109,3.109,0,0,1,3.109,3.109" transform="translate(25.216 3.986)" fill="#fff"/>
          <path id="Trazado_567243" data-name="Trazado 567243" d="M73.78,45.824a3.11,3.11,0,1,1-3.109-3.109,3.109,3.109,0,0,1,3.109,3.109" transform="translate(12.608 7.971)" fill="#fff"/>
          <path id="Trazado_567244" data-name="Trazado 567244" d="M96.3,45.824a3.11,3.11,0,1,1-3.109-3.109A3.109,3.109,0,0,1,96.3,45.824" transform="translate(16.81 7.971)" fill="#fff"/>
          <path id="Trazado_567245" data-name="Trazado 567245" d="M118.821,45.824a3.11,3.11,0,1,1-3.11-3.109,3.109,3.109,0,0,1,3.11,3.109" transform="translate(21.013 7.971)" fill="#fff"/>
          <path id="Trazado_567246" data-name="Trazado 567246" d="M141.342,45.824a3.11,3.11,0,1,1-3.109-3.109,3.109,3.109,0,0,1,3.109,3.109" transform="translate(25.216 7.971)" fill="#fff"/>
          <path id="Trazado_567247" data-name="Trazado 567247" d="M73.78,67.182a3.11,3.11,0,1,1-3.109-3.109,3.109,3.109,0,0,1,3.109,3.109" transform="translate(12.608 11.957)" fill="#fff"/>
          <path id="Trazado_567248" data-name="Trazado 567248" d="M96.3,67.182a3.11,3.11,0,1,1-3.109-3.109A3.109,3.109,0,0,1,96.3,67.182" transform="translate(16.81 11.957)" fill="#fff"/>
          <path id="Trazado_567249" data-name="Trazado 567249" d="M118.821,67.182a3.11,3.11,0,1,1-3.11-3.109,3.109,3.109,0,0,1,3.11,3.109" transform="translate(21.013 11.957)" fill="#fff"/>
          <path id="Trazado_567250" data-name="Trazado 567250" d="M141.342,67.182a3.11,3.11,0,1,1-3.109-3.109,3.109,3.109,0,0,1,3.109,3.109" transform="translate(25.216 11.957)" fill="#fff"/>
        </g>
      </g>
    </g>
    <g id="Grupo_841754" data-name="Grupo 841754" transform="translate(853.833 360.5)">
      <g id="Grupo_145052" data-name="Grupo 145052" clip-path="url(#clip-path-2)">
        <path id="Trazado_150248" data-name="Trazado 150248" d="M6.219,86.243A3.11,3.11,0,1,1,3.11,83.134a3.109,3.109,0,0,1,3.109,3.109" transform="translate(0 15.514)" fill="#fff"/>
        <path id="Trazado_150249" data-name="Trazado 150249" d="M28.739,86.243a3.11,3.11,0,1,1-3.109-3.109,3.109,3.109,0,0,1,3.109,3.109" transform="translate(4.203 15.514)" fill="#fff"/>
        <path id="Trazado_150250" data-name="Trazado 150250" d="M51.26,86.243a3.11,3.11,0,1,1-3.109-3.109,3.109,3.109,0,0,1,3.109,3.109" transform="translate(8.405 15.514)" fill="#fff"/>
        <path id="Trazado_150251" data-name="Trazado 150251" d="M73.78,86.243a3.11,3.11,0,1,1-3.109-3.109,3.109,3.109,0,0,1,3.109,3.109" transform="translate(12.608 15.514)" fill="#fff"/>
        <path id="Trazado_150252" data-name="Trazado 150252" d="M6.219,107.6a3.11,3.11,0,1,1-3.109-3.109A3.109,3.109,0,0,1,6.219,107.6" transform="translate(0 19.5)" fill="#fff"/>
        <path id="Trazado_150253" data-name="Trazado 150253" d="M28.739,107.6a3.11,3.11,0,1,1-3.109-3.109,3.109,3.109,0,0,1,3.109,3.109" transform="translate(4.203 19.5)" fill="#fff"/>
        <path id="Trazado_150254" data-name="Trazado 150254" d="M51.26,107.6a3.11,3.11,0,1,1-3.109-3.109A3.109,3.109,0,0,1,51.26,107.6" transform="translate(8.405 19.5)" fill="#fff"/>
        <path id="Trazado_150255" data-name="Trazado 150255" d="M73.78,107.6a3.11,3.11,0,1,1-3.109-3.109A3.109,3.109,0,0,1,73.78,107.6" transform="translate(12.608 19.5)" fill="#fff"/>
        <path id="Trazado_150256" data-name="Trazado 150256" d="M6.219,128.958a3.11,3.11,0,1,1-3.109-3.109,3.109,3.109,0,0,1,3.109,3.109" transform="translate(0 23.485)" fill="#fff"/>
        <path id="Trazado_150257" data-name="Trazado 150257" d="M28.739,128.958a3.11,3.11,0,1,1-3.109-3.109,3.109,3.109,0,0,1,3.109,3.109" transform="translate(4.203 23.485)" fill="#fff"/>
        <path id="Trazado_150258" data-name="Trazado 150258" d="M51.26,128.958a3.11,3.11,0,1,1-3.109-3.109,3.109,3.109,0,0,1,3.109,3.109" transform="translate(8.405 23.485)" fill="#fff"/>
        <path id="Trazado_150259" data-name="Trazado 150259" d="M73.78,128.958a3.11,3.11,0,1,1-3.109-3.109,3.109,3.109,0,0,1,3.109,3.109" transform="translate(12.608 23.485)" fill="#fff"/>
        <path id="Trazado_150260" data-name="Trazado 150260" d="M6.219,150.316a3.11,3.11,0,1,1-3.109-3.109,3.109,3.109,0,0,1,3.109,3.109" transform="translate(0 27.471)" fill="#fff"/>
        <path id="Trazado_150261" data-name="Trazado 150261" d="M28.739,150.316a3.11,3.11,0,1,1-3.109-3.109,3.109,3.109,0,0,1,3.109,3.109" transform="translate(4.203 27.471)" fill="#fff"/>
        <path id="Trazado_150262" data-name="Trazado 150262" d="M51.26,150.316a3.11,3.11,0,1,1-3.109-3.109,3.109,3.109,0,0,1,3.109,3.109" transform="translate(8.405 27.471)" fill="#fff"/>
        <path id="Trazado_150263" data-name="Trazado 150263" d="M73.78,150.316a3.11,3.11,0,1,1-3.109-3.109,3.109,3.109,0,0,1,3.109,3.109" transform="translate(12.608 27.471)" fill="#fff"/>
        <path id="Trazado_150264" data-name="Trazado 150264" d="M6.219,3.109A3.11,3.11,0,1,1,3.11,0,3.109,3.109,0,0,1,6.219,3.109" fill="#fff"/>
        <path id="Trazado_150265" data-name="Trazado 150265" d="M28.739,3.109A3.11,3.11,0,1,1,25.63,0a3.109,3.109,0,0,1,3.109,3.109" transform="translate(4.203)" fill="#fff"/>
        <path id="Trazado_150266" data-name="Trazado 150266" d="M51.26,3.109A3.11,3.11,0,1,1,48.151,0,3.109,3.109,0,0,1,51.26,3.109" transform="translate(8.405)" fill="#fff"/>
        <path id="Trazado_150267" data-name="Trazado 150267" d="M73.78,3.109A3.11,3.11,0,1,1,70.671,0,3.109,3.109,0,0,1,73.78,3.109" transform="translate(12.608)" fill="#fff"/>
        <path id="Trazado_150268" data-name="Trazado 150268" d="M6.219,24.467A3.11,3.11,0,1,1,3.11,21.358a3.109,3.109,0,0,1,3.109,3.109" transform="translate(0 3.986)" fill="#fff"/>
        <path id="Trazado_150269" data-name="Trazado 150269" d="M28.739,24.467a3.11,3.11,0,1,1-3.109-3.109,3.109,3.109,0,0,1,3.109,3.109" transform="translate(4.203 3.986)" fill="#fff"/>
        <path id="Trazado_150270" data-name="Trazado 150270" d="M51.26,24.467a3.11,3.11,0,1,1-3.109-3.109,3.109,3.109,0,0,1,3.109,3.109" transform="translate(8.405 3.986)" fill="#fff"/>
        <path id="Trazado_150271" data-name="Trazado 150271" d="M73.78,24.467a3.11,3.11,0,1,1-3.109-3.109,3.109,3.109,0,0,1,3.109,3.109" transform="translate(12.608 3.986)" fill="#fff"/>
        <path id="Trazado_150272" data-name="Trazado 150272" d="M6.219,45.824A3.11,3.11,0,1,1,3.11,42.715a3.109,3.109,0,0,1,3.109,3.109" transform="translate(0 7.971)" fill="#fff"/>
        <path id="Trazado_150273" data-name="Trazado 150273" d="M28.739,45.824a3.11,3.11,0,1,1-3.109-3.109,3.109,3.109,0,0,1,3.109,3.109" transform="translate(4.203 7.971)" fill="#fff"/>
        <path id="Trazado_150274" data-name="Trazado 150274" d="M51.26,45.824a3.11,3.11,0,1,1-3.109-3.109,3.109,3.109,0,0,1,3.109,3.109" transform="translate(8.405 7.971)" fill="#fff"/>
        <path id="Trazado_150275" data-name="Trazado 150275" d="M73.78,45.824a3.11,3.11,0,1,1-3.109-3.109,3.109,3.109,0,0,1,3.109,3.109" transform="translate(12.608 7.971)" fill="#fff"/>
        <path id="Trazado_150276" data-name="Trazado 150276" d="M6.219,67.182A3.11,3.11,0,1,1,3.11,64.073a3.109,3.109,0,0,1,3.109,3.109" transform="translate(0 11.957)" fill="#fff"/>
        <path id="Trazado_150277" data-name="Trazado 150277" d="M28.739,67.182a3.11,3.11,0,1,1-3.109-3.109,3.109,3.109,0,0,1,3.109,3.109" transform="translate(4.203 11.957)" fill="#fff"/>
        <path id="Trazado_150278" data-name="Trazado 150278" d="M51.26,67.182a3.11,3.11,0,1,1-3.109-3.109,3.109,3.109,0,0,1,3.109,3.109" transform="translate(8.405 11.957)" fill="#fff"/>
        <path id="Trazado_150279" data-name="Trazado 150279" d="M73.78,67.182a3.11,3.11,0,1,1-3.109-3.109,3.109,3.109,0,0,1,3.109,3.109" transform="translate(12.608 11.957)" fill="#fff"/>
        <path id="Trazado_150280" data-name="Trazado 150280" d="M73.78,86.243a3.11,3.11,0,1,1-3.109-3.109,3.109,3.109,0,0,1,3.109,3.109" transform="translate(12.608 15.514)" fill="#fff"/>
        <path id="Trazado_150281" data-name="Trazado 150281" d="M96.3,86.243a3.11,3.11,0,1,1-3.109-3.109A3.109,3.109,0,0,1,96.3,86.243" transform="translate(16.81 15.514)" fill="#fff"/>
        <path id="Trazado_150282" data-name="Trazado 150282" d="M118.821,86.243a3.11,3.11,0,1,1-3.11-3.109,3.109,3.109,0,0,1,3.11,3.109" transform="translate(21.013 15.514)" fill="#fff"/>
        <path id="Trazado_150283" data-name="Trazado 150283" d="M141.342,86.243a3.11,3.11,0,1,1-3.109-3.109,3.109,3.109,0,0,1,3.109,3.109" transform="translate(25.216 15.514)" fill="#fff"/>
        <path id="Trazado_150284" data-name="Trazado 150284" d="M73.78,107.6a3.11,3.11,0,1,1-3.109-3.109A3.109,3.109,0,0,1,73.78,107.6" transform="translate(12.608 19.5)" fill="#fff"/>
        <path id="Trazado_150285" data-name="Trazado 150285" d="M96.3,107.6a3.11,3.11,0,1,1-3.109-3.109A3.109,3.109,0,0,1,96.3,107.6" transform="translate(16.81 19.5)" fill="#fff"/>
        <path id="Trazado_150286" data-name="Trazado 150286" d="M118.821,107.6a3.11,3.11,0,1,1-3.11-3.109,3.109,3.109,0,0,1,3.11,3.109" transform="translate(21.013 19.5)" fill="#fff"/>
        <path id="Trazado_150287" data-name="Trazado 150287" d="M141.342,107.6a3.11,3.11,0,1,1-3.109-3.109,3.109,3.109,0,0,1,3.109,3.109" transform="translate(25.216 19.5)" fill="#fff"/>
        <path id="Trazado_150288" data-name="Trazado 150288" d="M73.78,128.958a3.11,3.11,0,1,1-3.109-3.109,3.109,3.109,0,0,1,3.109,3.109" transform="translate(12.608 23.485)" fill="#fff"/>
        <path id="Trazado_150289" data-name="Trazado 150289" d="M96.3,128.958a3.11,3.11,0,1,1-3.109-3.109,3.109,3.109,0,0,1,3.109,3.109" transform="translate(16.81 23.485)" fill="#fff"/>
        <path id="Trazado_150290" data-name="Trazado 150290" d="M118.821,128.958a3.11,3.11,0,1,1-3.11-3.109,3.109,3.109,0,0,1,3.11,3.109" transform="translate(21.013 23.485)" fill="#fff"/>
        <path id="Trazado_150291" data-name="Trazado 150291" d="M141.342,128.958a3.11,3.11,0,1,1-3.109-3.109,3.109,3.109,0,0,1,3.109,3.109" transform="translate(25.216 23.485)" fill="#fff"/>
        <path id="Trazado_150292" data-name="Trazado 150292" d="M73.78,150.316a3.11,3.11,0,1,1-3.109-3.109,3.109,3.109,0,0,1,3.109,3.109" transform="translate(12.608 27.471)" fill="#fff"/>
        <path id="Trazado_150293" data-name="Trazado 150293" d="M96.3,150.316a3.11,3.11,0,1,1-3.109-3.109,3.109,3.109,0,0,1,3.109,3.109" transform="translate(16.81 27.471)" fill="#fff"/>
        <path id="Trazado_150294" data-name="Trazado 150294" d="M118.821,150.316a3.11,3.11,0,1,1-3.11-3.109,3.109,3.109,0,0,1,3.11,3.109" transform="translate(21.013 27.471)" fill="#fff"/>
        <path id="Trazado_150295" data-name="Trazado 150295" d="M141.342,150.316a3.11,3.11,0,1,1-3.109-3.109,3.109,3.109,0,0,1,3.109,3.109" transform="translate(25.216 27.471)" fill="#fff"/>
        <path id="Trazado_150296" data-name="Trazado 150296" d="M73.78,3.109A3.11,3.11,0,1,1,70.671,0,3.109,3.109,0,0,1,73.78,3.109" transform="translate(12.608)" fill="#fff"/>
        <path id="Trazado_150297" data-name="Trazado 150297" d="M96.3,3.109A3.11,3.11,0,1,1,93.192,0,3.109,3.109,0,0,1,96.3,3.109" transform="translate(16.81)" fill="#fff"/>
        <path id="Trazado_150298" data-name="Trazado 150298" d="M118.821,3.109A3.11,3.11,0,1,1,115.711,0a3.109,3.109,0,0,1,3.11,3.109" transform="translate(21.013)" fill="#fff"/>
        <path id="Trazado_150299" data-name="Trazado 150299" d="M141.342,3.109A3.11,3.11,0,1,1,138.233,0a3.109,3.109,0,0,1,3.109,3.109" transform="translate(25.216)" fill="#fff"/>
        <path id="Trazado_150300" data-name="Trazado 150300" d="M73.78,24.467a3.11,3.11,0,1,1-3.109-3.109,3.109,3.109,0,0,1,3.109,3.109" transform="translate(12.608 3.986)" fill="#fff"/>
        <path id="Trazado_150301" data-name="Trazado 150301" d="M96.3,24.467a3.11,3.11,0,1,1-3.109-3.109A3.109,3.109,0,0,1,96.3,24.467" transform="translate(16.81 3.986)" fill="#fff"/>
        <path id="Trazado_150302" data-name="Trazado 150302" d="M118.821,24.467a3.11,3.11,0,1,1-3.11-3.109,3.109,3.109,0,0,1,3.11,3.109" transform="translate(21.013 3.986)" fill="#fff"/>
        <path id="Trazado_150303" data-name="Trazado 150303" d="M141.342,24.467a3.11,3.11,0,1,1-3.109-3.109,3.109,3.109,0,0,1,3.109,3.109" transform="translate(25.216 3.986)" fill="#fff"/>
        <path id="Trazado_150304" data-name="Trazado 150304" d="M73.78,45.824a3.11,3.11,0,1,1-3.109-3.109,3.109,3.109,0,0,1,3.109,3.109" transform="translate(12.608 7.971)" fill="#fff"/>
        <path id="Trazado_150305" data-name="Trazado 150305" d="M96.3,45.824a3.11,3.11,0,1,1-3.109-3.109A3.109,3.109,0,0,1,96.3,45.824" transform="translate(16.81 7.971)" fill="#fff"/>
        <path id="Trazado_150306" data-name="Trazado 150306" d="M118.821,45.824a3.11,3.11,0,1,1-3.11-3.109,3.109,3.109,0,0,1,3.11,3.109" transform="translate(21.013 7.971)" fill="#fff"/>
        <path id="Trazado_150307" data-name="Trazado 150307" d="M141.342,45.824a3.11,3.11,0,1,1-3.109-3.109,3.109,3.109,0,0,1,3.109,3.109" transform="translate(25.216 7.971)" fill="#fff"/>
        <path id="Trazado_150308" data-name="Trazado 150308" d="M73.78,67.182a3.11,3.11,0,1,1-3.109-3.109,3.109,3.109,0,0,1,3.109,3.109" transform="translate(12.608 11.957)" fill="#fff"/>
        <path id="Trazado_150309" data-name="Trazado 150309" d="M96.3,67.182a3.11,3.11,0,1,1-3.109-3.109A3.109,3.109,0,0,1,96.3,67.182" transform="translate(16.81 11.957)" fill="#fff"/>
        <path id="Trazado_150310" data-name="Trazado 150310" d="M118.821,67.182a3.11,3.11,0,1,1-3.11-3.109,3.109,3.109,0,0,1,3.11,3.109" transform="translate(21.013 11.957)" fill="#fff"/>
        <path id="Trazado_150311" data-name="Trazado 150311" d="M141.342,67.182a3.11,3.11,0,1,1-3.109-3.109,3.109,3.109,0,0,1,3.109,3.109" transform="translate(25.216 11.957)" fill="#fff"/>
      </g>
    </g>
  </g>
</svg>
