<svg xmlns="http://www.w3.org/2000/svg" width="107" height="107" viewBox="0 0 107 107">
  <g id="Grupo_841763" data-name="Grupo 841763" transform="translate(-309 -757)">
    <g id="Grupo_841677" data-name="Grupo 841677" transform="translate(69 -529.742)">
      <rect id="Rectángulo_38178" data-name="Rectángulo 38178" width="107" height="107" transform="translate(240 1286.742)" fill="none"/>
      <g id="Grupo_841532" data-name="Grupo 841532" transform="translate(-1875.416 929.121)">
        <path id="Trazado_565797" data-name="Trazado 565797" d="M2161.873,371.068c10.445.287,20.771,1.235,30.523,5.42,6.859,2.943,12.879,7.03,17.368,13.1a30.433,30.433,0,0,1,5.234,26.29c-2.442,10.065-6.9,19.214-14.591,26.44-6.064,5.695-13.151,9.1-21.658,8.847A25.89,25.89,0,0,1,2154.9,432.9a65.671,65.671,0,0,0-2.714-7.975c-2.706-6.03-7.544-9.776-13.395-12.44-2.945-1.341-5.907-2.639-8.785-4.134-9.223-4.791-10.575-16.418-4.355-24.045a33.28,33.28,0,0,1,20.333-11.806A89.244,89.244,0,0,1,2161.873,371.068Z"/>
        <path id="Trazado_565798" data-name="Trazado 565798" d="M2141.788,393.081c.13-3.516,2.084-6,4.76-7.928a31.57,31.57,0,0,1,14.357-5.273.661.661,0,0,0,.473.155c.132-.006.272.063.4-.033a.289.289,0,0,1-.253-.2,3.426,3.426,0,0,1,1.955-.287c.484.343,1.047.038,1.555.195-.3-.124-.7.091-.928-.268a6.762,6.762,0,0,1,3.045-.308c1.088.392,2.215.045,3.143.19.418-.033.106-.417.2-.192.024.055-.016.089-.119.1a3.541,3.541,0,0,1-2.24-.164,57.323,57.323,0,0,1,11.488-.16,22.112,22.112,0,0,1,5.257.538,1.075,1.075,0,0,1-1.006.209c.343-.071,1.009.212,1.643-.154a4.349,4.349,0,0,1,2.319.3.406.406,0,0,1-.34.223,1.276,1.276,0,0,0,.959-.149,3.4,3.4,0,0,1,1.961.289.392.392,0,0,1-.362.224,1.359,1.359,0,0,0,.97-.13,47.344,47.344,0,0,1,20.7,8.026,33.081,33.081,0,0,1,7.027,6.235c-.483.2-.784.4-.508,1.049a15.631,15.631,0,0,1,1.017,3.5c.143.843.272,1.725-.729,2.213-.648-.068-.9-.6-1.179-1.057-4.611-7.5-11.859-11.251-19.857-13.9a72.822,72.822,0,0,0-10.2-2.286c-.573-.1-1.275,0-1.5-.784a.552.552,0,0,1,.615-.242c.24-.046-.161-.344.011-.17-.517.2-.988.492-1.507.69-.776.091-1.592.314-2.052-.624.208-.415.689-.243,1.041-.341a7.5,7.5,0,0,0-2.294.639c-1.106.021-2.337.6-3.151-.692.591-.592,1.413.008,1.917-.324a9.09,9.09,0,0,0-3.492.667,39.339,39.339,0,0,1-7.076.038,19.235,19.235,0,0,0-2.723-.683c.268.1.586,0,.835.183-.208,1.166-1.171.811-1.878.9-5.809.71-11.431,2.011-16.467,5.169a7.608,7.608,0,0,0-1.135,12.116,15.673,15.673,0,0,0,4.917,2.787c.811.336,1.553-.113,2.323-.253a6.741,6.741,0,0,1,3.467,1.222,4.96,4.96,0,0,0,2.784,2.731,28.9,28.9,0,0,1,16.335,20.03c.372,1.483.789,2.957,1.215,4.425a12.874,12.874,0,0,0,3.647,6.462,2.588,2.588,0,0,1,1.029,1.478c-.3.815-.971.635-1.543.5a24.19,24.19,0,0,1-4.76-1.331c-1.453-1.811-2.007-4.012-2.655-6.166a84.5,84.5,0,0,0-2.843-9.067,23.456,23.456,0,0,0-11.4-12.012c-3.6-1.823-7.447-3.044-11.094-4.738-3.889-1.808-7.056-4.284-7.909-8.815a17.328,17.328,0,0,1-.155-1.81A4.87,4.87,0,0,0,2141.788,393.081Z" transform="translate(-12.612 -4.822)" fill="#f2e7d6"/>
        <path id="Trazado_565799" data-name="Trazado 565799" d="M2130.967,423.526c.429,6.538,3.853,10.918,9.764,13.467,3.031,1.307,6.1,2.535,9.144,3.8a22.022,22.022,0,0,1,13.494,15.624c.351,1.361.81,2.7,1.107,4.069,1.9,8.781,7.563,13.585,16.086,15.613a30.65,30.65,0,0,0,19.051-1.3,6.009,6.009,0,0,1,.852-.237c.045-.011.107.052.258.132-.518,1.258-1.789,1.753-2.767,2.334-10.6,6.3-20.56,5.318-30.405-3.032a15.91,15.91,0,0,1-4.519-7.238c-.693-2.023-1.313-4.072-1.927-6.121a26.619,26.619,0,0,0-14.2-16.9c-3.177-1.573-6.457-2.938-9.62-4.537-6.628-3.349-9.053-8.565-7.365-15.589a3.969,3.969,0,0,1,.4-.8C2131.019,422.606,2130.7,423.327,2130.967,423.526Z" transform="translate(-4.778 -32.694)" fill="#e93841"/>
        <path id="Trazado_565800" data-name="Trazado 565800" d="M2280.615,427.306c.806-1.323.09-2.57-.229-3.817-.281-1.1-.683-2.17-1.119-3.526l1.526.65a25.961,25.961,0,0,1,6.8,17.674,3.027,3.027,0,0,0,0,2.2,7.752,7.752,0,0,1-.324,3.373.582.582,0,0,1-.17-.651,1.042,1.042,0,0,0,.131.952,30.9,30.9,0,0,1-4.843,13.482c-3.887,6.175-8.938,11.115-16.011,13.5-7.742,2.608-15.182,1.451-22.283-2.329a10.4,10.4,0,0,1-4.2-4.087c1.724-.3,3.23.643,4.864.869.462.064.9.393,1.321-.067.854-.27,1.533.25,2.244.541,9.012,3.689,17.291,2.227,24.661-3.9,5.734-4.764,8.8-11.142,9.988-18.467a4.747,4.747,0,0,0-.87-3.263,15.819,15.819,0,0,1-.252-3.493,4.121,4.121,0,0,0,.4-4.17c-.451-1.2-.822-2.432-1.385-3.594C2280.59,428.6,2280.132,428.007,2280.615,427.306Z" transform="translate(-74.652 -30.918)" fill="#e4d5c0"/>
        <path id="Trazado_565801" data-name="Trazado 565801" d="M2216.959,373.083h9.43v.184h-9.383Z" transform="translate(-60.146 -1.274)" fill="#040404"/>
        <path id="Trazado_565802" data-name="Trazado 565802" d="M2211.754,379.7l2.67.148c-1.231.172-2.472.629-3.656-.08Z" transform="translate(-56.231 -5.457)" fill="#fef5e2"/>
        <path id="Trazado_565803" data-name="Trazado 565803" d="M2141.51,417.826a2.776,2.776,0,0,1,.014,2.938A6.5,6.5,0,0,1,2141.51,417.826Z" transform="translate(-12.334 -29.567)" fill="#fdf5e3"/>
        <path id="Trazado_565804" data-name="Trazado 565804" d="M2256.963,380.78c-.678.66-1.445.22-2.189.09l1.552-.145Z" transform="translate(-84.058 -6.106)" fill="#fcf3e1"/>
        <path id="Trazado_565805" data-name="Trazado 565805" d="M2132.543,421.915l-.651-.721a.989.989,0,0,1,.651-.971Z" transform="translate(-6.355 -31.083)" fill="#c52f37"/>
        <path id="Trazado_565806" data-name="Trazado 565806" d="M2201.409,380.719l1.465.192c-.9.285-1.522.4-2.091-.118Z" transform="translate(-49.917 -6.103)" fill="#fbf0df"/>
        <path id="Trazado_565807" data-name="Trazado 565807" d="M2368.941,472a1.71,1.71,0,0,1,0-2.2A4.9,4.9,0,0,1,2368.941,472Z" transform="translate(-155.997 -62.435)" fill="#ebdbc6"/>
        <path id="Trazado_565808" data-name="Trazado 565808" d="M2194.4,381.7l1.109.2c-.79.264-1.281.368-1.725-.122Z" transform="translate(-45.494 -6.723)" fill="#fdf4e2"/>
        <path id="Trazado_565809" data-name="Trazado 565809" d="M2265.789,381.774c-.406.458-.9.4-1.7.176l1.083-.25Z" transform="translate(-89.946 -6.723)" fill="#fdf4e2"/>
        <path id="Trazado_565810" data-name="Trazado 565810" d="M2272.8,382.781c-.415.436-.9.39-1.692.147l1.084-.241Z" transform="translate(-94.384 -7.348)" fill="#fcf3e1"/>
        <path id="Trazado_565811" data-name="Trazado 565811" d="M2368.026,482.887c-.463-.432-.446-.925-.121-1.682l.16,1.38A.214.214,0,0,1,2368.026,482.887Z" transform="translate(-155.446 -69.644)" fill="#eedec9"/>
        <path id="Trazado_565812" data-name="Trazado 565812" d="M2328.678,559.175a1.079,1.079,0,0,1-.8.768.409.409,0,0,1-.114-.276A.752.752,0,0,1,2328.678,559.175Z" transform="translate(-130.21 -118.941)" fill="#7f1e23"/>
        <path id="Trazado_565813" data-name="Trazado 565813" d="M2224.726,407.273a35.1,35.1,0,0,1,2.561,6.979c.225,1.089.274,2.078-.984,2.588-1.665.407-1.943-.909-2.233-1.956a31.155,31.155,0,0,0-2.744-6.7,3.028,3.028,0,0,0-3.172-1.917,38.948,38.948,0,0,0-19.164,4.088,47.42,47.42,0,0,0,3.943,3.527c3.629,3.24,5.849,7.341,7.559,11.78.593,1.541,1.232,3.068,1.7,4.655a34.775,34.775,0,0,0,2.624,7.416c.8,1.521,1.241,1.615,2.417.357a27.531,27.531,0,0,0,7.025-14.659c.182-1.1.3-2.2,1.278-2.933.3-.221.653-.358.979,0,1.115.426,1.314,1.257,1.175,2.356a31.39,31.39,0,0,1-5.437,14.309,25.456,25.456,0,0,1-16.693,10.99,22.519,22.519,0,0,1-15.364-2.653c-3.251-2.442-4.689-5.9-5.569-9.721a46.7,46.7,0,0,0-2.646-8.187c-2.979-6.849-8.243-11.375-14.865-14.5-1.061-.5-2.224-.9-1.935-2.458.388-1.294,1.325-1.334,2.327-.906,8.531,3.649,14.968,9.377,18.213,18.308,1.277,3.514,2.01,7.189,3.3,10.693,1.882,4.3,5.635,5.638,9.858,6.236a9.948,9.948,0,0,0,5.021.042,19.972,19.972,0,0,0,7.921-2.553c.653-.386,1.075-.794.489-1.579-1.751-2.345-2.325-5.192-3.322-7.859a74.518,74.518,0,0,0-3.651-9.787,24.137,24.137,0,0,0-6.867-8.243,56.485,56.485,0,0,0-11.8-7.347,1.8,1.8,0,0,0-2.309.276,9.3,9.3,0,0,1-4.558,2.234,3.356,3.356,0,0,1-1.407-.007,7.826,7.826,0,0,1-6.872-6.192,2.043,2.043,0,0,0-1.737-1.632,91.868,91.868,0,0,0-13.059-1.529c-1.875-.084-2.154.491-1.269,2.173a7.915,7.915,0,0,0,3.485,3.129,13.313,13.313,0,0,1,2.383,1.348c.6.509,1.259,1.069.508,1.957a1.961,1.961,0,0,1-2.583.538c-3.285-1.432-6.3-3.075-7.43-6.858a7.974,7.974,0,0,1,3.41-8.83c5.236-3.342,11.059-4.7,17.106-5.405.6-.07,1.193-.2,1.789-.3a1.189,1.189,0,0,1,1.376-.06l7.72.007a1.081,1.081,0,0,1,1.345.07,11.219,11.219,0,0,0,3.434.284c.343-.187.68-.3.975.084a5.258,5.258,0,0,0,2.333.285c.23-.169.446-.222.622.074a91.875,91.875,0,0,1,14.01,3.323,39.229,39.229,0,0,1,13.788,8.078A29.655,29.655,0,0,1,2224.726,407.273Z" transform="translate(-18.763 -10.886)"/>
        <path id="Trazado_565814" data-name="Trazado 565814" d="M2184.5,430.326a8.239,8.239,0,0,0,4.792-2.828c.467-.643.908-.372,1.424-.129a55.339,55.339,0,0,1,15.131,9.915c4.607,4.426,6.5,10.24,8.2,16.145.151.889-.489,1.322-1.058,1.76a23.986,23.986,0,0,1-17.475,5.031,4.4,4.4,0,0,1-2.216-.776c-1.4-3.193-2-6.636-3.094-9.928-3.058-9.166-9.533-14.946-18.067-18.813a1.783,1.783,0,0,0-2.277.5l-3.348-1.238c.143-1.334-.775-1.781-1.788-2.185a9.76,9.76,0,0,1-4.794-3.523,8.548,8.548,0,0,1-.789-1.635c-.506-1.3-.175-1.857,1.355-1.8a95.608,95.608,0,0,1,14.9,1.72c.519.1,1.083.06,1.16.865.387,4.044,2.819,6.163,6.642,6.934-.145.229-.407.159-.609.243a1.6,1.6,0,0,0,.349-.024c.547.012,1.093,0,1.64.008a.592.592,0,0,1,.17.057C2184.72,430.479,2184.577,430.433,2184.5,430.326Z" transform="translate(-23.449 -31.456)" fill="#fb4e51"/>
        <path id="Trazado_565815" data-name="Trazado 565815" d="M2239.093,388.246l-1.345-.07c1.062-.659,2.181-.3,3.295-.1Z" transform="translate(-73.292 -10.579)" fill="#fcf2e1"/>
        <path id="Trazado_565816" data-name="Trazado 565816" d="M2211.708,388.167l-1.376.06-1.555-.158C2209.769,387.929,2210.777,387.477,2211.708,388.167Z" transform="translate(-54.972 -10.576)" fill="#fbf1df"/>
        <path id="Trazado_565817" data-name="Trazado 565817" d="M2149.967,419.525a3.629,3.629,0,0,1,0,2.172A3.339,3.339,0,0,1,2149.967,419.525Z" transform="translate(-17.671 -30.641)" fill="#fdf4e2"/>
        <path id="Trazado_565818" data-name="Trazado 565818" d="M2251.721,389.283l-.974-.084c.691-.634,1.458-.221,2.208-.089Z" transform="translate(-81.512 -11.248)" fill="#fcf2e0"/>
        <path id="Trazado_565819" data-name="Trazado 565819" d="M2260.363,390.276l-.622-.074c.406-.456.9-.4,1.7-.176Z" transform="translate(-87.199 -11.882)" fill="#fbf1e0"/>
        <path id="Trazado_565820" data-name="Trazado 565820" d="M2321.7,435.645a2.65,2.65,0,0,1,3.264,1.534,25.515,25.515,0,0,1,3.082,7.379c.222,1.033.487,2.067,1.837,2.155q.107,1.824.213,3.649c-1.633.3-1.566,1.653-1.742,2.843a28.675,28.675,0,0,1-7.574,15.586c-1.08,1.168-1.7,1.021-2.438-.226a34.384,34.384,0,0,1-3.021-8.234,6.315,6.315,0,0,1,1.2-2.443,28.136,28.136,0,0,0,4.813-20.163A2.374,2.374,0,0,1,2321.7,435.645Z" transform="translate(-122.343 -40.759)" fill="#e93942"/>
        <path id="Trazado_565821" data-name="Trazado 565821" d="M2190.266,396.9c12.677.557,24.976,2.314,35.6,11.185-2.256.206-4.028.345-5.795.532a38.007,38.007,0,0,0-15.632,4.888,1.625,1.625,0,0,1-1.981-.029,51.894,51.894,0,0,0-7.132-3.766,1.566,1.566,0,0,1-1.068-1.645,7.121,7.121,0,0,0-12.967-4.159c-.317.41-.445,1-1.222.847a140.422,140.422,0,0,0-15.66-2.085c6.121-4.323,13.071-5.625,20.354-5.767A18.548,18.548,0,0,0,2190.266,396.9Z" transform="translate(-26.919 -16.332)" fill="#fb4e51"/>
        <path id="Trazado_565822" data-name="Trazado 565822" d="M2297.94,435.793a69.639,69.639,0,0,1,.391,7.253,28.276,28.276,0,0,1-6.771,17.434c-.638-1.708-1.3-3.409-1.911-5.126a28.732,28.732,0,0,0-10.287-13.717c-.486-.358-.941-.76-1.616-1.308A39.045,39.045,0,0,1,2297.94,435.793Z" transform="translate(-98.585 -40.907)" fill="#fb4e51"/>
        <path id="Trazado_565823" data-name="Trazado 565823" d="M2252.432,515.54a27.852,27.852,0,0,0,9.447-.066c4.276-.986,8.221-2.661,11.3-5.949,1.238,2.872,1.687,6.109,3.946,8.507.487.517.035.737-.324.954a19.6,19.6,0,0,1-8.831,3.107c-1.833.024-3.665-.076-5.5-.012C2258.127,521.433,2254.229,520.1,2252.432,515.54Z" transform="translate(-82.577 -87.552)" fill="#e93942"/>
        <path id="Trazado_565824" data-name="Trazado 565824" d="M2223.192,419.447c.3,2.023-2.313,4.469-4.167,4.442a4.358,4.358,0,1,1,4.167-4.442Z" transform="translate(-58.643 -27.892)" fill="#f2e7d6"/>
        <path id="Trazado_565825" data-name="Trazado 565825" d="M2279.743,542.952a9.084,9.084,0,0,1,5.5.012A11.523,11.523,0,0,1,2279.743,542.952Z" transform="translate(-99.847 -108.424)" fill="#f53b45"/>
        <path id="Trazado_565826" data-name="Trazado 565826" d="M2225.272,396.66a9.09,9.09,0,0,1-5.5,0A27.548,27.548,0,0,1,2225.272,396.66Z" transform="translate(-61.925 -16.096)" fill="#fe5154"/>
        <path id="Trazado_565827" data-name="Trazado 565827" d="M2224.286,446.688l.707.091.013.169h-3.165c.313-.391.776-.129,1.15-.251Z" transform="translate(-63.233 -47.818)" fill="#fe5255"/>
      </g>
    </g>
  </g>
</svg>
