<svg xmlns="http://www.w3.org/2000/svg" xmlns:xlink="http://www.w3.org/1999/xlink" width="334.469" height="284.234" viewBox="0 0 334.469 284.234">
  <defs>
    <clipPath id="clip-path">
      <rect id="Rectángulo_279143" data-name="Rectángulo 279143" width="334.469" height="284.234" fill="none"/>
    </clipPath>
    <clipPath id="clip-path-2">
      <rect id="Rectángulo_279130" data-name="Rectángulo 279130" width="159.053" height="88.332" fill="none"/>
    </clipPath>
    <clipPath id="clip-path-4">
      <rect id="Rectángulo_279131" data-name="Rectángulo 279131" width="246.303" height="111.935" fill="none"/>
    </clipPath>
    <clipPath id="clip-path-5">
      <rect id="Rectángulo_279132" data-name="Rectángulo 279132" width="20.404" height="25.675" fill="none"/>
    </clipPath>
    <clipPath id="clip-path-6">
      <rect id="Rectángulo_279133" data-name="Rectángulo 279133" width="44.323" height="141.994" fill="none"/>
    </clipPath>
    <clipPath id="clip-path-7">
      <rect id="Rectángulo_279134" data-name="Rectángulo 279134" width="10.904" height="15.067" fill="none"/>
    </clipPath>
    <clipPath id="clip-path-8">
      <rect id="Rectángulo_279135" data-name="Rectángulo 279135" width="18.32" height="2.294" fill="none"/>
    </clipPath>
    <clipPath id="clip-path-9">
      <rect id="Rectángulo_279136" data-name="Rectángulo 279136" width="158.806" height="84.83" fill="none"/>
    </clipPath>
    <clipPath id="clip-path-10">
      <rect id="Rectángulo_279137" data-name="Rectángulo 279137" width="161.005" height="77.356" fill="none"/>
    </clipPath>
    <clipPath id="clip-path-11">
      <rect id="Rectángulo_279138" data-name="Rectángulo 279138" width="35.41" height="12.977" fill="none"/>
    </clipPath>
    <clipPath id="clip-path-12">
      <rect id="Rectángulo_279139" data-name="Rectángulo 279139" width="35.101" height="11.863" fill="none"/>
    </clipPath>
    <clipPath id="clip-path-13">
      <rect id="Rectángulo_279140" data-name="Rectángulo 279140" width="40.904" height="65.644" fill="none"/>
    </clipPath>
    <clipPath id="clip-path-14">
      <rect id="Rectángulo_279141" data-name="Rectángulo 279141" width="11.417" height="13.958" fill="none"/>
    </clipPath>
  </defs>
  <g id="Grupo_841762" data-name="Grupo 841762" transform="translate(-313 -6711.487)">
    <g id="Grupo_841638" data-name="Grupo 841638" transform="translate(313 6711.487)">
      <g id="Grupo_841675" data-name="Grupo 841675" clip-path="url(#clip-path)">
        <g id="Grupo_841639" data-name="Grupo 841639" transform="translate(0.01 60.639)">
          <g id="Grupo_841638-2" data-name="Grupo 841638" clip-path="url(#clip-path-2)">
            <path id="Trazado_565584" data-name="Trazado 565584" d="M49.373,42.387a3.184,3.184,0,1,1,3.18-3.188v.013a3.179,3.179,0,0,1-3.18,3.175" transform="translate(31.546 -36.029)" fill="#ffce7e"/>
            <path id="Trazado_565585" data-name="Trazado 565585" d="M49.373,58.62a3.184,3.184,0,1,1,3.178-3.188v.01a3.177,3.177,0,0,1-3.178,3.178" transform="translate(31.546 -24.938)" fill="#ffce7e"/>
            <path id="Trazado_565586" data-name="Trazado 565586" d="M49.373,74.853a3.184,3.184,0,1,1,3.178-3.188v.01a3.177,3.177,0,0,1-3.178,3.178" transform="translate(31.546 -13.847)" fill="#ffce7e"/>
            <path id="Trazado_565587" data-name="Trazado 565587" d="M49.373,91.086A3.184,3.184,0,1,1,52.551,87.9v.01a3.177,3.177,0,0,1-3.178,3.178" transform="translate(31.546 -2.756)" fill="#ffce7e"/>
            <path id="Trazado_565588" data-name="Trazado 565588" d="M33.979,42.387A3.184,3.184,0,1,1,37.156,39.2v.017a3.18,3.18,0,0,1-3.176,3.175" transform="translate(21.026 -36.029)" fill="#ffce7e"/>
            <path id="Trazado_565589" data-name="Trazado 565589" d="M33.979,58.62a3.184,3.184,0,1,1,3.176-3.191v.013a3.179,3.179,0,0,1-3.18,3.178" transform="translate(21.026 -24.938)" fill="#ffce7e"/>
            <path id="Trazado_565590" data-name="Trazado 565590" d="M33.979,74.853a3.184,3.184,0,1,1,3.176-3.191v.013a3.179,3.179,0,0,1-3.18,3.178" transform="translate(21.026 -13.847)" fill="#ffce7e"/>
            <path id="Trazado_565591" data-name="Trazado 565591" d="M33.979,91.086a3.184,3.184,0,1,1,3.176-3.191v.013a3.179,3.179,0,0,1-3.18,3.178" transform="translate(21.026 -2.756)" fill="#ffce7e"/>
            <path id="Trazado_565592" data-name="Trazado 565592" d="M18.584,42.387a3.184,3.184,0,1,1,3.18-3.188v.013a3.179,3.179,0,0,1-3.18,3.175" transform="translate(10.509 -36.029)" fill="#ffce7e"/>
            <path id="Trazado_565593" data-name="Trazado 565593" d="M18.584,58.62a3.184,3.184,0,1,1,3.178-3.188v.01a3.177,3.177,0,0,1-3.178,3.178" transform="translate(10.509 -24.938)" fill="#ffce7e"/>
            <path id="Trazado_565594" data-name="Trazado 565594" d="M18.584,74.853a3.184,3.184,0,1,1,3.178-3.188v.01a3.177,3.177,0,0,1-3.178,3.178" transform="translate(10.509 -13.847)" fill="#ffce7e"/>
            <path id="Trazado_565595" data-name="Trazado 565595" d="M18.584,91.086A3.184,3.184,0,1,1,21.762,87.9v.01a3.177,3.177,0,0,1-3.178,3.178" transform="translate(10.509 -2.756)" fill="#ffce7e"/>
            <path id="Trazado_565596" data-name="Trazado 565596" d="M3.188,42.387A3.184,3.184,0,1,1,6.368,39.2v.013a3.179,3.179,0,0,1-3.18,3.175" transform="translate(-0.01 -36.029)" fill="#ffce7e"/>
            <path id="Trazado_565597" data-name="Trazado 565597" d="M3.188,58.62a3.184,3.184,0,1,1,3.178-3.188v.01A3.177,3.177,0,0,1,3.188,58.62Z" transform="translate(-0.01 -24.938)" fill="#ffce7e"/>
            <path id="Trazado_565598" data-name="Trazado 565598" d="M3.188,74.853a3.184,3.184,0,1,1,3.178-3.188v.01A3.177,3.177,0,0,1,3.188,74.853Z" transform="translate(-0.01 -13.847)" fill="#ffce7e"/>
            <path id="Trazado_565599" data-name="Trazado 565599" d="M3.188,91.086A3.184,3.184,0,1,1,6.366,87.9v.01A3.177,3.177,0,0,1,3.188,91.086Z" transform="translate(-0.01 -2.756)" fill="#ffce7e"/>
            <path id="Trazado_565600" data-name="Trazado 565600" d="M93.9,42.387a3.184,3.184,0,1,1,3.18-3.188v.013A3.178,3.178,0,0,1,93.9,42.39" transform="translate(61.97 -36.029)" fill="#ffce7e"/>
            <path id="Trazado_565601" data-name="Trazado 565601" d="M93.9,58.62a3.184,3.184,0,1,1,3.178-3.188v.01A3.177,3.177,0,0,1,93.9,58.62" transform="translate(61.97 -24.938)" fill="#ffce7e"/>
            <path id="Trazado_565602" data-name="Trazado 565602" d="M93.9,74.853a3.184,3.184,0,1,1,3.178-3.188v.01A3.177,3.177,0,0,1,93.9,74.853" transform="translate(61.97 -13.847)" fill="#ffce7e"/>
            <path id="Trazado_565603" data-name="Trazado 565603" d="M93.9,91.086A3.184,3.184,0,1,1,97.08,87.9v.01A3.177,3.177,0,0,1,93.9,91.086" transform="translate(61.97 -2.756)" fill="#ffce7e"/>
            <path id="Trazado_565604" data-name="Trazado 565604" d="M78.508,42.387a3.184,3.184,0,1,1,3.18-3.188v.013A3.178,3.178,0,0,1,78.51,42.39" transform="translate(51.452 -36.029)" fill="#ffce7e"/>
            <path id="Trazado_565605" data-name="Trazado 565605" d="M78.508,58.62a3.184,3.184,0,1,1,3.178-3.188v.01a3.177,3.177,0,0,1-3.178,3.178" transform="translate(51.452 -24.938)" fill="#ffce7e"/>
            <path id="Trazado_565606" data-name="Trazado 565606" d="M78.508,74.853a3.184,3.184,0,1,1,3.178-3.188v.01a3.177,3.177,0,0,1-3.178,3.178" transform="translate(51.452 -13.847)" fill="#ffce7e"/>
            <path id="Trazado_565607" data-name="Trazado 565607" d="M78.508,91.086A3.184,3.184,0,1,1,81.686,87.9v.01a3.177,3.177,0,0,1-3.178,3.178" transform="translate(51.452 -2.756)" fill="#ffce7e"/>
            <path id="Trazado_565608" data-name="Trazado 565608" d="M63.113,42.387a3.184,3.184,0,1,1,3.18-3.188v.013a3.179,3.179,0,0,1-3.18,3.175" transform="translate(40.933 -36.029)" fill="#ffce7e"/>
            <path id="Trazado_565609" data-name="Trazado 565609" d="M63.113,58.62a3.184,3.184,0,1,1,3.178-3.188v.01a3.177,3.177,0,0,1-3.178,3.178" transform="translate(40.933 -24.938)" fill="#ffce7e"/>
            <path id="Trazado_565610" data-name="Trazado 565610" d="M63.113,74.853a3.184,3.184,0,1,1,3.178-3.188v.01a3.177,3.177,0,0,1-3.178,3.178" transform="translate(40.933 -13.847)" fill="#ffce7e"/>
            <path id="Trazado_565611" data-name="Trazado 565611" d="M63.113,91.086A3.184,3.184,0,1,1,66.291,87.9v.01a3.177,3.177,0,0,1-3.178,3.178" transform="translate(40.933 -2.756)" fill="#ffce7e"/>
          </g>
        </g>
        <g id="Grupo_841674" data-name="Grupo 841674">
          <g id="Grupo_841673" data-name="Grupo 841673" clip-path="url(#clip-path)">
            <g id="Grupo_841642" data-name="Grupo 841642" transform="translate(87.304 172.3)" opacity="0.3" style="mix-blend-mode: multiply;isolation: isolate">
              <g id="Grupo_841641" data-name="Grupo 841641">
                <g id="Grupo_841640" data-name="Grupo 841640" clip-path="url(#clip-path-4)">
                  <path id="Trazado_565612" data-name="Trazado 565612" d="M183,194.5a4.064,4.064,0,0,0,1.237-.86,6.826,6.826,0,0,0,1.518-3.831c1.33-8.591-.212-17.457-3.345-25.567s-7.807-15.535-12.872-22.6a219.678,219.678,0,0,0-25.9-29.994c-4.312-4.168-9.184-8.344-15.126-9.142-6.122-.823-12.092,2.118-17.322,5.407a111.337,111.337,0,0,0-31.852,30.367c-2.355,3.366-3.607,5.846-7.583,7.115-5.077,1.621-10.056,3.733-14.011,7.421-4.3,4.011-7.021,10.221-5.4,15.876,1.7,5.932,7.57,9.719,13.432,11.645s12.14,2.552,17.805,5c6.762,2.917,12.2,8.219,18.623,11.815,6.322,3.538,14.116,5.336,20.849,2.665s11.419-10.875,8.5-17.506c-1.634-3.71-5.356-6.8-5.046-10.837.327-4.284,4.918-6.726,8.891-8.362,6.556,7.694,18.935,9.561,23.5,18.58,1.293,2.553,1.82,5.491,3.476,7.824,3.424,4.822,10.222,5.423,16.136,5.575,5.45.14,9.347-.454,14.764,1.587,5.383,2.028,10.33,5.056,15.334,7.849,8.115,4.53,17.354,8.635,26.425,6.617,4.011-.892,7.708-2.946,11.749-3.685,6.987-1.279,13.994,1.475,20.689,3.846s14.159,4.395,20.751,1.752a15.861,15.861,0,0,0,4.341-26.833c-6.654-5.625-16.925-5.1-23.688-10.589-3.969-3.222-6.167-8.064-8.726-12.488s-6-8.861-10.946-10.14c-6.108-1.577-12.209,2.124-17.435,5.657-5.827,3.939-11.8,8.019-15.748,13.84-3.1,4.573-4.844,10.081-8.642,14.094-4.945,5.226-12.431,6.992-19.465,8.512Z" transform="translate(-51.866 -102.361)" fill="#3a6106"/>
                </g>
              </g>
            </g>
            <path id="Trazado_565613" data-name="Trazado 565613" d="M122.343,54.82a25.215,25.215,0,0,0,9.315,3.013,64.153,64.153,0,0,0,10.761.345c2.634-.069,5.252-.19,7.783-.19a4.824,4.824,0,0,0,1.86-1.257c5.509-5.767,5.716-26.6,8.367-27.944L151.579,14.2c-5.837,4.8-6.526,18.216-8.9,30.389l-18.854.981c-3.117.9-2.341,7.214-1.481,9.246" transform="translate(83.069 9.704)" fill="#fff"/>
            <g id="Grupo_841645" data-name="Grupo 841645" transform="translate(214.726 42.278)" style="mix-blend-mode: multiply;isolation: isolate">
              <g id="Grupo_841644" data-name="Grupo 841644">
                <g id="Grupo_841643" data-name="Grupo 841643" clip-path="url(#clip-path-5)">
                  <path id="Trazado_565614" data-name="Trazado 565614" d="M127.567,50.374a63.8,63.8,0,0,0,10.761.345c2.634-.069,5.252-.189,7.783-.189a4.838,4.838,0,0,0,1.86-1.256l-5.028-24.158c-1.722,6.9-1.567,15.067-1.946,20.059a3.628,3.628,0,0,1-2.617,3.185,58.522,58.522,0,0,1-10.813,2.013" transform="translate(-127.567 -25.117)" fill="#d1e1eb"/>
                </g>
              </g>
            </g>
            <path id="Trazado_565615" data-name="Trazado 565615" d="M129.754,44.159a4.433,4.433,0,0,0-2.5-1.017l-4.9-.852a4.738,4.738,0,0,1-3.473-1.9l-.367-.495a2.924,2.924,0,0,1-2.038-1.757l-.7-1.752-1.4-2.458L112.195,29.3c-.492-1.264.429-1.321,1.262-.7l3.3,3.159,1.9,1.333,4.178-.279V31.473l-2.352-1.9-1.439-.855c-1.229-.83-.668-1.744.572-1.458l3.218,1.119,4.318,3.3,2.668,5.336,1.613.4c1.594,1.146.618,7.443-1.675,6.743" transform="translate(76.563 18.592)" fill="#ffb294"/>
            <path id="Trazado_565616" data-name="Trazado 565616" d="M173.175,108.1c1.106,1.454,1.1,4.821.842,8.627-1.03,3.845-4.673,3.547-7.782,4.033-6,.938-8.987,5.45-16.97,5.439-4.748-.008-7.915-1.025-8.909-4.033-.148-1.385.663-2.793,2.343-4.22,0,0,10.877-4.875,11.158-5.063s5.159-3.75,5.253-4.126,1.875-8.721,1.875-8.721h11.72Z" transform="translate(95.885 68.346)"/>
            <path id="Trazado_565617" data-name="Trazado 565617" d="M171.095,118.142c1.081,3.461,1.3,4.467.843,7.033a37.894,37.894,0,0,0-1.594,3.845c-.663,2.318-.562,6.189-4.011,8.505-4.11,3.247-12.055,3.4-14.555-.066a18.184,18.184,0,0,1,3.2-8.433l4.035-7.5-.258-7.028,11.587-2.545Z" transform="translate(103.702 76.491)"/>
            <path id="Trazado_565618" data-name="Trazado 565618" d="M161.3,51.59V98.6c3.777,13.628,11.061,26.422,12.219,40.043,0,5.735-11.621,6.994-14.558,3.306-1.153-10.544-10.069-24.855-15.481-41.505-3.584-16.8-6.553-34.21-5.553-48.237Z" transform="translate(94.104 35.249)" fill="#175279"/>
            <path id="Trazado_565619" data-name="Trazado 565619" d="M138.056,52.668c-.332,4.791,6.218,17.383,13.708,23.06.332,10.207,1.655,27.9,3.378,39.435,5.418,16.652,10.347,32.606,11.5,43.145,1.951,2.456,7.785,3.414,11.443,2.055a4.225,4.225,0,0,0,.732-.313c.069-.035.157-.088.244-.123a3.759,3.759,0,0,0,2.143-3.378c-.088-13.4-2.543-26.929-6.322-40.566l1.131-60.511.035-1.69Z" transform="translate(94.318 35.985)" fill="#2a7aad"/>
            <path id="Trazado_565620" data-name="Trazado 565620" d="M182.991,29.108l-2.042,26.75L179.815,70.7a29.741,29.741,0,0,0-1.475,6.277c-.291,2.042-.567,4.375-1.365,7.98A5.941,5.941,0,0,1,175.5,85.97a.675.675,0,0,1-.138.077,47.574,47.574,0,0,1-5.449,2.378c-1.044.306-2.118.567-3.178.813-8.256,1.044-20.473-3.377-27.686-8.457-.183-.72-.353-1.412-.492-2.055a37.837,37.837,0,0,1-.69-4.144c-.4-3.607-.153-6.645-.015-11.587.2-7.366-1.259-33.165-1.259-33.165.968-7.506,2.4-13.077,8.672-17.528l7.336-.353,8.9-.429a103.578,103.578,0,0,1,16.407,12.493c1.766,1.626,3.454,3.331,5.08,5.1" transform="translate(93.329 7.871)" fill="#2a7aad"/>
            <path id="Trazado_565621" data-name="Trazado 565621" d="M176.621,24.013c-5.5.153-16.159,2.367-14.027,23.236C150.516,46.865,139.48,37,139.48,37c-4.159-14.228,5.664-21.81,11.833-25.048l8.9-.429a103.68,103.68,0,0,1,16.407,12.493" transform="translate(94.619 7.871)" fill="#fff"/>
            <g id="Grupo_841648" data-name="Grupo 841648" transform="translate(231.199 54.352)" opacity="0.3" style="mix-blend-mode: multiply;isolation: isolate">
              <g id="Grupo_841647" data-name="Grupo 841647">
                <g id="Grupo_841646" data-name="Grupo 841646" clip-path="url(#clip-path-6)">
                  <path id="Trazado_565622" data-name="Trazado 565622" d="M181.676,170.478a3.774,3.774,0,0,1-2.148,3.377,1.118,1.118,0,0,0-.246.123c-.338.138-.584.246-.722.306-1.488-17.22-3.008-34.409-10.145-43.094,1.214-13.737,3.116-27.181,3.116-39.06A64.177,64.177,0,0,0,169.4,74.235c.138-3.038,2.178-8.61,1.734-11.264-.231-1.55-8.441.705-16.575-.645C148,65,141.7,65.548,138.043,64.534a37.743,37.743,0,0,1-.69-4.142c4.174-2.119,12.661-5.832,18.2-9.884,5.309-3.9,16.974-8.15,16.683-9.177a48.283,48.283,0,0,0-3.208-9.041l11.4,9.377L179.3,56.509a29.743,29.743,0,0,0-1.475,6.277c-.291,2.042-.567,4.375-1.365,7.98L175.352,129.9c3.776,13.643,6.231,27.179,6.324,40.578" transform="translate(-137.353 -32.29)" fill="#25435c"/>
                </g>
              </g>
            </g>
            <path id="Trazado_565623" data-name="Trazado 565623" d="M175.44,22.7a162.032,162.032,0,0,1,10.268,25.6A11.315,11.315,0,0,1,179,62.263c-7.92,3.008-16.917,3.8-27.7,4.9-2.922-.727-4.88-6.211-2.776-8.874l19.4-7.479-4.895-9.482c-6.59-10.914,5.287-25.594,12.411-18.627" transform="translate(100.878 14.276)" fill="#fff"/>
            <path id="Trazado_565624" data-name="Trazado 565624" d="M160.093,50.768c2.2-.441.858-7.684-1.321-7.462l-2.466.781a62.816,62.816,0,0,0-7.327-1.985l-5.962,1.581L139.945,45.3l-1.384.419c-1.8.273-1.613,1.808.077,2.193l2.629-.15,3.594-1.363,1.576.744-6.031,4.609-5.684-.384c-2.011.019-2,1.5-.636,1.917l2.326.7,1.306,1.3,1.382.922,1.777.768a26.244,26.244,0,0,0,7.709-1.229l6.183-3.611Z" transform="translate(90.959 28.767)" fill="#ffb294"/>
            <path id="Trazado_565625" data-name="Trazado 565625" d="M147.28,29c.707.63.931.879,1.705.946,8.238.705,12.193-9.822,9.234-14.957a40.882,40.882,0,0,1-3.015-6.171l-11.677,8.261a5.909,5.909,0,0,0,.311,2.978c1.013,2.959,1.328,7.061,3.441,8.943" transform="translate(98.019 6.024)" fill="#ffb294"/>
            <g id="Grupo_841651" data-name="Grupo 841651" transform="translate(242.478 20.795)" opacity="0.5" style="mix-blend-mode: multiply;isolation: isolate">
              <g id="Grupo_841650" data-name="Grupo 841650">
                <g id="Grupo_841649" data-name="Grupo 841649" clip-path="url(#clip-path-7)">
                  <path id="Trazado_565626" data-name="Trazado 565626" d="M147.76,27.3c3.8.865,9.09-2.649,6.519-14.944l-10.224,5.317c1.012,2.959.555,7.879,3.7,9.626" transform="translate(-144.053 -12.354)" fill="#ffb294"/>
                </g>
              </g>
            </g>
            <path id="Trazado_565627" data-name="Trazado 565627" d="M158.645,17.427s.794,6.146-.762,9.546a16.231,16.231,0,0,1-6.56,6.846c-1.49.675-2.737,1.012-4.179.242s-6.225-11.18-6.225-11.18c-1.586-4.127-2-5.395-2.414-7.876-.6-3.658-1.094-12.091,9.266-14.6a10.18,10.18,0,0,1,11.544,5.03c1.793,3.126,1.451,10.074,1.451,10.074Z" transform="translate(94.45 0.055)" fill="#ffb294"/>
            <path id="Trazado_565628" data-name="Trazado 565628" d="M161.76,16.207l-3.691,4.323-1.448-2.654a2.443,2.443,0,0,0-3.341-1.35,18.948,18.948,0,0,1-9.588,1.953c-3.735-.31-5.1-2.195-5.1-2.195-3.956-5.44,2.195-13.254,8.293-15.413,7.406-2.622,12.289,1.123,14,5.45,1.555,3.932.875,9.887.875,9.887" transform="translate(93.837 0)"/>
            <path id="Trazado_565629" data-name="Trazado 565629" d="M150.765,7.9a1.728,1.728,0,0,1,2.089-.475,1.657,1.657,0,0,1,.7,1.062,4.308,4.308,0,0,1,.039,1.3,20.917,20.917,0,0,1-.306,2.245,2.408,2.408,0,0,1-.8,1.609c-.517.36-1.049,1.022-1.552.645a5.052,5.052,0,0,1-1.113-2.362,5,5,0,0,1,.943-4.025" transform="translate(102.309 4.945)" fill="#ffb294"/>
            <path id="Trazado_565630" data-name="Trazado 565630" d="M106.4,80.164a20.6,20.6,0,0,0-9.14,2.256c-11.328,5.354-22.236,20.707-49.393,14.839a46.6,46.6,0,0,1-10.1-3.686A45.424,45.424,0,0,1,28.9,87.559l1.04-1.21a43.67,43.67,0,0,0,8.7,5.455,46.068,46.068,0,0,0,22.458,3.89c18.822-2.153,23.163-11.266,34.291-17.036a24.945,24.945,0,0,1,11.02-3.072Z" transform="translate(19.744 51.644)" fill="#8c6239"/>
            <path id="Trazado_565631" data-name="Trazado 565631" d="M195.642,166.921c-2.146,3.417-8.107,6.516-9.64,6.75s-9.825-3.03-15.154-5.378c-8.253-3.634-17.753-2.419-24.929-3-1.116-.086-2.153-.136-3.114-.16-5.947-.16-8.928.608-10.01-1.626-2.713-5.58,2.244-14.742,11.224-12.362l.532.155c-2.582-1.025-7.755-5.62-9.324-9.335s9.421-15.819,9.662-16.208l28.4,7.869a9.493,9.493,0,0,1,5.188,5.3c1.545,4.006,22.141,20.071,17.167,27.992" transform="translate(90.225 85.924)" fill="#8c6239"/>
            <path id="Trazado_565632" data-name="Trazado 565632" d="M252.757,176.515l-21.145,13.107-1.582,6.945a19.623,19.623,0,0,1-7.743,11.623l-10.307,7.351a41.7,41.7,0,0,1-34.21-2.03l-27.627-17.364a43.3,43.3,0,0,1-10.6-7.814l-17.6-14.016L104.27,156.673l-11.8-8.977-1.751-1.33-1.192-.9-19.813-15.04-.153-1.106-3.488-24-.826-5.671L70.312,84.7A9.766,9.766,0,0,1,73.2,80.44a9.111,9.111,0,0,1,2.17-1.456l18.974-8.99a9.952,9.952,0,0,1,5.546-.826l21.493,3.038a13.684,13.684,0,0,1,5.6,2.1l14.732,9.648L172.6,97.076l18.763,7.967a13.926,13.926,0,0,1,4.412,2.983l7.155,7.129,11.439,11.37,17.28-.5,1.666-.042,6.329-.153a7.663,7.663,0,0,1,7.842,6.763l.658,5.518,3.151,26.437.406,3.151Z" transform="translate(44.576 47.193)" fill="#8c6239"/>
            <path id="Trazado_565633" data-name="Trazado 565633" d="M87.341,93.985c-2.523,5.051-4.265,11.421-1.094,16.092,3.388,4.991,10.551,5.467,15.451,8.985,3.942,2.83,6.364,7.613,10.739,9.716,5.932,2.85,12.968-.3,18.349-4.085,4.769-3.355,9.542-8.12,9.249-13.942-.219-4.277-3.22-7.958-6.706-10.446-9.371-6.682-22.931-7.181-30.1-16.186-2.328-2.925-6.895-10.778-10.431-5.8-.934,1.315-.675,5.216-1.209,6.89-.981,3.069-2.818,5.91-4.249,8.78" transform="translate(57.757 52.407)" fill="#603813"/>
            <path id="Trazado_565634" data-name="Trazado 565634" d="M159.843,103.787a41.01,41.01,0,0,1-2.7,5.447c-1.4,2.464-3.43,5.279-6.258,5.028-1.89-.183-3.361-1.766-4.272-3.446-.9-1.68-1.441-3.557-2.562-5.11-3.375-4.691-10.754-5-14.116-9.7a9.952,9.952,0,0,1-.867-9.3,9.155,9.155,0,0,1,.448-.995l18.763,7.968a13.852,13.852,0,0,1,4.412,2.983Z" transform="translate(87.668 58.56)" fill="#603813"/>
            <path id="Trazado_565635" data-name="Trazado 565635" d="M117.017,123.955c-.833,4.05,1.488,8.633,5.386,10.01a2.655,2.655,0,0,0,1.633.152c1.123-.343,1.481-1.725,1.658-2.885.409-2.681,3.826-14.311.968-15.849-3.434-1.85-9.108,5.959-9.645,8.573" transform="translate(79.836 78.642)" fill="#603813"/>
            <path id="Trazado_565636" data-name="Trazado 565636" d="M130.041,151a17.009,17.009,0,0,0,10.788,15.158c6.194,2.227,13.823-.067,17.467-5.551s2.646-13.67-2.434-17.858c-2.41-1.99-5.61-3.168-7.26-5.824-2.969-4.779-2.9-14.663-9.113-6.922-4.713,5.873-9.724,13.136-9.448,21" transform="translate(88.843 86.869)" fill="#603813"/>
            <path id="Trazado_565637" data-name="Trazado 565637" d="M204.739,139.517,190.4,148.423l-6.783,4.211-1.481,6.491c-.035.143-.069.286-.109.429-.057.252-.086.377-.126.5a20.887,20.887,0,0,1-7.788,11.274c-.069.052-.138.1-.212.155l-7.32,5.22-2.609,1.86c-.6.229-1.2.441-1.809.641-.205.069-.412.136-.623.2l-.555.172c-.441.131-.882.251-1.328.365-.692.183-1.4.35-2.1.493q-1.853.376-3.725.594a41.644,41.644,0,0,1-12.643-.5L135.5,179l11.2-3.555c8.637-3.148,15.338-10.535,16.735-19.618a17.35,17.35,0,0,1,7.709-11.927l9.226-5.982,10.749-14.067.5-.653,11.687,4.349.379,3.154Z" transform="translate(92.582 84.176)" fill="#dbb78c"/>
            <g id="Grupo_841654" data-name="Grupo 841654" transform="translate(228.098 263.181)" opacity="0.5" style="mix-blend-mode: multiply;isolation: isolate">
              <g id="Grupo_841653" data-name="Grupo 841653">
                <g id="Grupo_841652" data-name="Grupo 841652" clip-path="url(#clip-path-8)">
                  <path id="Trazado_565638" data-name="Trazado 565638" d="M153.831,158.376a41.643,41.643,0,0,1-12.643-.5l-5.678-1.52a41.712,41.712,0,0,0,18.32,2.023" transform="translate(-135.511 -156.354)" fill="#a67c52"/>
                </g>
              </g>
            </g>
            <g id="Grupo_841657" data-name="Grupo 841657" transform="translate(134.134 178.348)" opacity="0.5" style="mix-blend-mode: multiply;isolation: isolate">
              <g id="Grupo_841656" data-name="Grupo 841656">
                <g id="Grupo_841655" data-name="Grupo 841655" clip-path="url(#clip-path-9)">
                  <path id="Trazado_565639" data-name="Trazado 565639" d="M182.777,127.959a34.474,34.474,0,0,0,4.434,2.794c3.486,1.946,12.838,4.476,14.138,4.723,3.308.623,6.753,1.946,8.608,4.76a11.077,11.077,0,0,1-6.44,10.737,11.166,11.166,0,0,0-6,6.805l-.916,2.907A19.018,19.018,0,0,1,180.858,173.9l-13.027-3.794c-22.434-11.584-34.779-16.294-48.738-29.378-7.023-6.576-16.792-11.539-24.175-22.453-1.833-2.73-3.715-5.614-5.639-8.728l-9.591,10.719,2.907,2.232L94.4,131.469l17.674,17.651,17.593,14.023a43.774,43.774,0,0,0,10.6,7.807l27.639,17.358a40.962,40.962,0,0,0,5.735,2.478l11.194-3.553c8.637-3.148,15.339-10.537,16.735-19.62a17.363,17.363,0,0,1,7.709-11.927l9.226-5.981,10.749-14.067-8.248-4.5a29.065,29.065,0,0,0,5.169-2.146c6.129-3.267,11.029-9.26,12.1-16.082a13.966,13.966,0,0,0,.178-1.459,16.972,16.972,0,0,0-.515-5.5Z" transform="translate(-79.687 -105.955)" fill="#a67c52"/>
                </g>
              </g>
            </g>
            <g id="Grupo_841660" data-name="Grupo 841660" transform="translate(115.222 116.256)" opacity="0.25" style="mix-blend-mode: overlay;isolation: isolate">
              <g id="Grupo_841659" data-name="Grupo 841659">
                <g id="Grupo_841658" data-name="Grupo 841658" clip-path="url(#clip-path-10)">
                  <path id="Trazado_565640" data-name="Trazado 565640" d="M229.457,126.04a8.72,8.72,0,0,1-2.572,4.531,23.052,23.052,0,0,1-6.669,4q-10.847,4.916-21.705,9.844c-2.56,1.163-5.312,2.355-8.09,1.907-4.351-.705-6.987-5.018-9.854-8.371-6.925-8.14-17.548-12.018-27.863-14.834s-21.079-4.977-30.026-10.815c-7.193-4.71-12.811-11.544-20-16.279S85.41,89.1,78.549,94.313c-2.419,1.843-5.233,4.646-7.921,3.239-1.894-1-2.252-3.547-2.163-5.7A33.152,33.152,0,0,1,71,80.439a9.28,9.28,0,0,1,2.188-1.446l18.968-8.985a9.713,9.713,0,0,1,5.541-.845l21.488,3.047a13.851,13.851,0,0,1,5.607,2.111l14.73,9.638,49.659,21.091a14.191,14.191,0,0,1,4.415,2.969l18.583,18.494Z" transform="translate(-68.453 -69.067)" fill="#fff"/>
                </g>
              </g>
            </g>
            <path id="Trazado_565641" data-name="Trazado 565641" d="M179.731,99.65c2.2-2.575,4.587-5.277,7.841-6.208,4.218-1.209,8.6.875,12.5,2.9,1.37.714,2.865,1.57,3.323,3.047.621,2.01-.976,3.966-2.451,5.467-2.055,2.092-4.2,4.243-6.928,5.316-2.713,1.067-5.728.956-8.642.83-2.19-.094-12.062.8-12.781-1.512-.793-2.542,5.794-8.26,7.142-9.84" transform="translate(117.875 63.6)" fill="#603813"/>
            <path id="Trazado_565642" data-name="Trazado 565642" d="M180.323,101.562c1.751-2.086,3.577-4.233,6.033-5.408a9.736,9.736,0,0,1,8.389.054c1.49.737,2.905,2.187,2.639,3.824a4.993,4.993,0,0,1-2.011,2.744,18.458,18.458,0,0,1-5.834,3.8,18.433,18.433,0,0,1-6.2.591c-1.2-.02-6.1.545-6.575-.586s2.838-4.289,3.562-5.016" transform="translate(120.739 65.066)" fill="#1a1a1a"/>
            <path id="Trazado_565643" data-name="Trazado 565643" d="M172.821,106.392s8.2-6.464,7.056-15.163c0,0-.52-2.316,1.434,0s3.949,8.972,2.141,15.589c-.9,2.58-11.458,1.7-10.631-.426" transform="translate(118.047 61.628)" fill="#ffdbab"/>
            <path id="Trazado_565644" data-name="Trazado 565644" d="M218.685,168.048a19.308,19.308,0,0,1-10.379,3.186h-.283a9.771,9.771,0,0,1-8.574-4.44l-3.2-7.615-16.381-2.227a20.435,20.435,0,0,1-15.538-11.123L157.214,131.6l-2.112-16.42,20.643-14.026a7.63,7.63,0,0,1,4.314-1.331H193.01a7.648,7.648,0,0,1,5.747,2.585l4.748,5.336a7.7,7.7,0,0,1,1.843,3.892l1.357,8.447,11.941,20.273,2.841,2.841,2.919,2.919c.242.55.473,1.074.715,1.587,4.456,9.918,6.386,12.106-6.437,20.349" transform="translate(105.973 68.201)" fill="#603813"/>
            <path id="Trazado_565645" data-name="Trazado 565645" d="M155.928,109.37c-2.6.227-5.275.48-7.561,1.732-3.166,1.735-5.046,5.083-6.762,8.261-1.081,2-2.183,4.37-1.278,6.457.919,2.107,3.439,2.9,5.667,3.464a51.286,51.286,0,0,0,10.5,1.872,17.192,17.192,0,0,0,10.2-2.506c2.846-1.9,4.809-4.854,6.462-7.854a16.261,16.261,0,0,0,2.4-6.967c.173-3.845-1.636-5.952-5.247-5.718-4.8.31-9.6.84-14.387,1.259" transform="translate(95.65 73.854)" fill="#603813"/>
            <path id="Trazado_565646" data-name="Trazado 565646" d="M154.676,126.413c3.474.268,7.339-.061,9.8-2.523,2.527-2.528,2.794-6.469,2.909-10.039a2.711,2.711,0,0,0-.471-2,2.575,2.575,0,0,0-1.687-.6,28.436,28.436,0,0,0-15.853,3.3c-3.292,1.761-11.645,6.713-5.166,9.6a32.348,32.348,0,0,0,10.466,2.262" transform="translate(96.893 75.94)" fill="#1a1a1a"/>
            <path id="Trazado_565647" data-name="Trazado 565647" d="M206.926,164.027a19.308,19.308,0,0,1-10.379,3.186h-.283a9.771,9.771,0,0,1-8.574-4.44l-3.2-7.615c2.188-1.9,5.12-2.318,6.489-4.915,2.764-5.311.948-11.5-1.574-16.5a99.347,99.347,0,0,0-9.266-14.1c-.244-.32-.486-.651-.731-.985-1.3-1.754-6.617-2.535-7.076-4.673s6.489-6.948,8.421-7.974c2.266-1.215,2.917,1.421,4.365,3.533s1.894,4.735,2.585,7.206a33.509,33.509,0,0,0,11.146,16.932c4.351,3.506,5.874,4.89,8.9,5.952a2.532,2.532,0,0,0,1.983-.461l2.919,2.919c.242.55.473,1.074.715,1.587.372.831.731,1.6,1.05,2.328.448.986.857,1.9,1.19,2.727,2.407,5.964,1.626,8.677-8.677,15.294" transform="translate(117.731 72.221)" fill="#dbb78c"/>
            <path id="Trazado_565648" data-name="Trazado 565648" d="M186.745,137.144a1.2,1.2,0,0,0-1.638,1.754,2.456,2.456,0,0,0,1.949.429l6.583-.448c.345-.024.751-.084.909-.39.281-.547-.493-1.017-1.1-1.135a27.764,27.764,0,0,0-7-.448Z" transform="translate(126.248 93.503)" fill="#1a1a1a"/>
            <path id="Trazado_565649" data-name="Trazado 565649" d="M199.269,132.374a.7.7,0,0,1-.025.167,14.47,14.47,0,0,1-1.537,3.75c-.256.486-.793,1.062-1.241.742-.281-.205-.269-.628-.217-.973.229-1.51.5-5.068,1.6-6.208a1.687,1.687,0,0,1,.231-.205c.448.986.857,1.9,1.19,2.727" transform="translate(134.066 88.581)" fill="#1a1a1a"/>
            <path id="Trazado_565650" data-name="Trazado 565650" d="M169.9,120.6a2.612,2.612,0,0,0,1.321,1.916,3.5,3.5,0,0,0,2.341.352,2.514,2.514,0,0,0,1.907-1.3,2.332,2.332,0,0,0-1.062-2.745c-1.663-1.044-4.811-.874-4.508,1.779" transform="translate(116.067 80.774)"/>
            <path id="Trazado_565651" data-name="Trazado 565651" d="M184.778,111.606a2.226,2.226,0,0,0,.118,2.092,1.364,1.364,0,0,0,1.907.35,2.113,2.113,0,0,0,.507-1.666,4.167,4.167,0,0,0-.217-1.513c-.709-1.788-1.85-.4-2.314.737" transform="translate(126.11 75.165)"/>
            <path id="Trazado_565652" data-name="Trazado 565652" d="M116,120.216a2.918,2.918,0,0,1-.113.322,5.519,5.519,0,0,1-1.427,2.1c-.168.168-.337.322-.518.476-1.569,1.274-3.011,2.409-4.341,3.417-6.455,4.831-10.488,6.582-14.143,6.526-3.669-.057-6.932-1.932-11.86-4.314-.226-.111-.448-.209-.687-.321.882.587,16.243,15.124,20.822,23.581.126.21.226.421.323.616,4.2,8.458-1.6,9.369-1.6,9.369-11.9,1.666-12.616-3.417-12.756-5.307-.042-.574-.084-1.316-.126-2.156a52.028,52.028,0,0,0-.658-6.147c-.532-2.787-3.417-4.594-9.844-7.8-6.442-3.22-14.648-8.5-20.095-15.516s-.813-5.363,5.194-7.59c4.2-1.554,5.881-4.186,6.4-8.122a34.023,34.023,0,0,0,.14-5.839c-.126-3.136-.069-6.595.056-9.507.155-3.851.407-6.763.407-6.763S119.653,107.922,116,120.216" transform="translate(38.644 59.606)" fill="#8c6239"/>
            <path id="Trazado_565653" data-name="Trazado 565653" d="M89.055,135.695c-11.9,1.671-12.619-3.417-12.751-5.294-.04-.579-.081-1.328-.133-2.163.121-.67.2-1.082.2-1.082s6.176,3.72,10.754,1.619a5.98,5.98,0,0,0,3.212-3.062c.114.212.217.417.32.618,4.2,8.453-1.6,9.364-1.6,9.364" transform="translate(52.043 85.893)"/>
            <path id="Trazado_565654" data-name="Trazado 565654" d="M181.432,177.5c-2.143,3.417-7.071,8.038-8.611,8.277s-10.475-.6-15.8-2.956c-8.261-3.626-18.134-6.371-25.318-6.945-1.106-.1-2.143-.14-3.109-.168-.658-.014-1.288-.029-1.877-.029-4.718,0-7.182.379-8.135-1.6-2.717-5.573,2.24-14.745,11.231-12.365.252.071.421.126.49.141-2.6-1.05-7.729-5.615-9.283-9.313-1.582-3.723,9.423-15.822,9.662-16.215l8.457,2.338,19.941,5.531s-2.437,5.868-.9,9.872c.365.966,2.185,2.353,4.649,4.02,7.842,5.279,22.377,13.373,18.6,19.408" transform="translate(80.516 93.147)" fill="#8c6239"/>
            <path id="Trazado_565655" data-name="Trazado 565655" d="M154.507,157.142a15.591,15.591,0,0,1-13.681,1.793,17.009,17.009,0,0,1-10.781-15.153,20.088,20.088,0,0,1,.769-6.063l19.941,5.531s-2.437,5.868-.9,9.872c.364.966,2.185,2.353,4.649,4.02" transform="translate(88.845 94.096)" fill="#603813"/>
            <path id="Trazado_565656" data-name="Trazado 565656" d="M128.592,165.56c-5.94-.16-8.923.606-10.005-1.626-2.712-5.58,2.244-14.742,11.224-12.362l.532.155,4.082,1.974s-9.254,2.139-8.968,7.989a5.1,5.1,0,0,0,3.136,3.87" transform="translate(80.518 103.297)"/>
            <path id="Trazado_565657" data-name="Trazado 565657" d="M151.133,102.394s-1.034,9.285,12.7,12.028c9.2,1.246,9.233-8.026,5-8.482,0,0-12.119,3.476-17.7-3.547" transform="translate(103.249 69.96)" fill="#ffdbab"/>
            <g id="Grupo_841663" data-name="Grupo 841663" transform="translate(119.431 179.687)" opacity="0.5" style="mix-blend-mode: multiply;isolation: isolate">
              <g id="Grupo_841662" data-name="Grupo 841662">
                <g id="Grupo_841661" data-name="Grupo 841661" clip-path="url(#clip-path-11)">
                  <path id="Trazado_565658" data-name="Trazado 565658" d="M106.362,106.75c-.1.155-.2.3-.3.453-.486.737-.961,1.436-1.431,2.106-.172.165-.343.32-.527.47-1.562,1.276-3,2.409-4.338,3.417-12.917,9.684-16.146,6.992-26,2.22a10.294,10.294,0,0,1-2.811-3.462c9.032,3.737,17.645,7.376,35.215-5.065.064-.047.133-.093.2-.138" transform="translate(-70.953 -106.75)" fill="#a67c52"/>
                </g>
              </g>
            </g>
            <g id="Grupo_841666" data-name="Grupo 841666" transform="translate(214.94 256.997)" opacity="0.5" style="mix-blend-mode: multiply;isolation: isolate">
              <g id="Grupo_841665" data-name="Grupo 841665">
                <g id="Grupo_841664" data-name="Grupo 841664" clip-path="url(#clip-path-12)">
                  <path id="Trazado_565659" data-name="Trazado 565659" d="M127.694,152.68s23.464,6.935,30.14,11.864l4.961-3.392Z" transform="translate(-127.694 -152.679)" fill="#a67c52"/>
                </g>
              </g>
            </g>
            <path id="Trazado_565660" data-name="Trazado 565660" d="M84.2,97.7c.013,2.941-3.038,4.775-4.971,7a31.631,31.631,0,0,0-3.235,5.279,10.592,10.592,0,0,1-4.159,4.494,5.088,5.088,0,0,1-2.03.532,4.153,4.153,0,0,1-3.627-1.469,7.023,7.023,0,0,1-1.022-3.738c-.042-.631-.14-1.429-.266-2.353a34.03,34.03,0,0,0,.14-5.839c-.126-3.136-.069-6.595.056-9.509A3.855,3.855,0,0,1,66.314,91c3.6-2.24,10.446-.14,13.6,1.443,2.129,1.065,4.272,2.872,4.286,5.252" transform="translate(44.332 61.511)" fill="#603813"/>
            <path id="Trazado_565661" data-name="Trazado 565661" d="M28.389,88.325a12.508,12.508,0,0,1-5.006-6.235,37.281,37.281,0,0,1-1.922-7.9,90.165,90.165,0,0,1,10.078,6.258,14.413,14.413,0,0,1,3.831,3.6c3.612,5.508-3.262,6.447-6.98,4.274" transform="translate(14.663 50.693)" fill="#603813"/>
            <path id="Trazado_565662" data-name="Trazado 565662" d="M57.4,131.932a1.313,1.313,0,0,1-.658-2.451l17.077-9.859A1.314,1.314,0,0,1,75.13,121.9l-17.078,9.859a1.3,1.3,0,0,1-.655.175" transform="translate(38.318 81.611)" fill="#5e3930"/>
            <path id="Trazado_565663" data-name="Trazado 565663" d="M82.624,131.932a1.306,1.306,0,0,1-.656-.175L64.893,121.9a1.314,1.314,0,1,1,1.313-2.276l17.077,9.859a1.313,1.313,0,0,1-.658,2.451" transform="translate(43.888 81.611)" fill="#5e3930"/>
            <path id="Trazado_565664" data-name="Trazado 565664" d="M62.3,114.282l-6.521-.146L53.731,158.59a1.152,1.152,0,0,0,.683.988,3.644,3.644,0,0,0,3.3,0,1.183,1.183,0,0,0,.672-.884c.008,0,3.908-44.412,3.908-44.412" transform="translate(36.711 77.983)" fill="#855044"/>
            <path id="Trazado_565665" data-name="Trazado 565665" d="M73.284,114.282l6.519-.146,2.043,44.454a1.152,1.152,0,0,1-.683.988,3.644,3.644,0,0,1-3.3,0,1.183,1.183,0,0,1-.672-.884c-.008,0-3.907-44.412-3.907-44.412" transform="translate(50.071 77.983)" fill="#855044"/>
            <path id="Trazado_565666" data-name="Trazado 565666" d="M72.512,138.285a1.306,1.306,0,0,1-.656-.175l-15.117-8.729a1.314,1.314,0,1,1,1.315-2.276l15.117,8.729a1.313,1.313,0,0,1-.658,2.451" transform="translate(38.318 86.724)" fill="#5e3930"/>
            <path id="Trazado_565667" data-name="Trazado 565667" d="M66.547,138.449A1.313,1.313,0,0,1,65.889,136l15.4-8.891a1.314,1.314,0,1,1,1.313,2.276l-15.4,8.891a1.313,1.313,0,0,1-.655.175" transform="translate(44.569 86.724)" fill="#5e3930"/>
            <path id="Trazado_565668" data-name="Trazado 565668" d="M70.6,119.446H64.073l.917,46.139a1.169,1.169,0,0,0,.682.938,3.655,3.655,0,0,0,3.3,0,1.166,1.166,0,0,0,.68-.938l.946-46.139" transform="translate(43.778 81.611)" fill="#855044"/>
            <path id="Trazado_565669" data-name="Trazado 565669" d="M91.812,116.564a17,17,0,0,0-3.385-2.5c-7.864-4.541-20.616-4.541-28.481,0a17,17,0,0,0-3.385,2.5H54.048v5.063c0,2.646,1.966,5.294,5.9,7.564,7.864,4.541,20.616,4.541,28.481,0,3.932-2.271,5.9-4.918,5.9-7.564v-5.063Z" transform="translate(36.928 75.605)" fill="#5e3930"/>
            <path id="Trazado_565670" data-name="Trazado 565670" d="M59.946,110.664c-7.864,4.541-7.864,11.9,0,16.444s20.616,4.54,28.481,0,7.864-11.9,0-16.444-20.616-4.541-28.481,0" transform="translate(36.928 73.283)" fill="#cc8b7c"/>
            <path id="Trazado_565671" data-name="Trazado 565671" d="M63.834,100.175c-3.424,7.6-2.875,14.978-.672,22.261,9.7,7.862,22.194,13.484,37.785,16.873-6.746,10.919-1.756,18.435-2,31.477A14.17,14.17,0,0,0,98,177.754a16.324,16.324,0,0,0,5.27,7.9c3.308,2.41,6.553,4.334,9.4,3.239l6.019-3.424-7.871-6.706c-2.277-2.91-4.95-4.787-4.543-7.787.653-8.285,4.927-19.165,6.916-29.5a14.576,14.576,0,0,0-4.041-13.7l-29.019-24.2Z" transform="translate(41.943 68.444)" fill="#f29b79"/>
            <path id="Trazado_565672" data-name="Trazado 565672" d="M84.793,142.372c-2.259,3.245-2.4,7.94-1.464,11.1,1.72,2.513,4.19,3.414,7,7.095l2.565,2.4c4.979,3,10.51,3.178,13.363,1.424,1.732-2.759.717-7.718-5.942-10.987,4.3,3.478.332,5.981-3.749,6.139-2.767-.327-4.826-3.18-8.108-7.031-3.052-4.058-4.568-6.895-3.664-10.14" transform="translate(56.562 97.275)"/>
            <path id="Trazado_565673" data-name="Trazado 565673" d="M54.3,102.193c-2.727,7.645-1.454,15.161,1.483,22.621,10.581,8.234,24.52,14.437,40.625,18.263-5.765,10.941.446,18.543,1.466,31.8-.835,2.875-1.855,4.636-1.466,7.046a19.536,19.536,0,0,0,6.1,8.159c3.58,2.533,7.051,4.568,9.827,3.523l6.29-3.641-8.7-6.743c-2.587-3.015-4.572-6.415-4.451-9.456-.143-8.41,1.772-17.906,2.781-28.368.545-5.646-1.118-9.948-5.654-13.352l-34.21-26.329Z" transform="translate(36.069 69.823)" fill="#ffb294"/>
            <path id="Trazado_565674" data-name="Trazado 565674" d="M80.388,145.374c-2.259,3.245-2.4,7.94-1.464,11.1,1.72,2.513,4.19,3.414,7,7.095l2.565,2.4c4.979,3,13.037,1.648,15.888-.106,1.734-2.759-1.808-6.188-8.467-9.456,4.3,3.478.332,5.981-3.749,6.139-2.767-.327-4.826-3.18-8.11-7.031-3.05-4.058-4.567-6.895-3.663-10.14" transform="translate(53.551 99.326)"/>
            <path id="Trazado_565675" data-name="Trazado 565675" d="M83.1,76.07c7.107,10.705,10.8,16.647,14.1,22.369l2.463,1.429A24.968,24.968,0,0,0,93.4,108.25l-.332-.1c-1.73-.5-3.1-2.06-4.206-3.481-4.7-6.011-8.63-11.938-15.9-22.732C66.634,71.49,78,68.428,83.1,76.07" transform="translate(48.572 49.066)" fill="#fff"/>
            <path id="Trazado_565676" data-name="Trazado 565676" d="M55.541,146.7c4.2,5.553,12.815,9.812,22.059,12.712a108.706,108.706,0,0,0,16.949,3.8c.093.01.2.032.288.042-.051-.155-.082-.31-.123-.463a7.121,7.121,0,0,1,2.973-7.117,10.592,10.592,0,0,1,6.714-2.335,4.8,4.8,0,0,0,4.011-1.995c2.663-3.683,4.669-6.088,6.294-5.019-8.7-10.583-19.869-15.858-25.557-22.47-.081-.1-.153-.2-.236-.3a15.766,15.766,0,0,1,.628-11.394,9.871,9.871,0,0,0,1.347-.288,9.58,9.58,0,0,0,7.209-7.5c.4-2.212-.853-5.3-2.2-7.847a16.032,16.032,0,0,1-1.687-9.965c.978-6.479.217-12.372-6.962-14.656,0,0-27.171,7.332-30.359,19.448a20.438,20.438,0,0,0-.658,4.895,38.771,38.771,0,0,0,1.008,8.135c.72,3.536,1.4,6.664.391,9.379-1.572,4.237-3.208,9.677-4.072,12.67-.227.72-.4,1.336-.566,1.964-.042.165-.072.268-.072.268C51.377,134.988,51.7,141.6,55.541,146.7" transform="translate(35.566 49.136)" fill="#fff"/>
            <g id="Grupo_841669" data-name="Grupo 841669" transform="translate(87.623 142.904)" style="mix-blend-mode: multiply;isolation: isolate">
              <g id="Grupo_841668" data-name="Grupo 841668">
                <g id="Grupo_841667" data-name="Grupo 841667" clip-path="url(#clip-path-13)">
                  <path id="Trazado_565677" data-name="Trazado 565677" d="M52.928,119.814a1.3,1.3,0,0,1,.062-.278c.163-.628.338-1.244.534-1.872.9-3.085,2.53-8.526,4.1-12.762,1-2.7.333-5.819-.382-9.34a38.9,38.9,0,0,1-1.017-8.174l.217-.606,3.6,4.71L64.625,84.9c7.974,1.948,5.861,22.38,15.112,24.01,8.622,1.624,6.469-8.46,11.146-5.9a9.239,9.239,0,0,1-1.347.29,15.8,15.8,0,0,0-.623,11.414,23.4,23.4,0,0,1-3.7,7.834l7.746,10.315c-5.556.951-12.146,7.464-31.894-11.69-2.022-1.961-2.636,3.193-3.1,5.981a15.157,15.157,0,0,0,.226,5.945c3.611,7.568,10.86,12.074,19.416,17.443-9.254-2.9-17.873-7.159-22.069-12.712-3.846-5.1-4.166-11.714-2.612-18.017" transform="translate(-52.056 -84.898)" fill="#d1e1eb"/>
                </g>
              </g>
            </g>
            <path id="Trazado_565678" data-name="Trazado 565678" d="M75.433,73.925l6.43,6.757V94.524l-1.885,7.857L69.442,84.743l-4.484-8.011,1.693-2.225Z" transform="translate(44.382 50.509)" fill="#ffb294"/>
            <path id="Trazado_565679" data-name="Trazado 565679" d="M69.7,72.795c-3.658,2.611-1.919,8.019,2.079,13.05,3.6,4.535,9.295,14.57,9.716,21.832C78,100.463,71.66,91.439,68.115,88.8l1.143-2.57-2.432.461c-2.234-3.257-3.225-6.618-2.813-9.748Z" transform="translate(43.674 49.737)" fill="#dfecf5"/>
            <path id="Trazado_565680" data-name="Trazado 565680" d="M71.622,72.754,75,72.865l4.04,5.218-1.3,1.19,1.927,1.047c-.084,11.013-1.153,18.655-4.164,24.925l-.628-1.641c1.437-10.126,1.692-26.5-3.257-30.851" transform="translate(48.935 49.709)" fill="#dfecf5"/>
            <g id="Grupo_841672" data-name="Grupo 841672" transform="translate(113.199 125.333)" opacity="0.5" style="mix-blend-mode: multiply;isolation: isolate">
              <g id="Grupo_841671" data-name="Grupo 841671">
                <g id="Grupo_841670" data-name="Grupo 841670" clip-path="url(#clip-path-14)">
                  <path id="Trazado_565681" data-name="Trazado 565681" d="M67.25,74.459s3.893,14.8,8.578,13.92c3.355-.624,2.806-12.892,2.806-12.892Z" transform="translate(-67.25 -74.459)" fill="#ffb294"/>
                </g>
              </g>
            </g>
            <path id="Trazado_565682" data-name="Trazado 565682" d="M87.742,69.174s.342,13.814-7.817,18.357C76.3,89.548,73,85.862,73,85.862c-3.563-3.769-5.991-7.464-5.728-10.987l4.7-8.622Z" transform="translate(45.949 45.268)" fill="#ffb294"/>
            <path id="Trazado_565683" data-name="Trazado 565683" d="M65.555,89.3c3.914,1.377,11.015-3.489,11.177-2.606.138.764-1.067,2.617-1.917,4.171,4.257-.555,12.779-8.061,13.308-15.806,1.173,1.655,1,4.543.345,6.6C92.516,80.3,98.59,61.547,75.888,61.71,58.654,61.835,65.555,89.3,65.555,89.3" transform="translate(43.858 42.163)"/>
            <path id="Trazado_565684" data-name="Trazado 565684" d="M79.278,124.158a4.025,4.025,0,0,1-2.791-.931c-2.276-2.032-1.653-6.93-.929-12.6a55.637,55.637,0,0,0,.692-10.744c-.771-10.133-2.373-11.246-2.389-11.258l.264-.552c.194.082,1.926,1.119,2.735,11.764a55.908,55.908,0,0,1-.693,10.865c-.672,5.272-1.308,10.249.729,12.066.943.84,2.431,1,4.546.478,3.912-.959,8.622-3,13.607-5.163,7.164-3.106,14.572-6.317,20.778-6.866a7.3,7.3,0,0,1,1.2.047c1.868.17,4.422.392,5.1-3.22l.6.113c-.779,4.163-3.893,3.888-5.755,3.72a7.385,7.385,0,0,0-1.091-.049c-6.107.54-13.468,3.732-20.586,6.819-5.013,2.171-9.744,4.223-13.707,5.2a9.881,9.881,0,0,1-2.311.315" transform="translate(50.465 60.175)" fill="#4d4d4d"/>
            <path id="Trazado_565685" data-name="Trazado 565685" d="M103.389,104.177l.808.03a2,2,0,0,0,1.611-.82,3.807,3.807,0,0,0,.247-4.24,1.908,1.908,0,0,0-1.508-.938l-.808-.03Z" transform="translate(70.64 67.081)"/>
            <path id="Trazado_565686" data-name="Trazado 565686" d="M102.954,99a1.824,1.824,0,0,1,3.119.118,3.813,3.813,0,0,1-.246,4.242,1.826,1.826,0,0,1-3.121-.118A3.816,3.816,0,0,1,102.954,99" transform="translate(69.812 67.081)" fill="#999"/>
            <path id="Trazado_565687" data-name="Trazado 565687" d="M102.464,102.906l1.5.057a1.419,1.419,0,0,0,1.14-.579,2.7,2.7,0,0,0,.173-3,1.347,1.347,0,0,0-1.067-.663l-1.495-.056Z" transform="translate(70.008 67.413)"/>
            <path id="Trazado_565688" data-name="Trazado 565688" d="M102.157,99.245a1.291,1.291,0,0,1,2.207.084,2.7,2.7,0,0,1-.175,3,1.292,1.292,0,0,1-2.207-.082,2.7,2.7,0,0,1,.175-3" transform="translate(69.423 67.413)" fill="gray"/>
            <path id="Trazado_565689" data-name="Trazado 565689" d="M97.209,98.585l.806.434,1.961,3.318,2.463,1.645,1.419,1.086,2.144.586c1.013.16,1.123-1,.131-1.69l-1.754-.939-.934-1.552a2.971,2.971,0,0,1,2.754-1.424s1.786,1.507,1.857,1.586,1.554,1.562,1.554,1.562c1.172,1.348,2.252.5,1.441-.693l-1.715-2.01-1.274-1.586,2.692,1.256,1.836,1.375c1.092.756,2.01.029,1.234-.83l-1.54-1.36L110.656,98.1l2.326.688,1.3,1.136a1.271,1.271,0,0,0,1.384.311.6.6,0,0,0-.1-1.035c.153-.316-.221-.786-.512-.985l-2.478-1.429-6-1.515-5.223-.571-4.208-.173c-2.237-.547-1.513,3.03.062,4.058" transform="translate(65.409 64.546)" fill="#ffb294"/>
            <path id="Trazado_565690" data-name="Trazado 565690" d="M90.617,88.48l17.714,10.28c-1.836.153-2.633,1.668-2.532,4.353-11.249-3.361-13.828-4.026-21.458-6.248a24.957,24.957,0,0,1,6.275-8.384" transform="translate(57.626 60.453)" fill="#fff"/>
            <path id="Trazado_565691" data-name="Trazado 565691" d="M79.626,97.979a.351.351,0,0,1-.175-.047c-7.006-4.068-11.244-10.354-13.34-19.776A2.573,2.573,0,0,1,67.6,75.248l.956-.417a.349.349,0,0,1,.279.64l-.954.417A1.873,1.873,0,0,0,66.793,78c2.05,9.219,6.184,15.36,13.008,19.324a.349.349,0,0,1-.175.651" transform="translate(45.129 51.108)" fill="#4d4d4d"/>
            <path id="Trazado_565692" data-name="Trazado 565692" d="M74.545,96.075a.336.336,0,0,1-.286.146.316.316,0,0,1-.2-.056.347.347,0,0,1-.091-.488,25.387,25.387,0,0,0,4.38-16.834c.215-.559.4-1.047.564-1.488.811,7.194-.613,13.23-4.371,18.719" transform="translate(50.498 52.853)" fill="#4d4d4d"/>
            <path id="Trazado_565693" data-name="Trazado 565693" d="M67.337,76.409a.7.7,0,0,1-.279-1.338l.954-.417a.7.7,0,0,1,.559,1.279l-.954.417a.683.683,0,0,1-.279.059" transform="translate(45.53 50.966)" fill="#4d4d4d"/>
            <path id="Trazado_565694" data-name="Trazado 565694" d="M71.474,115.533l1.966,1.619c2.035,2.38,4.87,3.087,6.992,3.55l1.542,1.163,1.087,2.22c.894,1.754,1.638.921,1.326-.428l-.656-1.8-1.129-1.3.357-.128,1.528.832,2.054,1.8.465.808a1.16,1.16,0,0,0,1.269.552c.121-.027.328.14.328.14a.778.778,0,0,0,1.06-.079,1.22,1.22,0,0,0,.252-1.219l-.668-1.932-1.542-1.974.431,1.05,1.035,1.15.593,1.16c.667,1.143,1.4.4,1.241-.626l-.638-1.658L89.281,117.5l-3.738-2.084-7.672-1.774-2.905-1.954-2.931-1.161c-2-2-2.025,3.25-.561,5.008" transform="translate(48.132 75.21)" fill="#ffb294"/>
            <path id="Trazado_565695" data-name="Trazado 565695" d="M54.4,92.219c1.843,12.885,2.126,16.991,3.737,24.449a8.1,8.1,0,0,0,2.718,4.508C66.909,126.234,73.75,132.2,84.7,136.753c.645-2.32,1.648-4.109,3.846-4.134L68.113,113.729c.089-6.581-.239-13.07-1.969-25.8C63.484,78.9,53.268,80.058,54.4,92.219" transform="translate(37.11 56.023)" fill="#fff"/>
          </g>
        </g>
      </g>
    </g>
  </g>
</svg>
