<svg xmlns="http://www.w3.org/2000/svg" width="75.42" height="75.378" viewBox="0 0 75.42 75.378">
  <g id="Grupo_841772" data-name="Grupo 841772" transform="translate(-300.871 -11414.558)">
    <g id="Grupo_841681" data-name="Grupo 841681" transform="translate(-9.961 10935.212)">
      <path id="Trazado_566929" data-name="Trazado 566929" d="M310.832,517.782c.536-11.512,6.457-22.08,18.587-28.454s24.186-5.383,35.738,1.954c.413.262.759.957,1.345.6.615-.371.15-.979.061-1.475-.97-5.422-1.582-3.514,2.207-7.455.68-.707,1.36-1.42,2.094-2.069a5.618,5.618,0,0,1,9.376,3.256c.126.808.283,1.091,1.165,1.212a5.607,5.607,0,0,1,3.233,9.446c-1.376,1.467-2.85,2.84-4.247,4.288a1.968,1.968,0,0,1-2,.6c-1.149-.251-2.3-.487-3.453-.724-.416-.086-.882-.367-1.224.085-.392.517.185.785.4,1.1A34.759,34.759,0,0,1,349.685,554.5C328.816,556.838,310.783,540.783,310.832,517.782Z"/>
      <path id="Trazado_566930" data-name="Trazado 566930" d="M339.688,561.252c-.412,1.324.313,1.959,1.391,2.51a25.322,25.322,0,0,0,33.412-35.241c-.605-1.032-.645-1.616.29-2.417,1.224-1.048,2.3-2.268,3.557-3.531a30.3,30.3,0,0,1,4.738,9.573A31.815,31.815,0,0,1,359.3,572.28c-17.674,3.976-35.5-8.317-38.17-26.324a31.878,31.878,0,0,1,33.36-36.523,10.1,10.1,0,0,1,1.145.2.762.762,0,0,1-.769.163c.224-.056.762.2,1.263-.119,4.452.091,11.721,2.9,15.1,5.905-1.384,1.33-2.8,2.615-4.119,3.99-.717.746-1.141.089-1.623-.192a25.127,25.127,0,0,0-32.955,6.44c-6.265,8.354-6.922,17.428-2.52,26.884.51,1.1,1.185,1.8,2.507,1.4,1.16.588,1.6,1.842,2.48,2.688a1.322,1.322,0,0,1-.049.575c-.317,1.479-.01,1.794,1.446,1.483a1.592,1.592,0,0,1,.576-.068A10.243,10.243,0,0,1,339.688,561.252Z" transform="translate(-7.016 -21.182)" fill="#fe7b79"/>
      <path id="Trazado_566931" data-name="Trazado 566931" d="M357.417,579.387a12.517,12.517,0,0,1-2.257-2.782c.873-.821.7-1.654.2-2.643a22.326,22.326,0,0,1,15.4-32.176,21.975,21.975,0,0,1,16.435,2.986c-1.518,1.458-2.969,2.779-4.327,4.188-.656.681-1.162.195-1.705-.017a15.943,15.943,0,1,0,8.895,9.133,2.067,2.067,0,0,1,.624-2.731c1.2-1.076,2.248-2.319,3.49-3.625,3.994,6.9,4.605,13.822,1.554,20.908a22.322,22.322,0,0,1-30.634,11.015c-1.011-.509-1.884-.836-2.771.119a13.353,13.353,0,0,1-2.787-2.251A1.876,1.876,0,0,0,357.417,579.387Z" transform="translate(-29.652 -43.692)" fill="#fefefe"/>
      <path id="Trazado_566932" data-name="Trazado 566932" d="M402.451,574.325c-2.492,2.851-2.492,2.851-2.737,5.716a6.641,6.641,0,0,0-6.477,1.6,6.253,6.253,0,0,0-1.978,4.746,6.5,6.5,0,0,0,7,6.356c4.031-.311,6.39-3.75,5.732-8.589,2.547.642,4.2-.73,5.551-2.681,2.569,4.39.779,11.3-3.705,14.905a12.95,12.95,0,0,1-18.945-17.185C390.254,574.047,397.122,571.873,402.451,574.325Z" transform="translate(-52.154 -66.279)" fill="#fe7a79"/>
      <path id="Trazado_566933" data-name="Trazado 566933" d="M478.183,532.228c-.073,2.178.936,2.963,3.06,3.062-.987.918-1.711,1.554-2.393,2.232-2.676,2.658-5.355,5.313-7.993,8.009-.662.676-1.082.7-1.773,0-2.1-2.109-2.126-2.078-.024-4.18Z" transform="translate(-110.498 -37.298)" fill="#65def5"/>
      <path id="Trazado_566934" data-name="Trazado 566934" d="M530.028,513.873c-1.072,1.786-2.8,2.967-4.164,4.481-.232.257-.532.147-.824.084-1.8-.388-3.605-.766-5.679-1.2,2.54-2.335,4.528-4.924,7.179-6.846.688,0,1.373-.063,2.06-.062a1.76,1.76,0,0,1,1.4,1.211A16.924,16.924,0,0,1,530.028,513.873Z" transform="translate(-147.08 -21.851)" fill="#cbf4fb"/>
      <path id="Trazado_566935" data-name="Trazado 566935" d="M516.126,493.96c-1.891,2.635-4.491,4.584-6.819,7.207-.469-2.163-.891-4.078-1.29-6a.656.656,0,0,1,.153-.527c1.506-1.373,2.689-3.093,4.472-4.169a16.328,16.328,0,0,1,2.337.03,1.711,1.711,0,0,1,1.119,1.122A15.913,15.913,0,0,1,516.126,493.96Z" transform="translate(-139.072 -7.829)" fill="#cbf4fb"/>
      <path id="Trazado_566936" data-name="Trazado 566936" d="M421.687,605.983c-.756.643-1.312,1.052-1.789,1.539a1.361,1.361,0,0,0-.063,2.088,1.343,1.343,0,0,0,2.085-.006,22.22,22.22,0,0,0,1.508-1.875c.607,2.238.062,3.667-1.374,4.506a3.531,3.531,0,0,1-4.889-4.7C417.965,606.032,419.427,605.44,421.687,605.983Z" transform="translate(-74.707 -89.179)" fill="#fcfcfc"/>
      <path id="Trazado_566937" data-name="Trazado 566937" d="M446.778,582.055c.464-.5.914-1.01,1.394-1.492,2.209-2.22,2.8-2.139,4.686.471.349.483.133.673-.159.954q-1.527,1.469-3.049,2.944C446.6,585.089,446.6,585.089,446.778,582.055Z" transform="translate(-95.842 -70.275)" fill="#bf91d9"/>
      <path id="Trazado_566938" data-name="Trazado 566938" d="M446.06,589.412c-.087,2,.884,2.946,2.871,2.877-.876.652-1.87.2-2.805.3a.325.325,0,0,1-.362-.366C445.861,591.283,445.4,590.287,446.06,589.412Z" transform="translate(-95.124 -77.631)" fill="#c596e1"/>
      <path id="Trazado_566939" data-name="Trazado 566939" d="M526.068,489.74a2.553,2.553,0,0,1-2.337-.03A2.078,2.078,0,0,1,526.068,489.74Z" transform="translate(-150.161 -7.066)" fill="#d2fbfe"/>
      <path id="Trazado_566940" data-name="Trazado 566940" d="M534.845,496.783a2.553,2.553,0,0,1-.028-2.335A2.079,2.079,0,0,1,534.845,496.783Z" transform="translate(-157.791 -10.652)" fill="#d2fbfd"/>
      <path id="Trazado_566941" data-name="Trazado 566941" d="M554.838,516.772a2.535,2.535,0,0,1-.032-2.336A2.077,2.077,0,0,1,554.838,516.772Z" transform="translate(-171.889 -24.749)" fill="#d2fbfd"/>
      <path id="Trazado_566942" data-name="Trazado 566942" d="M545.784,509.64a1.768,1.768,0,0,1-2.06.062A1.839,1.839,0,0,1,545.784,509.64Z" transform="translate(-164.263 -21.164)" fill="#d2fcfe"/>
      <path id="Trazado_566943" data-name="Trazado 566943" d="M436.513,510.271c-.549.518-1.16.269-1.768.076l1.275-.119Z" transform="translate(-87.398 -21.781)" fill="#fe827f"/>
      <path id="Trazado_566944" data-name="Trazado 566944" d="M367.033,669.863a1.518,1.518,0,0,1,2.121,2.123c-.716.563-1.476.8-2.2.073S366.471,670.578,367.033,669.863Z" transform="translate(-39.269 -134.168)" fill="#080707"/>
    </g>
  </g>
</svg>
